{"glyphs":{"0":{"ha":952,"x_min":35,"x_max":917,"o":"m 917 519 q 915 506 917 517 q 911 494 913 495 q 912 487 910 491 q 911 480 914 483 q 914 423 911 449 q 909 416 911 420 q 905 410 907 412 q 905 395 906 403 q 903 381 903 388 q 897 357 901 365 q 894 345 892 350 q 889 330 888 338 q 887 316 890 321 q 878 305 879 308 q 873 304 876 302 q 874 294 875 294 q 872 290 873 293 q 869 274 871 277 q 868 269 867 271 q 853 248 856 256 q 844 235 850 240 q 844 227 846 229 q 841 218 841 224 q 828 205 831 210 q 822 193 825 199 q 808 184 812 191 q 795 175 804 178 q 780 156 784 163 q 769 145 776 149 q 751 132 751 140 q 738 125 742 130 q 728 113 734 119 q 720 109 724 110 q 715 102 716 107 q 690 90 700 99 q 680 87 684 91 q 669 80 675 83 q 651 73 656 75 q 643 69 646 72 q 620 61 627 66 q 606 53 613 56 q 591 50 594 52 q 586 46 589 47 q 572 45 579 43 q 560 38 564 46 q 549 40 555 45 q 537 34 543 35 q 523 34 524 35 q 515 35 522 33 q 505 33 513 35 q 498 28 498 31 q 488 31 495 31 q 480 26 481 30 q 467 30 475 28 q 454 28 460 31 q 446 33 454 30 q 437 35 438 35 q 420 35 422 35 q 416 34 419 34 q 404 39 410 34 q 392 38 397 43 q 375 46 385 47 q 357 52 365 45 q 336 58 340 56 q 330 64 332 61 q 313 70 316 71 q 308 69 311 69 q 296 75 301 75 q 285 77 290 75 q 273 85 282 80 q 260 90 264 90 q 236 102 250 99 q 231 109 235 107 q 224 113 227 110 q 213 125 217 119 q 199 132 209 130 q 189 143 193 141 q 182 145 186 145 q 171 156 175 149 q 160 165 167 163 q 144 184 148 176 q 129 193 140 191 q 123 204 126 199 q 118 216 121 209 q 107 226 110 221 q 107 233 104 231 q 96 252 98 248 q 94 262 95 256 q 81 273 83 269 q 79 284 80 278 q 76 296 77 290 q 77 302 75 301 q 64 319 65 316 q 62 326 62 323 q 62 332 62 328 q 61 342 62 335 q 55 357 58 345 q 53 373 52 369 q 47 403 47 389 q 37 423 46 416 q 37 446 38 435 q 35 469 37 457 q 39 485 37 481 q 39 492 41 488 q 36 508 37 500 q 35 524 35 515 q 36 538 35 532 q 39 547 37 545 q 39 557 37 552 q 45 567 42 563 q 43 581 45 581 q 43 586 42 582 q 48 602 49 600 q 47 606 47 604 q 52 612 50 609 q 56 618 54 616 q 62 642 57 637 q 71 662 68 647 q 80 675 79 674 q 81 680 81 677 q 81 686 83 685 q 83 693 80 688 q 89 702 85 696 q 95 711 92 708 q 97 720 96 715 q 100 730 98 726 q 115 747 113 741 q 118 762 118 754 q 129 777 126 768 q 134 795 132 787 q 149 803 142 803 q 158 821 153 819 q 164 829 163 822 q 175 841 171 838 q 182 850 179 844 q 197 866 193 863 q 203 875 201 869 q 211 876 209 873 q 217 879 213 878 q 220 885 220 882 q 224 892 221 888 q 232 895 227 895 q 237 902 237 895 q 250 905 245 902 q 259 914 254 909 q 273 924 267 914 q 302 940 289 930 q 320 954 315 949 q 334 954 331 955 q 340 955 338 954 q 348 958 345 956 q 355 959 351 959 q 377 964 369 964 q 395 967 385 964 q 417 972 411 974 q 430 974 423 971 q 458 981 442 978 q 488 982 475 985 q 507 977 495 981 q 526 972 519 974 q 536 972 532 971 q 544 972 540 974 q 556 969 552 971 q 564 966 560 967 q 572 964 567 964 q 590 964 578 963 q 612 955 595 959 q 631 954 628 951 q 649 941 642 945 q 656 933 656 936 q 678 924 669 924 q 692 914 682 914 q 701 905 697 909 q 713 902 705 902 q 719 895 713 895 q 728 892 724 895 q 730 886 728 888 q 732 879 732 883 q 739 876 736 879 q 747 875 742 873 q 754 867 750 869 q 758 859 758 865 q 781 833 772 849 q 791 824 788 830 q 800 815 793 818 q 809 801 804 803 q 817 795 814 799 q 822 777 819 787 q 833 762 825 768 q 837 743 834 751 q 850 730 840 734 q 853 721 853 726 q 856 712 853 716 q 863 700 859 705 q 871 688 868 694 q 870 681 868 685 q 871 673 872 677 q 886 644 880 652 q 898 627 892 636 q 899 613 895 617 q 903 606 902 609 q 905 593 903 595 q 907 589 907 591 l 911 575 q 910 559 906 564 q 911 548 914 553 q 916 535 917 537 q 914 530 914 533 l 917 519 m 836 536 q 831 557 831 545 q 825 576 831 570 q 823 593 823 582 q 818 606 822 604 q 814 621 814 620 q 815 625 815 623 q 804 640 804 636 q 803 647 803 643 q 793 663 799 651 q 784 681 787 675 q 783 688 783 684 q 781 694 783 692 q 772 707 779 701 q 764 722 765 713 q 749 744 755 734 q 743 757 743 754 q 736 764 738 760 q 730 772 734 768 q 726 781 730 779 q 723 791 723 784 q 709 805 713 796 q 696 821 704 814 q 685 827 690 825 q 678 836 680 829 q 661 845 667 838 q 644 853 655 852 q 635 864 640 860 q 627 875 631 868 q 593 887 602 887 q 572 892 585 887 l 556 895 q 546 899 547 898 q 543 902 545 901 q 517 903 526 906 q 494 902 507 901 q 482 904 487 902 q 471 905 477 906 q 463 903 467 905 q 456 902 460 902 q 444 903 449 902 q 433 905 439 905 q 416 902 422 905 q 401 897 410 899 q 393 895 396 898 q 384 895 389 892 q 375 892 380 891 q 365 890 370 892 q 344 880 354 887 q 324 875 334 873 q 315 863 320 868 q 305 853 311 859 q 289 845 294 852 q 273 836 283 838 q 266 827 271 829 q 255 821 260 825 q 242 805 247 814 q 228 791 237 796 q 224 781 228 784 q 221 770 220 777 q 214 763 216 768 q 208 757 213 758 q 201 744 208 754 q 193 732 195 734 q 186 716 189 723 q 178 706 183 712 q 170 694 172 700 q 165 683 167 689 q 161 670 164 677 q 152 653 153 656 q 148 647 151 650 q 148 639 149 643 q 146 629 146 635 q 134 613 137 618 q 130 601 132 608 q 127 588 127 594 q 126 575 127 582 q 119 556 119 572 q 115 533 118 540 q 121 511 121 519 q 118 491 117 495 q 121 481 119 487 q 116 467 121 475 q 121 449 111 458 q 126 433 125 437 q 130 425 127 429 q 128 416 126 420 q 130 407 130 411 q 129 399 130 403 q 129 392 127 396 q 132 374 129 382 q 140 357 136 365 q 144 339 142 342 q 148 334 145 336 q 154 319 151 321 q 156 311 157 317 q 163 301 163 308 q 168 290 164 294 q 178 267 179 274 q 186 259 184 264 q 193 250 189 254 q 201 243 197 245 q 208 233 206 240 q 218 224 214 225 q 224 218 221 222 q 236 211 232 217 q 247 202 240 205 q 270 175 266 190 q 277 173 273 174 q 281 167 281 172 q 296 161 292 163 q 304 157 300 160 q 312 153 309 156 q 321 149 315 149 q 342 136 326 144 q 366 130 359 127 q 387 122 385 125 q 395 117 388 119 q 409 117 404 121 q 420 110 414 113 q 451 104 431 106 q 480 107 471 103 q 496 105 490 104 q 511 106 503 106 q 524 109 518 107 q 532 110 530 110 q 544 117 537 114 q 557 117 551 121 q 566 122 563 119 q 576 123 570 125 q 581 127 582 125 q 595 130 581 130 q 610 137 602 136 q 624 142 617 138 q 644 155 633 149 q 663 167 655 160 q 674 173 670 172 q 681 175 678 174 q 689 188 684 184 q 703 194 694 191 q 715 212 711 208 q 728 218 720 216 q 734 224 731 222 q 738 232 736 227 q 750 243 745 240 q 758 250 755 245 q 764 259 762 254 q 773 267 766 264 q 781 278 772 274 q 781 286 780 282 q 783 293 783 289 q 787 301 787 292 q 795 311 788 311 q 798 319 795 317 q 803 326 800 321 q 807 340 806 338 q 811 345 808 342 l 811 358 q 818 375 814 361 q 822 393 822 389 q 822 401 823 397 q 821 408 821 404 q 823 417 821 412 q 821 426 825 422 q 825 433 823 427 q 830 441 827 438 q 836 466 836 460 q 830 477 837 472 q 833 488 831 483 q 834 499 834 494 q 832 507 834 503 q 830 513 830 510 q 832 524 830 519 q 836 536 834 529 z "},"1":{"ha":452,"x_min":69,"x_max":358,"o":"m 353 115 q 347 88 358 100 q 347 75 350 84 q 334 65 342 72 q 320 57 327 58 q 290 57 300 60 q 270 61 279 54 q 250 58 258 58 q 233 57 241 58 q 216 54 224 56 q 208 50 209 53 q 197 50 202 53 q 187 50 191 47 q 174 42 182 47 l 157 42 q 150 50 152 47 q 148 54 148 52 q 129 68 138 65 q 126 96 126 88 q 129 113 126 104 q 140 119 136 115 q 152 126 145 123 q 162 125 156 126 q 171 129 168 125 q 178 127 174 126 q 186 129 182 129 q 192 159 195 146 q 191 182 189 171 q 189 193 186 191 q 191 198 191 195 q 192 213 194 205 q 190 228 190 221 q 193 239 190 235 q 195 251 195 244 q 193 273 190 267 q 197 286 197 279 q 195 294 197 292 q 197 302 194 296 q 193 312 194 307 q 190 323 193 317 q 193 336 193 330 q 191 349 194 342 q 196 371 197 357 q 191 393 195 385 q 193 408 193 396 q 195 433 194 419 q 197 460 197 448 q 198 477 198 473 q 197 488 198 483 q 197 498 195 492 q 197 512 198 511 q 195 515 195 513 q 197 543 198 534 q 197 557 197 551 q 197 568 198 564 q 195 574 195 571 q 195 586 194 581 q 197 598 195 591 q 199 616 201 612 q 198 624 198 620 q 199 635 199 631 q 198 646 198 640 q 201 660 202 659 q 199 663 199 661 q 202 680 199 671 q 205 696 205 688 q 203 706 205 701 q 203 715 202 711 q 205 736 208 730 q 208 749 203 742 q 206 755 208 753 q 205 762 205 758 q 206 774 203 766 q 203 784 209 783 q 191 776 193 777 q 187 773 190 774 q 165 753 172 761 q 149 738 159 745 q 145 728 149 731 q 138 720 141 726 q 121 717 130 719 q 104 718 113 715 q 91 726 92 727 q 87 728 90 726 q 83 733 84 731 q 76 738 83 735 q 73 745 73 741 q 69 753 72 750 q 74 760 75 755 q 76 770 73 765 q 90 787 80 777 q 102 800 100 796 q 123 814 110 802 q 138 836 136 827 q 144 840 142 837 q 149 844 145 844 q 154 851 151 849 q 156 860 157 853 q 166 867 163 863 q 175 872 170 871 q 191 890 180 884 q 205 909 202 895 q 218 914 213 907 q 231 924 224 921 q 244 926 235 926 q 258 922 254 925 q 271 913 270 917 q 277 911 271 910 q 280 900 277 905 q 282 887 283 895 q 286 873 283 883 q 285 861 289 864 q 285 837 286 852 q 285 815 283 822 q 286 783 289 793 q 286 761 283 772 q 288 751 286 753 q 288 746 289 749 q 284 739 285 739 q 288 730 283 738 q 285 717 285 724 q 288 704 285 709 q 285 696 286 701 q 283 688 283 692 q 285 671 286 677 q 283 659 283 666 q 283 646 285 648 q 282 640 282 643 q 283 616 281 629 q 278 594 286 604 q 280 581 282 589 q 278 567 278 574 q 276 543 279 549 q 279 522 273 536 q 279 504 281 505 q 278 495 278 503 q 278 478 279 481 q 277 471 277 475 q 279 458 277 464 q 279 445 281 452 q 278 437 279 441 q 277 427 277 433 q 277 412 278 415 q 278 406 277 408 q 279 391 281 400 q 275 380 278 382 q 277 370 275 380 q 279 349 278 361 q 281 328 279 338 q 282 317 282 319 q 280 298 278 304 q 282 288 282 292 q 280 279 282 286 q 278 267 278 271 q 280 260 278 263 q 283 252 282 256 q 281 235 282 240 q 278 225 279 231 q 277 206 277 216 q 279 187 278 197 q 283 170 283 172 q 285 165 282 167 q 286 144 279 152 q 321 138 309 144 q 340 129 332 132 q 346 121 342 122 q 353 115 350 119 z "},"2":{"ha":765,"x_min":54,"x_max":711,"o":"m 708 83 q 701 70 707 76 q 692 58 694 64 q 677 54 688 56 q 655 50 666 52 q 635 47 644 49 q 627 43 627 45 q 606 42 616 50 q 595 46 600 43 q 586 49 591 49 q 572 50 574 50 q 567 49 570 49 q 551 47 556 50 q 541 45 547 45 q 532 47 536 45 q 522 49 528 49 q 513 49 518 46 q 506 52 509 52 q 486 50 495 53 q 465 52 476 47 q 442 50 446 49 q 435 52 438 52 q 429 50 433 52 q 416 43 425 49 q 403 46 404 49 q 399 43 401 43 q 386 43 388 45 q 381 42 384 42 q 367 41 373 37 q 357 39 361 46 q 315 46 330 43 q 285 49 300 49 q 267 47 270 46 q 262 49 264 49 q 235 46 243 45 q 220 45 228 47 q 212 43 216 45 q 205 41 209 41 q 187 41 195 39 q 170 37 179 43 q 159 38 164 41 q 146 35 153 35 q 121 35 127 37 q 109 33 115 33 q 96 33 102 33 q 85 31 91 34 q 79 35 83 34 q 77 42 76 37 q 71 47 73 43 q 64 52 68 50 q 60 60 64 57 q 56 69 57 64 q 56 82 54 76 q 57 95 58 88 q 69 107 69 103 q 71 114 69 111 q 82 128 80 125 q 83 137 84 132 q 89 142 88 138 q 95 148 90 146 q 98 159 99 157 q 96 164 96 161 q 109 181 106 171 q 121 198 111 191 q 124 210 119 202 q 133 218 129 217 q 138 229 134 225 q 144 237 141 233 q 145 247 142 244 q 148 255 148 250 q 153 260 151 258 q 159 266 156 263 q 161 274 157 273 q 167 281 165 275 q 181 292 176 285 q 193 301 186 300 q 198 311 194 308 q 202 321 202 315 q 215 328 210 323 q 228 336 220 334 q 271 374 254 357 q 300 393 293 378 q 319 401 308 395 q 334 415 331 407 q 351 423 345 418 q 363 435 357 429 q 375 441 372 435 q 385 449 378 448 q 394 459 388 456 q 403 469 400 463 q 420 476 410 468 q 433 490 430 484 q 446 499 442 496 q 452 509 450 502 q 465 518 463 515 q 468 524 467 521 q 480 530 476 529 q 486 539 483 536 q 490 549 490 543 q 505 565 500 556 q 515 585 509 574 q 523 595 521 594 q 526 608 525 597 q 534 615 529 609 q 543 629 538 621 q 549 643 547 636 q 552 654 552 650 q 568 694 562 678 q 572 728 574 711 q 576 736 576 731 q 578 746 575 742 q 574 755 575 750 q 576 765 574 761 q 573 772 574 768 q 568 779 572 776 q 569 800 571 792 q 564 810 567 807 q 557 831 564 825 q 541 849 551 838 q 528 854 529 852 q 522 859 526 857 q 486 878 499 875 q 458 888 473 882 q 447 888 456 888 q 427 890 438 888 q 408 892 416 891 q 399 894 399 892 q 378 890 388 891 q 358 884 368 888 q 332 881 340 882 q 316 880 324 880 q 289 869 301 873 q 266 854 278 861 q 247 836 254 848 q 231 827 243 837 q 218 814 220 818 q 203 796 210 803 q 190 785 197 789 q 181 764 184 776 q 168 746 178 753 q 160 701 160 723 q 149 694 153 700 q 138 685 145 688 q 127 682 133 682 q 114 678 121 681 q 102 682 104 682 q 98 681 100 681 q 93 686 95 682 q 87 689 91 690 q 85 701 84 694 q 80 712 85 708 q 77 723 79 722 q 75 727 75 724 q 79 736 76 730 q 83 745 81 742 q 86 762 83 751 q 95 776 90 772 q 98 788 95 785 q 99 798 102 791 q 104 802 106 798 q 106 810 103 807 q 115 820 109 812 q 122 833 121 827 q 127 837 126 833 q 133 841 129 841 q 136 850 133 846 q 140 860 138 854 q 148 865 145 861 q 156 872 151 869 q 172 880 170 880 q 178 888 175 887 q 180 897 180 890 q 220 921 202 907 q 233 929 231 926 q 237 935 235 932 q 269 948 252 936 q 300 958 283 948 q 315 959 307 954 q 330 959 323 964 q 342 964 342 964 q 346 963 343 963 q 361 966 353 963 q 376 970 369 968 q 393 969 384 971 q 410 967 401 967 q 415 968 414 967 q 417 969 416 968 q 420 970 418 970 q 430 970 423 970 q 446 967 439 970 q 458 964 452 964 l 472 962 q 484 960 477 963 q 495 955 491 958 q 515 951 510 954 q 526 948 519 948 q 536 941 528 947 q 555 930 545 936 q 572 920 564 925 q 583 914 581 916 q 597 897 585 910 q 613 883 609 884 q 624 871 621 873 q 629 867 627 869 q 634 850 632 860 q 643 834 636 840 q 644 822 643 829 q 650 811 644 815 q 648 800 647 806 q 650 789 650 795 q 655 771 652 774 q 659 764 658 768 q 658 736 659 757 q 655 707 656 716 q 650 687 652 690 q 646 678 647 684 q 645 669 644 674 q 644 661 646 665 q 642 654 643 658 q 643 646 640 650 q 639 640 640 643 q 633 633 637 636 l 633 620 q 625 610 627 617 q 617 600 624 602 q 606 578 610 583 q 600 564 602 572 q 589 553 593 557 q 585 538 585 548 q 577 528 579 534 q 568 519 575 522 q 551 495 566 500 q 547 488 549 491 q 543 480 544 486 q 523 463 526 471 q 509 453 519 456 q 491 429 495 439 q 478 425 484 427 q 469 415 472 422 q 448 402 454 408 q 435 389 442 396 q 414 379 429 382 q 400 363 400 376 q 393 360 395 363 q 389 354 392 357 q 374 349 376 354 q 369 339 373 345 q 358 330 361 340 q 340 323 345 324 q 335 317 336 321 q 311 308 319 313 q 296 298 304 302 q 271 278 285 286 q 255 253 263 259 q 243 236 247 247 q 235 233 237 236 q 229 228 233 231 q 220 210 222 214 q 217 199 218 205 q 205 188 209 195 q 198 172 201 180 q 189 163 191 170 q 182 151 186 157 q 178 132 180 136 q 172 127 176 129 q 184 115 175 113 l 216 115 q 237 117 231 119 q 247 121 243 115 q 262 119 262 115 q 264 121 262 122 q 276 117 266 118 q 289 115 286 115 q 296 117 293 115 q 304 119 300 119 q 317 118 311 119 q 331 118 324 117 q 342 119 335 119 q 357 119 349 119 q 372 119 365 119 q 382 119 380 119 q 410 125 404 122 q 426 129 415 127 q 436 127 431 129 q 448 127 441 125 q 463 130 450 132 q 479 126 476 129 q 496 128 487 130 q 511 127 505 126 q 518 129 514 127 q 525 130 522 130 q 536 128 532 130 q 548 126 541 126 q 569 125 563 127 q 581 130 575 123 q 595 127 587 126 q 612 127 604 129 q 617 148 616 136 q 617 172 618 160 q 614 191 616 183 q 613 201 613 199 q 607 229 609 216 q 604 248 605 241 q 602 259 605 252 q 600 269 600 266 q 601 277 600 273 q 601 286 602 281 q 608 292 605 289 q 613 298 612 294 q 621 300 618 298 q 627 302 624 301 q 634 304 629 304 q 647 302 639 305 q 661 298 656 300 q 667 285 665 296 q 682 271 680 274 q 686 263 685 267 q 686 252 688 258 q 685 241 684 247 q 686 235 685 237 q 688 228 686 232 q 692 204 693 212 q 692 190 690 197 q 698 167 699 171 q 703 151 697 163 q 702 133 701 136 q 705 127 703 130 q 704 117 703 122 q 705 107 705 113 q 709 94 707 98 q 708 83 711 90 z "},"3":{"ha":768,"x_min":54,"x_max":728,"o":"m 726 408 q 725 385 724 392 q 722 370 726 377 q 718 350 720 354 q 716 338 715 346 q 711 313 711 321 q 704 297 711 304 q 705 289 707 294 q 707 281 704 283 q 696 255 697 263 q 688 237 696 247 q 685 225 689 228 q 678 216 681 222 q 677 208 677 212 q 674 201 677 205 q 662 193 667 198 q 659 184 662 187 q 656 175 655 182 q 644 162 646 172 q 636 146 643 152 q 623 140 625 142 q 617 137 621 137 q 610 124 614 129 q 602 113 605 119 q 582 103 591 113 q 572 101 581 103 q 562 98 564 99 q 543 86 555 95 q 522 72 532 77 q 513 68 518 69 q 506 62 509 66 q 491 60 498 64 q 477 57 484 57 q 471 51 475 53 q 465 46 468 49 q 444 45 450 47 q 429 46 437 42 q 409 45 412 47 q 400 41 406 42 q 387 43 397 39 q 380 41 377 46 q 372 42 378 41 q 357 44 365 43 q 342 45 349 45 q 335 45 336 45 q 317 50 321 50 q 309 50 313 49 q 296 59 300 53 q 270 64 292 65 q 254 67 259 65 q 245 72 250 69 q 235 77 240 75 q 221 79 229 79 q 213 85 217 84 q 212 92 209 85 q 200 96 202 95 q 195 98 198 98 q 192 106 195 104 q 189 115 189 109 q 180 126 186 122 q 171 137 175 130 q 165 140 168 140 q 159 144 161 141 q 151 162 156 151 q 141 179 145 174 q 134 184 138 182 q 127 191 130 187 q 120 213 123 208 q 117 225 117 218 q 115 250 118 244 q 115 266 113 256 q 122 275 121 275 q 127 281 123 274 q 141 284 134 282 q 152 279 148 286 q 161 279 156 282 q 174 278 167 275 q 178 269 174 271 q 186 263 183 267 q 191 245 190 250 q 194 237 191 241 q 206 218 199 228 q 217 198 213 208 q 237 175 229 180 q 248 159 245 170 q 260 150 255 153 q 266 144 264 146 q 277 140 273 142 q 288 136 281 138 q 307 134 294 137 q 334 126 320 130 q 358 120 347 122 q 370 122 369 118 q 377 119 374 121 q 384 118 380 117 q 392 118 388 115 q 400 121 396 121 q 414 120 410 121 q 422 119 419 119 q 431 121 426 119 q 445 130 435 123 q 460 131 458 129 q 464 136 461 133 q 478 138 473 134 q 490 144 483 141 q 526 165 510 153 q 544 179 541 178 q 553 189 552 190 q 556 189 553 189 q 566 201 566 199 q 568 206 566 203 q 575 210 571 209 q 582 214 579 212 q 589 227 587 220 q 597 237 590 233 q 600 245 597 243 q 604 252 602 248 q 608 263 606 263 q 610 266 609 263 q 616 286 616 279 q 620 297 616 293 q 621 312 621 309 q 623 317 621 315 q 623 332 623 324 q 629 346 624 339 q 629 355 629 353 q 636 363 629 358 q 637 382 633 373 q 646 400 642 392 q 642 413 640 407 q 644 426 644 419 q 641 436 643 431 q 639 446 639 441 q 633 458 635 452 q 631 471 632 464 q 627 479 631 477 q 627 488 623 481 q 618 496 624 494 q 610 505 613 499 q 602 523 602 518 q 600 532 602 528 q 595 537 597 534 q 593 544 593 540 q 575 555 581 553 q 567 564 570 557 q 560 567 564 566 q 553 571 556 568 q 529 575 534 572 q 514 581 517 581 q 500 582 507 583 q 486 582 492 581 l 472 585 q 449 590 464 587 q 427 589 434 593 q 409 591 412 593 q 401 590 406 590 q 392 591 396 590 q 382 590 388 593 q 374 587 374 587 q 365 583 374 586 q 359 581 363 583 q 353 576 355 578 q 344 576 349 575 q 334 575 339 578 q 328 570 330 574 q 324 564 327 567 q 315 557 321 564 q 307 548 309 551 l 294 540 q 288 535 292 537 q 282 529 283 533 q 265 521 271 528 q 248 511 259 514 q 235 512 241 510 q 221 513 228 514 q 210 532 216 526 q 205 547 206 544 q 203 552 205 549 q 209 572 201 563 q 222 589 217 581 q 239 600 233 591 q 254 610 244 608 q 267 626 259 620 q 279 643 275 632 q 288 649 286 644 q 294 658 289 654 q 313 671 307 666 q 319 678 319 677 q 336 688 330 681 q 350 701 343 694 q 369 714 358 708 q 385 731 380 720 q 394 736 389 734 q 401 743 399 738 q 410 748 404 743 q 416 755 415 753 q 427 760 426 758 q 431 764 429 762 q 450 774 446 768 q 460 783 453 780 q 470 791 468 787 q 475 798 472 795 q 488 808 484 800 q 497 812 495 807 q 503 818 499 817 q 530 833 517 822 q 551 857 544 845 q 531 862 537 860 q 518 865 525 864 q 507 863 513 865 q 495 861 502 861 q 477 862 486 861 q 461 861 469 863 q 452 859 456 861 q 444 859 449 857 q 430 863 435 859 q 386 859 401 861 q 355 854 370 857 q 320 859 334 857 q 294 859 307 861 q 280 863 289 863 q 262 861 271 863 q 243 859 252 860 q 228 859 233 859 q 209 858 213 860 q 201 854 205 856 q 189 858 194 854 q 176 857 183 861 q 159 860 168 863 q 140 860 149 857 q 142 840 140 849 q 145 819 144 830 q 144 805 148 811 q 144 792 141 799 q 147 768 145 774 q 148 755 149 762 q 143 746 145 749 q 142 736 141 743 q 133 732 133 734 q 132 728 133 730 q 115 722 118 723 q 110 720 113 720 q 100 726 104 723 q 90 731 96 730 q 81 740 87 738 q 72 746 75 742 q 73 760 75 757 q 71 766 71 764 q 71 798 73 789 q 72 818 68 807 q 69 844 69 829 q 62 865 69 859 q 60 878 62 872 q 56 891 57 884 q 57 906 54 898 q 60 921 60 914 q 66 928 64 924 q 71 936 68 933 q 81 940 76 939 q 88 948 85 941 q 97 949 91 951 q 106 947 103 947 q 119 947 117 948 q 125 944 122 945 q 141 941 138 941 q 145 944 144 941 q 159 938 152 941 q 175 935 167 935 q 193 935 183 933 q 210 932 202 937 q 217 935 214 933 q 222 939 220 937 q 245 938 231 933 q 269 936 259 943 q 278 938 273 939 q 289 939 283 937 q 302 941 300 943 q 307 940 304 940 q 317 941 312 940 q 327 941 321 943 q 369 935 353 933 q 400 936 385 936 q 420 939 411 936 q 439 939 429 941 q 459 943 444 941 q 480 945 475 945 q 496 943 495 941 q 500 944 498 944 q 523 946 517 943 q 536 948 529 949 q 543 946 540 948 q 551 941 547 944 q 564 941 557 944 q 578 939 571 939 q 585 940 582 939 q 593 941 589 941 q 627 944 610 944 q 662 947 644 944 q 668 943 663 947 q 677 936 673 940 q 687 928 682 932 q 694 922 692 924 q 695 906 694 914 q 696 888 696 898 q 690 871 694 873 q 682 860 685 869 q 663 843 669 850 q 646 829 656 836 q 632 814 635 817 q 627 807 629 812 q 614 801 616 803 q 608 791 613 799 q 593 781 598 788 q 578 772 587 774 q 569 762 575 765 q 560 753 563 760 q 543 739 545 753 q 525 723 530 727 q 500 711 506 715 q 492 701 495 708 q 477 694 487 703 q 464 686 467 685 q 457 674 458 678 q 450 672 453 674 q 444 669 448 670 q 465 665 460 662 q 477 666 471 667 q 486 661 481 663 q 495 658 490 659 q 516 657 513 659 q 534 658 519 655 q 567 648 548 646 q 587 640 575 640 q 597 633 591 635 q 609 631 604 632 q 628 610 613 623 q 651 591 643 598 q 661 581 658 585 q 670 575 665 578 q 680 562 673 566 q 684 543 681 552 q 696 529 688 534 q 703 506 697 521 q 712 486 709 491 q 715 469 718 475 q 725 439 722 460 q 726 408 728 419 z "},"4":{"ha":718,"x_min":12,"x_max":690,"o":"m 690 121 q 690 105 690 110 q 688 98 689 100 q 684 91 686 95 q 680 79 682 87 q 670 76 673 79 q 663 71 667 73 q 643 66 652 76 q 635 67 640 65 q 624 62 631 69 q 609 64 617 65 q 595 68 601 62 q 574 67 581 68 q 563 71 568 66 q 547 66 549 69 q 541 62 544 64 q 515 66 524 68 q 500 66 507 64 q 489 62 498 65 q 480 57 480 60 q 464 59 476 58 q 452 53 452 60 q 443 54 442 56 q 437 52 444 53 q 430 52 434 52 q 423 53 426 53 q 407 54 414 54 q 393 52 400 53 l 378 65 q 371 74 376 71 q 362 80 366 77 q 363 99 361 91 q 368 118 365 107 q 379 122 373 121 q 391 126 385 123 q 420 129 410 133 q 440 132 435 127 q 452 132 445 137 q 468 136 458 137 q 481 141 477 134 q 480 153 481 151 q 477 157 479 155 q 478 165 477 161 q 480 172 479 168 q 479 187 481 183 q 476 195 476 191 q 479 203 476 199 q 483 209 481 206 q 483 216 486 214 q 480 222 480 218 q 483 240 481 227 q 481 256 484 254 q 483 267 481 260 q 484 275 484 273 q 483 289 486 282 q 481 302 480 296 q 481 346 487 330 q 484 384 476 362 q 482 397 481 391 q 480 410 483 403 q 477 430 483 422 q 482 452 481 442 q 480 475 483 461 q 464 477 472 475 q 448 479 456 479 q 439 477 444 479 q 431 476 435 476 q 424 477 427 476 q 416 477 420 477 q 403 476 410 477 q 389 475 396 475 q 372 474 377 476 q 362 475 368 472 q 354 471 358 473 q 346 468 350 469 q 326 472 336 473 q 303 470 316 471 q 279 471 290 469 q 264 476 267 472 q 250 476 259 472 q 239 473 241 480 q 213 475 222 477 q 197 476 203 473 q 179 473 183 472 q 171 473 175 475 q 156 472 157 471 q 153 473 155 473 q 141 471 142 469 q 137 471 140 473 q 131 471 136 469 q 123 471 126 472 q 90 463 103 468 q 62 460 76 457 q 52 464 56 461 q 41 468 47 467 q 35 478 38 473 q 24 484 31 483 q 16 510 20 495 q 15 536 12 525 q 24 547 18 543 q 33 556 30 551 q 34 564 35 560 q 38 570 33 567 q 46 591 42 586 q 56 604 50 597 q 66 624 60 614 q 72 636 72 633 q 88 659 79 643 q 100 690 98 675 q 108 699 107 692 q 115 708 109 705 q 124 732 117 722 q 133 755 132 742 q 144 767 140 762 q 149 783 149 772 q 158 800 156 785 q 163 822 160 815 q 168 829 165 826 q 172 838 171 833 q 179 861 176 849 q 180 876 182 872 q 186 886 183 882 q 187 895 190 890 q 196 908 197 906 q 197 913 195 910 q 204 930 201 924 q 210 952 208 937 q 234 959 228 960 q 255 955 240 958 q 259 949 255 951 q 266 947 263 948 q 274 935 269 940 q 283 926 279 930 q 280 910 286 917 q 273 897 274 903 q 262 880 264 883 q 258 875 260 876 q 251 848 258 860 q 247 823 244 836 q 239 804 241 808 q 239 792 237 799 q 230 777 232 785 q 221 761 228 768 q 218 743 218 754 q 210 728 217 732 q 207 717 209 719 q 202 712 205 715 q 197 698 202 703 q 194 684 193 693 q 179 654 179 671 q 168 640 170 650 q 159 623 165 629 q 152 607 155 609 q 152 600 149 605 q 140 585 145 589 q 136 572 134 582 q 130 565 130 571 q 126 556 129 559 q 138 550 129 548 q 153 552 146 552 q 169 552 165 551 q 175 553 172 553 q 199 557 191 553 q 214 552 206 560 q 234 552 218 551 q 254 555 250 553 q 284 551 267 547 q 317 548 301 555 q 334 551 332 553 q 338 548 335 548 q 357 552 345 551 q 372 556 370 553 q 378 555 374 553 q 385 556 382 556 q 401 555 397 553 q 407 556 404 556 q 422 557 420 555 q 427 560 423 560 q 438 558 431 559 q 449 555 445 557 q 465 559 456 559 q 481 563 473 560 q 479 583 480 572 q 484 601 479 593 q 484 618 481 613 q 486 627 487 623 q 484 633 484 631 q 486 654 486 644 q 484 674 487 663 q 481 685 483 680 q 480 696 480 690 q 481 714 480 703 q 486 730 483 726 q 483 752 479 741 q 488 774 487 764 q 486 798 486 789 q 488 812 487 806 q 486 845 491 827 q 481 873 481 863 q 481 903 483 894 q 477 920 480 913 q 473 932 472 930 q 471 936 473 935 q 474 953 473 948 q 486 968 475 958 q 509 968 502 972 q 524 966 517 964 q 533 958 529 963 q 543 949 537 954 q 546 943 544 947 q 552 936 548 939 q 553 926 551 929 q 555 917 555 922 q 555 906 556 909 q 553 901 553 903 q 553 893 552 898 q 559 876 555 888 q 556 856 555 860 q 559 848 557 852 q 558 837 559 842 q 559 826 557 831 q 562 817 560 818 q 562 808 563 815 q 563 787 560 798 q 559 766 566 776 q 561 743 560 749 q 562 730 562 736 q 558 705 562 719 q 563 680 555 690 q 564 640 564 656 q 567 608 564 624 q 562 591 562 598 q 562 572 562 583 q 570 572 566 570 q 578 567 575 574 q 587 568 582 570 q 598 567 593 566 q 611 571 610 572 q 614 567 612 570 q 642 559 627 564 q 662 553 656 553 q 666 536 662 541 q 666 526 670 530 q 663 511 667 515 q 659 500 658 507 q 651 495 654 499 q 643 488 648 491 q 620 483 633 488 q 599 485 616 484 q 582 479 582 486 q 563 473 560 477 q 567 461 566 468 q 566 452 567 456 q 567 442 564 448 q 561 423 560 435 q 563 404 562 411 q 567 391 566 395 q 566 383 567 388 q 568 376 564 378 q 566 361 562 370 q 563 346 570 351 q 568 313 570 335 q 567 277 566 290 q 567 258 564 262 q 567 251 570 254 q 569 218 567 232 q 570 190 571 205 q 570 171 568 175 q 572 163 572 167 q 578 148 574 146 q 586 148 583 149 q 603 146 600 145 q 610 148 606 148 q 616 147 613 149 q 624 148 620 145 q 640 151 627 151 q 656 149 652 152 q 669 142 663 146 q 682 137 674 138 q 686 129 684 133 q 690 121 688 125 z "},"5":{"ha":784,"x_min":83,"x_max":742,"o":"m 742 350 q 738 317 742 330 q 738 293 734 304 q 726 264 730 278 q 726 250 722 251 q 720 238 724 247 q 713 231 716 229 q 712 219 716 224 q 705 210 708 214 q 701 198 704 199 q 696 194 699 197 q 695 182 697 186 q 691 176 693 178 q 687 171 689 174 q 686 164 685 168 q 675 156 680 161 q 669 145 671 151 q 658 139 662 142 q 647 133 654 136 q 641 123 644 127 q 636 113 637 119 q 629 109 633 110 q 625 103 625 109 q 611 97 614 103 q 601 85 608 91 q 576 79 586 85 q 556 66 567 73 q 543 65 549 69 q 526 62 536 61 q 511 56 514 58 q 503 53 507 53 q 463 34 483 39 q 439 37 454 38 q 415 34 423 37 l 400 31 q 370 33 380 34 q 351 34 361 31 q 332 37 338 38 q 320 37 327 35 q 307 41 313 39 q 294 41 301 43 q 273 45 278 42 q 263 50 269 49 q 250 52 256 52 q 239 61 243 52 q 222 68 229 62 q 205 75 216 73 q 191 83 194 83 q 183 84 187 84 q 180 93 184 91 q 176 102 176 95 q 153 119 159 114 q 140 130 148 123 q 126 167 129 153 q 113 183 111 180 q 115 189 115 186 q 113 202 111 198 q 109 209 115 206 q 111 218 111 213 q 111 227 110 222 q 122 241 115 235 q 132 242 127 243 q 142 244 137 241 q 154 239 149 243 q 165 236 159 236 q 181 224 178 229 q 191 216 184 218 q 193 207 190 206 q 198 202 195 208 q 201 192 197 195 q 203 182 206 189 q 215 173 212 175 q 218 165 218 171 q 224 160 222 163 q 229 155 227 157 q 241 146 235 151 q 252 138 247 142 q 268 129 262 129 q 278 129 274 129 q 290 122 281 122 q 304 115 300 122 q 321 115 313 117 q 339 110 330 113 q 355 111 353 113 q 361 110 358 110 q 373 111 368 109 q 385 113 378 113 q 395 111 391 113 q 403 111 399 110 q 415 115 410 111 q 427 114 420 118 q 439 116 434 114 q 450 115 444 118 q 458 120 456 118 q 468 121 460 122 l 480 129 q 499 134 495 133 q 509 138 503 136 q 519 140 514 140 q 530 144 525 141 q 541 151 537 146 q 555 156 545 156 q 561 168 555 163 q 574 174 567 172 q 593 195 585 184 q 608 208 602 205 q 612 216 609 209 q 613 224 614 222 q 619 227 617 224 q 624 232 621 229 q 635 258 632 248 q 644 275 639 267 q 644 289 642 282 q 647 302 647 297 q 652 311 647 307 q 653 323 654 316 q 655 335 652 331 q 653 349 651 340 q 655 365 655 358 q 652 397 650 385 q 644 423 654 410 q 640 446 644 442 q 636 457 636 449 q 624 471 631 465 q 613 487 617 477 q 603 492 606 488 q 595 502 600 496 q 583 508 583 506 q 578 509 582 510 q 555 526 571 524 q 525 538 538 529 q 514 540 517 538 q 508 542 511 541 q 500 544 505 543 q 486 545 495 545 q 477 550 483 549 q 471 556 472 551 q 457 555 464 553 q 445 553 450 557 q 407 556 430 557 q 372 548 384 555 q 355 549 357 548 q 351 549 354 549 q 325 543 334 543 q 311 538 316 543 q 288 526 293 530 q 277 522 283 522 q 270 517 273 519 q 264 511 267 514 q 247 505 254 511 q 229 498 240 499 q 222 490 227 494 q 213 483 217 487 q 197 475 209 481 q 183 465 184 468 q 161 459 172 468 q 138 452 151 450 q 123 458 126 458 q 117 458 119 457 q 107 465 107 463 q 106 468 107 467 q 96 493 96 484 q 91 509 96 502 q 93 524 95 522 q 90 529 91 526 q 88 544 87 540 q 90 552 90 548 q 89 569 90 557 q 88 585 88 581 q 91 597 92 595 q 90 602 90 600 q 94 626 95 617 q 91 642 92 635 q 92 655 91 648 q 94 669 94 662 q 94 683 92 681 q 96 688 95 685 q 94 715 100 701 q 92 738 95 734 q 90 750 88 742 q 94 764 91 755 q 92 774 94 769 q 90 784 90 779 q 92 802 90 793 q 94 819 94 811 l 90 840 q 89 849 88 846 q 87 859 90 852 q 85 878 84 868 q 83 897 85 887 q 92 911 88 903 q 103 924 95 920 q 122 922 110 922 q 138 932 134 922 q 158 937 149 930 q 176 937 167 944 q 199 940 187 944 q 224 936 212 936 q 234 937 229 936 q 244 939 239 939 q 256 939 254 937 q 260 940 258 940 q 275 939 267 941 q 290 939 283 937 q 297 941 293 939 q 304 945 301 944 q 321 941 311 943 q 338 939 331 939 q 345 941 340 939 q 351 944 349 943 q 368 945 366 944 q 372 946 370 945 q 377 947 374 947 q 387 947 380 947 q 398 949 393 947 q 408 949 403 951 q 425 949 422 947 q 450 947 435 947 q 476 949 464 947 q 526 951 503 947 q 566 959 548 956 q 582 959 578 958 q 591 959 586 960 q 608 960 597 963 q 621 954 618 956 q 636 942 631 951 q 647 935 642 933 q 651 894 652 914 q 652 877 652 882 q 652 867 652 872 q 654 852 652 860 q 654 840 655 841 q 654 836 654 838 q 656 825 654 834 q 661 815 659 817 q 661 800 659 802 q 662 796 662 799 q 662 785 663 789 q 667 776 661 780 q 666 762 665 769 q 665 747 667 754 q 660 739 663 742 q 654 728 656 735 q 623 718 633 718 q 601 722 612 718 q 597 730 600 726 q 593 738 595 734 q 583 750 585 741 q 575 764 582 760 q 578 780 578 776 q 578 788 579 784 q 576 809 578 799 q 574 829 574 819 q 571 854 574 848 q 567 867 568 860 q 541 869 555 873 q 514 871 526 865 q 485 868 494 869 q 469 867 476 867 q 454 865 460 865 q 439 866 448 864 q 425 867 431 868 q 416 863 420 865 q 410 861 412 861 q 402 864 406 861 q 395 868 399 867 q 370 867 384 867 q 349 861 357 868 q 334 861 334 863 q 324 859 334 860 q 309 861 312 863 q 302 860 305 860 q 282 860 292 859 q 262 861 273 861 q 244 859 254 861 q 228 861 235 857 q 212 859 221 857 q 194 860 202 860 q 182 857 184 859 q 174 857 179 856 q 170 848 171 853 q 165 840 168 844 q 167 831 165 836 q 170 825 168 827 q 170 801 174 814 q 172 776 165 788 q 171 758 170 766 q 174 739 172 749 q 176 719 175 728 q 180 707 178 709 q 176 696 175 704 q 174 686 178 689 q 175 678 175 682 q 178 671 175 674 q 176 662 176 666 q 180 652 175 658 q 178 633 175 642 l 174 594 q 175 566 174 581 q 193 568 187 563 q 208 579 198 574 q 215 582 210 582 q 221 587 220 582 q 233 590 229 585 q 244 598 237 595 q 270 604 262 604 q 285 613 278 605 q 308 623 296 618 q 321 627 320 627 q 332 627 327 628 q 342 627 336 625 q 359 633 353 629 q 376 628 365 637 q 383 632 380 631 q 391 636 387 633 q 406 638 391 637 q 420 637 420 639 q 439 640 434 640 q 448 635 445 640 q 469 634 464 632 q 480 636 475 636 q 488 634 483 636 q 495 635 492 632 q 501 631 496 631 q 509 628 506 631 q 519 623 519 624 q 522 620 519 621 q 534 618 528 617 q 545 613 541 620 q 570 606 563 612 q 585 601 576 600 q 601 592 597 594 q 609 591 605 590 q 624 576 621 581 q 631 570 627 571 q 642 566 643 568 q 644 562 642 563 q 657 554 648 559 q 671 547 666 549 q 682 530 678 537 q 694 519 686 522 q 701 504 697 513 q 712 490 704 495 q 714 478 711 483 q 716 467 718 473 q 722 460 719 463 q 728 454 726 457 q 728 448 727 452 q 726 441 728 444 q 732 431 728 434 q 736 418 735 427 q 738 399 741 400 q 739 372 738 381 q 738 354 741 362 l 742 350 z "},"6":{"ha":810,"x_min":14,"x_max":783,"o":"m 783 320 q 779 306 780 307 q 777 302 777 305 q 779 294 777 298 q 779 285 780 289 q 775 269 777 275 q 776 252 773 263 q 771 243 770 247 q 769 237 772 240 q 770 222 769 227 q 764 210 764 214 q 762 203 765 206 q 759 196 761 199 q 757 189 757 193 q 742 174 743 183 l 735 161 q 721 143 731 153 q 705 133 711 133 q 699 123 703 126 q 692 113 694 119 q 674 99 681 111 q 664 94 667 98 q 654 87 661 90 q 641 73 647 80 q 625 61 635 65 q 618 61 623 61 q 612 64 614 61 q 595 53 595 60 q 582 49 589 56 q 570 47 575 50 q 559 41 564 45 q 547 35 553 38 q 536 35 541 33 q 526 32 532 33 q 517 26 521 31 q 502 26 507 26 q 482 24 491 27 q 465 20 473 20 q 452 20 458 19 q 438 18 445 20 q 408 19 418 19 q 387 16 397 19 q 366 14 372 12 q 354 12 361 15 q 347 16 351 15 q 342 20 343 16 q 317 20 331 14 q 290 30 302 27 q 282 28 286 30 q 274 30 278 27 q 256 37 262 34 q 244 41 251 41 q 233 47 236 45 q 225 49 229 49 q 216 55 222 52 q 206 57 210 58 q 193 68 203 60 q 179 76 183 76 q 172 85 176 81 q 165 92 168 88 q 152 98 152 96 q 149 103 152 100 q 135 113 138 109 q 130 121 132 118 q 126 130 125 129 q 125 134 127 132 q 108 160 113 151 q 96 176 103 170 q 89 193 91 190 q 84 201 87 197 q 71 221 73 210 q 64 243 69 232 q 58 257 54 252 q 52 267 62 262 q 49 277 50 275 q 45 285 47 278 q 43 292 42 288 q 39 300 45 297 q 30 334 41 316 q 26 355 31 345 q 25 373 26 362 q 15 387 24 384 q 18 412 22 396 q 14 438 14 427 q 16 448 14 444 q 19 460 19 453 q 18 490 18 479 q 19 513 18 500 q 15 528 16 525 q 14 534 14 532 q 17 544 18 543 q 18 548 16 545 q 20 553 19 552 q 21 554 20 553 q 22 557 22 555 q 22 566 22 559 q 24 573 22 568 q 28 581 27 578 q 32 604 28 594 q 39 627 35 614 q 47 650 43 639 q 54 663 52 661 q 56 677 53 665 q 61 692 60 689 l 69 704 q 73 715 73 711 q 75 722 73 719 q 81 727 80 723 q 87 734 83 731 q 90 747 88 745 q 96 751 92 750 q 98 760 95 755 q 99 769 100 764 q 119 798 111 788 q 130 818 127 807 q 138 823 136 819 q 142 831 140 827 q 160 840 153 829 q 174 856 167 852 q 180 867 178 867 q 183 875 183 868 q 203 882 195 876 q 210 890 210 887 q 219 892 217 888 q 227 895 221 895 l 243 905 q 248 910 244 909 q 254 916 251 911 q 261 916 258 917 q 267 920 264 916 q 281 922 274 918 q 294 930 288 925 q 308 939 301 935 q 321 941 315 943 q 330 946 326 944 q 336 954 334 948 q 352 955 345 954 q 366 956 359 956 q 378 962 376 963 q 382 963 380 962 q 391 968 387 966 q 397 972 395 970 q 417 973 408 970 q 437 978 426 977 q 450 977 444 979 q 463 977 456 975 q 484 978 469 977 q 506 978 499 979 q 513 975 510 977 q 521 971 517 972 q 528 970 524 970 q 534 970 532 971 q 551 964 543 967 q 567 959 559 962 q 570 951 566 952 q 578 948 574 949 q 576 927 581 935 q 570 907 572 920 l 548 903 l 534 910 q 526 911 529 911 q 517 916 524 911 q 501 914 507 913 q 487 918 495 916 q 466 916 476 914 q 445 917 456 918 q 438 913 442 916 q 431 909 434 910 q 417 908 425 907 q 403 903 410 909 q 380 901 385 902 q 369 898 374 901 q 361 892 365 895 q 354 887 358 890 q 338 883 346 884 q 326 879 331 882 q 304 867 311 869 q 290 861 297 864 q 285 857 288 860 q 279 850 282 853 q 262 845 267 850 q 247 837 256 840 q 239 823 244 831 q 227 815 232 821 q 214 807 221 810 q 210 801 212 804 q 202 798 208 798 q 195 787 199 791 q 189 777 191 784 q 173 761 176 773 q 161 742 170 749 q 155 724 157 727 q 149 719 152 722 q 143 703 146 711 q 138 692 140 694 q 132 684 133 685 q 127 678 130 682 q 126 671 126 675 q 125 665 126 667 l 110 632 q 108 610 110 613 q 109 600 106 606 q 96 569 100 590 q 91 536 91 548 q 91 522 92 522 q 90 518 90 521 q 90 502 88 510 q 91 486 92 494 q 89 473 88 473 q 90 472 90 473 q 88 464 87 468 q 91 457 90 460 q 87 446 88 454 q 90 435 85 438 q 95 458 99 448 q 102 467 99 464 q 104 477 104 471 q 113 487 111 480 q 118 499 114 494 q 125 514 122 511 q 130 519 127 517 q 131 530 127 528 q 134 540 134 533 q 145 553 138 544 q 153 564 152 562 q 160 566 157 564 q 167 568 163 568 q 176 577 168 568 q 187 587 184 586 q 198 597 195 595 q 203 598 201 600 q 223 611 218 605 q 236 620 228 617 q 250 630 244 627 q 263 637 256 633 q 276 646 270 642 q 283 652 282 650 q 313 663 296 658 q 336 667 330 667 q 343 671 339 669 q 350 675 347 674 l 374 674 l 397 674 q 423 681 416 681 q 437 684 430 681 q 450 681 448 680 q 454 684 452 682 q 471 686 465 681 q 487 686 476 681 q 496 682 490 682 q 506 684 502 681 q 526 677 515 680 q 543 666 536 674 q 562 662 553 666 q 579 658 570 658 q 589 651 587 650 q 594 651 591 652 q 604 646 602 644 q 608 647 605 648 q 617 640 610 640 q 627 633 624 639 q 640 626 637 624 q 646 621 643 628 q 661 613 658 617 q 666 606 663 609 q 674 602 673 604 q 680 595 675 600 q 694 585 689 587 q 705 572 700 583 q 716 564 713 567 q 722 556 719 562 q 734 538 730 549 q 741 529 738 534 q 750 519 745 524 q 751 507 750 513 q 757 495 751 500 q 764 472 755 490 q 776 449 773 454 q 780 414 774 431 q 781 385 783 404 q 783 353 780 366 q 779 331 781 338 q 783 320 777 324 m 704 354 q 702 374 701 368 q 704 388 703 381 q 699 419 701 411 q 689 438 696 427 q 689 452 692 445 q 689 461 686 460 q 682 479 685 473 q 671 491 680 484 q 666 507 673 502 q 658 522 659 511 q 648 532 651 525 q 639 545 644 538 l 623 552 q 616 554 620 553 q 612 562 612 555 q 601 572 604 562 q 591 579 594 574 q 583 587 589 585 q 559 590 572 587 q 538 601 544 597 q 522 604 532 605 q 509 611 515 608 q 496 616 503 614 l 480 617 q 462 616 465 614 q 456 616 458 617 q 441 612 442 610 q 438 613 441 613 q 416 612 415 612 q 403 608 416 612 q 391 610 399 610 q 376 607 384 609 q 362 604 369 605 q 354 604 355 602 q 342 595 345 595 q 331 591 334 594 q 327 589 328 589 q 301 576 315 582 q 286 571 288 571 q 266 551 274 559 q 248 541 251 544 q 243 534 245 537 q 235 530 237 533 q 228 525 232 526 q 220 507 225 518 q 211 500 216 500 q 205 496 206 499 q 194 481 197 483 q 189 476 191 479 q 184 458 183 463 q 183 452 184 454 q 172 435 176 444 q 161 416 167 427 q 152 399 155 407 q 144 382 149 391 q 134 355 137 370 q 130 336 130 339 q 130 323 129 330 q 132 309 132 316 q 127 291 130 300 q 127 273 125 282 q 140 258 134 266 q 146 243 142 247 q 149 232 149 239 q 170 195 167 212 q 176 183 176 189 q 183 177 182 182 q 191 171 184 172 q 204 151 203 160 q 220 140 205 142 q 235 125 231 126 q 247 121 240 123 q 282 99 266 110 q 292 98 288 98 q 301 95 297 98 q 321 85 315 91 q 335 84 328 80 l 400 84 q 411 83 406 84 q 422 83 416 83 q 429 84 426 83 q 437 85 433 85 q 471 91 458 84 q 498 95 483 98 q 507 99 499 96 q 526 105 515 102 q 545 111 536 109 q 557 114 553 113 q 568 120 563 117 q 579 122 572 123 q 583 129 579 125 q 593 136 587 133 q 604 143 598 140 q 612 146 609 146 q 617 153 614 152 q 625 156 620 153 q 637 170 635 165 q 647 176 640 174 q 661 193 654 184 q 671 203 669 201 q 677 220 674 214 q 684 229 681 227 q 690 239 690 237 q 690 244 689 241 q 696 288 697 266 q 701 301 701 298 q 700 313 700 304 q 700 329 701 326 q 699 336 699 332 q 704 354 699 343 z "},"7":{"ha":749,"x_min":28,"x_max":722,"o":"m 720 913 q 711 886 715 901 q 708 871 708 872 q 699 859 701 861 q 699 853 697 856 q 688 837 690 842 q 684 825 685 831 l 674 806 q 665 790 667 799 q 659 774 663 781 q 656 758 661 764 q 655 746 652 751 q 646 732 648 734 q 642 727 643 730 q 636 711 636 711 q 631 701 635 708 q 625 694 628 694 q 625 686 628 688 q 623 677 621 684 q 618 673 621 677 q 613 665 616 670 q 608 655 610 659 q 605 650 605 651 q 597 633 597 636 q 597 625 598 629 q 585 608 589 618 q 572 590 581 597 q 567 572 570 578 q 564 563 564 566 q 560 557 560 562 q 555 552 560 552 q 555 543 556 547 q 553 533 553 538 q 545 524 547 528 q 543 518 543 521 q 533 507 537 515 q 524 496 529 499 q 514 479 521 481 q 509 465 511 472 q 500 454 507 457 q 492 429 498 437 q 483 414 486 422 q 479 401 480 407 q 473 391 477 396 q 467 368 465 374 q 461 364 463 368 q 456 358 460 361 q 446 339 450 342 q 441 328 441 336 q 423 298 429 308 q 415 283 418 292 q 410 271 412 275 q 397 254 401 259 q 391 241 392 250 q 373 214 385 222 q 374 207 377 212 q 372 198 372 202 q 368 192 370 194 q 362 187 365 190 q 358 176 359 176 q 355 174 357 176 q 353 165 353 170 q 350 157 354 160 q 347 141 353 148 q 345 126 342 134 q 337 114 340 119 q 334 102 334 109 q 323 87 326 96 q 315 71 321 77 q 313 54 316 57 q 308 49 309 50 q 296 35 301 42 q 285 19 290 27 q 258 20 270 18 q 233 27 247 23 q 222 39 229 37 q 220 50 222 43 q 222 60 218 56 q 239 104 235 84 q 246 119 244 114 q 248 129 248 123 q 253 135 248 133 q 258 141 258 137 q 262 157 262 153 q 269 176 263 175 q 277 182 274 178 q 278 194 275 190 q 286 202 281 198 q 300 241 294 225 q 317 269 307 256 q 319 278 317 277 q 324 281 321 279 q 326 288 326 285 q 327 294 326 292 q 336 307 331 296 q 342 323 342 319 q 354 338 346 327 q 361 355 361 350 q 368 361 362 359 q 370 368 366 366 q 373 374 374 369 q 387 391 384 384 q 393 406 389 397 q 402 420 397 414 q 410 429 407 427 q 414 444 411 438 q 419 456 416 449 q 425 469 422 463 q 427 477 427 475 q 432 488 433 486 q 433 492 431 491 q 439 513 439 507 q 449 526 448 524 q 450 530 450 528 q 462 545 454 532 q 475 563 469 559 l 480 576 q 488 585 483 582 q 494 593 492 587 q 496 610 495 608 q 500 613 496 613 q 503 622 499 620 q 509 628 506 624 q 513 642 513 639 q 517 648 514 646 q 525 659 524 656 q 526 663 526 662 q 526 667 526 665 q 529 677 526 670 q 534 684 534 681 q 537 693 534 688 q 551 709 547 704 q 554 726 549 720 q 560 741 559 731 q 572 758 571 747 q 579 773 574 769 l 587 792 q 589 810 589 799 q 598 821 595 815 q 604 834 601 827 q 606 844 605 841 q 612 850 608 848 q 616 869 613 868 q 618 878 620 871 q 604 881 612 883 q 589 879 595 879 q 566 878 572 880 q 553 876 560 876 q 540 876 541 878 q 536 875 538 875 q 528 875 532 873 q 519 876 524 876 q 513 874 517 876 q 506 872 509 872 q 492 876 500 873 q 475 877 481 878 q 460 876 469 876 q 443 878 449 876 q 423 878 437 880 q 412 876 416 876 q 401 879 407 875 q 390 876 396 875 q 377 878 384 878 q 363 876 370 878 q 347 875 355 875 q 333 876 340 875 q 319 876 326 876 q 307 876 308 875 q 305 878 307 878 q 299 878 305 878 q 286 877 293 878 q 273 876 279 876 q 266 876 267 876 q 243 877 250 879 q 232 879 237 875 q 221 876 227 876 q 212 871 216 875 q 180 871 195 875 q 155 868 160 872 q 144 868 149 869 q 134 867 140 867 q 125 844 121 857 q 133 822 130 831 q 131 811 130 817 q 129 800 132 806 q 136 780 133 785 q 141 770 138 774 q 138 763 137 768 q 136 755 138 758 q 137 746 138 749 q 136 736 136 743 q 108 719 125 727 q 76 713 91 711 q 69 725 73 720 q 57 730 65 730 l 49 746 q 52 760 47 753 q 49 773 56 766 q 50 781 52 776 q 52 788 49 785 q 47 805 49 796 q 49 823 45 814 q 45 840 46 833 q 42 854 43 846 q 40 870 41 863 q 39 880 39 878 q 33 890 37 886 q 28 897 30 894 q 35 918 34 913 q 38 929 37 922 q 58 931 49 930 q 73 936 66 932 q 91 936 88 933 q 100 937 94 939 q 107 937 103 937 q 114 937 111 937 q 134 940 127 941 q 142 939 140 939 q 159 943 157 944 q 164 941 161 941 q 184 945 178 945 q 199 944 191 944 q 215 945 208 944 q 225 945 222 945 q 254 950 241 948 q 283 948 266 952 q 304 950 292 955 q 327 945 317 945 q 333 948 330 945 q 340 947 336 951 q 352 947 347 948 q 363 947 357 947 q 377 949 370 947 q 391 947 384 951 q 415 949 403 954 q 438 952 427 945 q 446 951 438 952 q 463 950 454 951 q 480 949 472 949 q 490 949 488 949 q 497 953 494 951 q 503 958 500 955 q 531 958 515 955 q 555 954 547 960 q 610 955 585 963 q 621 957 614 958 q 633 958 628 956 q 650 962 648 964 q 656 959 652 960 q 680 957 673 958 q 689 949 686 956 q 708 949 699 954 q 710 941 708 945 q 716 937 712 937 q 720 925 718 930 q 720 913 722 920 z "},"8":{"ha":780,"x_min":20,"x_max":760,"o":"m 760 286 q 752 267 753 279 q 751 244 751 254 q 745 235 747 237 q 746 231 743 232 q 742 219 741 221 q 742 214 743 217 q 736 203 738 203 q 734 201 735 203 l 728 187 q 723 172 726 174 q 723 165 720 170 q 717 161 719 164 q 711 157 715 159 q 707 144 708 146 q 701 141 705 141 q 699 128 703 133 q 693 115 694 123 q 687 113 690 114 q 682 107 684 113 q 670 103 673 106 q 665 98 667 100 q 652 96 654 98 q 648 92 651 94 q 628 81 633 83 q 618 76 623 79 q 602 68 605 71 q 594 62 600 65 q 562 56 576 61 q 532 46 547 52 q 515 45 518 47 q 510 42 513 43 q 499 41 506 42 q 490 37 492 41 q 481 39 483 38 q 477 39 479 39 q 474 39 476 39 q 467 37 472 38 q 449 39 454 38 q 438 35 444 39 q 402 35 416 35 q 378 27 388 34 q 347 30 357 27 q 327 34 338 33 q 315 33 319 33 q 307 31 311 34 q 282 36 296 35 q 258 39 269 37 q 237 45 243 46 q 224 43 231 43 q 205 48 209 45 q 194 49 201 52 q 182 54 186 56 q 178 58 178 53 q 160 64 164 60 q 149 64 153 66 q 137 61 144 62 q 127 73 133 68 q 114 76 122 79 q 108 80 111 79 q 102 87 104 81 q 85 101 91 94 q 76 111 79 109 q 68 117 69 115 q 65 121 66 118 q 56 140 60 132 q 45 151 52 148 q 39 168 38 165 q 41 172 41 170 q 37 180 41 176 q 33 191 34 184 q 30 197 33 194 q 24 202 27 199 q 26 213 26 208 q 27 224 26 218 q 21 241 20 235 q 24 253 22 248 q 28 263 26 258 q 28 277 31 269 q 32 283 30 278 q 36 293 34 288 q 39 304 38 298 q 38 311 39 309 q 43 324 39 313 q 50 335 47 335 q 54 353 47 343 q 62 365 61 362 q 66 373 66 370 q 66 378 65 376 q 75 389 69 381 q 86 404 80 396 q 98 418 92 412 q 109 425 104 425 q 118 439 107 435 q 133 454 129 444 q 145 463 144 460 q 149 469 146 467 q 171 486 165 472 q 171 501 180 495 q 155 511 161 507 q 146 517 148 517 q 142 518 145 517 q 132 527 136 521 q 121 533 129 533 q 112 548 118 543 q 99 559 106 553 q 92 575 98 570 q 81 589 87 581 q 78 617 79 609 q 75 633 77 625 q 69 654 71 648 q 68 666 68 659 q 71 675 69 670 q 72 685 72 680 q 69 710 72 696 q 76 731 66 724 q 79 743 75 738 q 85 754 84 747 q 92 774 92 770 q 92 781 91 779 q 98 790 99 788 q 99 793 98 792 q 106 803 104 799 q 111 808 109 807 q 115 821 114 818 q 119 823 115 825 q 135 841 132 837 q 144 848 138 845 q 155 863 148 856 q 164 878 161 869 q 178 885 168 879 q 186 894 187 891 q 208 909 201 897 q 218 912 209 909 q 235 920 227 916 q 252 930 244 925 q 262 936 260 935 q 272 938 264 936 q 288 942 279 940 q 302 946 296 944 q 312 949 309 948 q 337 954 330 954 q 349 962 345 954 q 363 962 361 964 q 368 966 365 960 q 392 972 380 971 q 418 972 404 972 q 442 972 431 972 q 454 971 453 971 q 467 972 463 974 q 479 974 472 971 q 491 968 483 967 q 506 971 499 968 q 511 969 509 968 q 518 963 513 970 q 526 962 522 962 q 534 962 530 963 q 545 955 543 955 q 549 952 548 955 q 567 945 560 951 q 581 930 574 939 q 611 918 595 925 q 633 909 627 910 q 647 898 640 899 q 652 888 650 894 q 659 880 654 883 q 668 865 666 873 q 677 852 670 856 q 680 842 677 845 q 681 831 682 838 q 690 817 686 821 q 694 801 692 803 q 693 792 696 799 q 700 774 697 779 q 707 764 703 769 q 705 755 704 761 q 709 746 707 749 q 707 732 707 739 q 709 719 707 726 q 706 706 705 709 q 701 700 707 703 q 703 686 701 693 q 700 674 704 678 q 699 654 703 658 q 693 646 694 650 q 694 637 692 642 q 690 632 696 633 q 693 618 693 624 q 686 608 693 616 q 677 601 680 601 q 666 582 669 589 q 656 571 663 575 q 656 564 658 567 q 655 556 654 560 q 648 551 651 553 q 640 547 644 549 q 631 533 633 534 q 627 529 629 532 q 617 519 617 522 q 614 514 617 517 q 627 495 610 502 q 640 489 639 491 q 644 486 642 487 q 661 476 656 480 q 671 469 665 472 q 689 452 675 456 q 695 435 696 437 q 694 433 694 434 q 703 421 697 426 q 711 410 708 416 l 720 399 q 726 393 724 396 q 732 389 728 391 q 734 378 731 382 q 742 368 738 374 q 742 356 741 359 q 745 349 743 353 q 745 339 745 343 q 750 332 746 335 q 750 323 747 328 q 753 313 753 319 q 755 296 753 302 q 760 286 757 290 m 627 750 q 618 761 617 757 q 618 768 618 765 q 614 777 616 774 q 614 785 613 779 q 610 800 610 793 q 603 817 608 806 q 597 834 598 829 q 582 847 589 841 q 570 861 575 853 q 536 878 549 868 q 499 886 524 887 q 494 891 496 888 q 490 897 492 894 q 471 898 476 901 q 460 895 465 895 q 448 895 450 897 q 442 895 445 894 q 423 901 431 899 q 404 897 415 903 q 373 892 391 901 q 350 887 355 883 q 340 882 346 882 q 328 880 335 883 q 315 873 321 878 q 300 867 308 868 q 283 864 286 864 q 275 863 279 864 q 264 855 271 857 q 251 850 258 853 q 239 836 248 845 q 224 819 229 827 q 209 809 213 812 q 202 800 205 806 q 191 793 193 796 q 189 785 190 789 q 171 768 176 776 q 159 753 165 760 q 157 738 159 745 q 155 723 155 731 q 149 708 148 716 q 144 693 149 700 q 146 682 145 688 q 149 671 146 677 q 144 662 145 665 q 144 658 144 659 q 146 654 145 656 q 151 646 148 651 q 152 635 152 637 q 155 631 152 633 q 160 616 153 623 q 167 600 167 609 q 176 589 176 597 q 186 583 182 586 q 194 572 191 579 q 219 556 212 563 q 239 548 227 549 q 243 543 239 544 q 247 537 247 541 q 263 530 258 537 q 277 528 271 532 q 294 524 283 524 q 319 517 313 519 q 331 515 324 515 q 343 517 336 515 q 354 514 350 519 q 368 519 355 517 q 384 521 381 521 q 393 519 388 521 q 403 519 397 518 q 415 522 410 519 q 427 528 420 525 q 434 527 430 525 q 442 528 438 529 q 448 531 445 529 q 453 536 450 533 q 488 539 473 536 q 510 549 503 543 q 524 555 518 552 q 532 562 529 559 q 547 566 541 566 q 560 579 548 568 q 575 591 572 590 q 587 608 583 605 q 593 617 590 610 q 599 621 595 620 q 604 627 602 623 q 608 641 606 640 q 610 644 610 642 q 619 668 617 659 q 620 692 621 677 q 625 720 627 705 q 627 750 624 735 m 677 302 q 671 315 670 313 q 673 327 673 316 q 667 338 670 335 q 665 347 663 340 q 656 362 656 351 q 624 411 637 381 q 616 413 621 412 q 613 419 610 414 q 596 429 602 423 q 578 435 590 434 q 567 442 568 444 q 555 441 566 441 q 547 442 551 441 q 540 445 544 444 q 522 448 525 446 q 515 450 518 450 q 494 451 500 449 q 480 453 487 453 q 435 450 461 454 q 388 445 408 446 q 369 446 373 446 q 362 445 365 445 q 323 450 343 450 q 292 449 302 450 q 276 449 277 448 q 273 450 275 450 q 245 437 259 446 q 224 423 231 427 q 214 418 217 423 q 203 415 212 414 q 189 403 197 407 q 178 388 180 399 q 168 380 175 388 q 161 370 161 373 q 151 359 153 361 q 149 353 148 357 q 142 349 145 351 q 137 346 140 347 q 136 339 140 340 q 134 332 133 338 q 129 328 132 330 q 127 320 126 326 q 121 302 122 307 q 123 293 121 297 q 117 283 119 288 q 109 275 114 278 q 102 259 109 269 q 102 247 103 252 q 100 235 100 241 q 102 217 104 221 q 102 209 100 213 q 118 182 110 195 q 129 161 126 168 q 144 151 142 159 q 158 147 156 152 q 163 140 160 142 q 172 138 168 141 q 179 133 175 136 q 204 127 193 132 q 220 123 216 122 q 248 113 236 113 q 264 111 259 114 q 276 109 274 107 q 282 111 278 111 q 315 101 301 102 q 350 106 330 100 q 360 103 353 102 q 370 107 368 104 q 387 106 380 103 q 403 110 393 109 q 410 109 406 110 q 418 107 414 107 q 433 111 425 109 q 449 107 442 114 q 466 114 463 111 q 473 118 469 117 q 488 118 490 115 q 498 115 486 121 q 514 121 503 121 q 534 125 529 121 q 545 130 540 129 q 557 132 553 133 q 568 140 562 132 q 576 143 574 140 q 585 145 578 146 q 607 157 597 155 q 620 161 617 159 q 625 168 624 164 q 629 175 627 172 q 643 191 639 189 q 648 198 647 193 q 650 220 652 213 l 659 240 q 667 254 665 247 q 675 267 669 262 q 678 285 677 277 q 677 302 680 293 z "},"9":{"ha":757,"x_min":0,"x_max":738,"o":"m 736 600 q 732 578 734 589 q 730 557 731 568 q 726 545 730 551 q 722 536 723 538 q 718 517 722 521 q 715 510 715 513 q 712 475 711 484 q 709 450 713 465 q 709 444 708 446 q 711 437 711 441 q 696 409 701 416 q 689 391 692 401 q 687 375 688 380 q 680 370 686 370 q 674 353 677 355 q 671 346 671 350 q 662 330 665 339 q 652 315 659 321 q 651 301 651 311 q 641 284 643 286 q 640 277 639 282 q 634 272 635 277 q 627 267 633 267 q 621 254 624 256 q 616 251 618 252 q 612 241 616 244 q 605 233 608 239 q 602 223 602 228 q 598 214 601 218 q 581 201 587 205 q 572 191 575 198 q 562 176 560 182 q 548 161 553 171 q 528 144 537 152 q 515 130 518 137 q 505 122 506 125 q 505 115 503 119 q 479 104 496 107 q 456 88 468 95 q 438 69 445 81 q 419 64 425 66 q 403 50 414 61 q 389 47 393 49 q 382 41 385 45 q 371 39 380 42 q 359 35 362 37 q 349 24 350 26 q 346 20 347 23 q 339 21 342 18 q 332 24 336 24 q 320 23 326 24 q 309 28 315 22 q 284 37 292 35 q 271 45 277 39 q 267 52 269 47 q 263 58 266 56 q 271 69 266 65 q 272 77 270 75 q 275 84 274 79 q 301 89 290 85 q 319 95 312 92 l 332 102 q 342 105 335 102 q 356 113 349 109 q 370 121 363 117 q 376 127 376 125 q 406 146 396 136 q 431 161 416 156 q 435 168 431 165 q 438 174 438 170 q 449 180 448 178 q 452 184 450 182 q 463 193 460 187 q 476 199 467 199 q 492 222 484 214 q 502 233 500 231 q 516 248 513 245 q 522 258 519 251 q 540 271 533 271 q 551 289 541 282 q 555 302 555 298 q 557 311 556 307 q 564 318 562 315 q 567 328 567 321 q 582 345 576 342 q 597 378 593 363 q 610 400 602 392 l 617 416 q 621 437 621 433 q 623 444 620 441 q 627 455 628 453 q 627 460 627 457 q 629 471 631 469 q 629 476 627 473 q 615 465 617 468 q 609 463 613 463 q 605 456 606 460 q 601 449 604 452 q 593 443 595 446 q 583 441 590 439 q 571 434 572 433 q 564 433 570 435 q 542 421 548 425 q 529 415 536 418 q 509 402 514 406 q 498 401 505 399 q 487 393 494 400 q 465 388 480 395 q 446 374 449 381 q 431 372 431 372 q 429 373 431 373 q 406 370 415 373 q 385 366 396 366 q 372 366 374 365 q 368 368 370 368 q 361 368 365 369 q 354 366 357 366 q 330 368 340 368 q 312 362 319 368 q 301 366 307 368 q 290 362 296 363 q 280 363 288 361 q 266 363 273 365 q 256 368 259 365 q 247 370 254 372 q 231 376 236 374 q 224 380 227 377 q 205 382 212 384 q 194 381 199 380 q 179 387 179 385 q 176 389 179 388 q 163 395 165 395 q 160 399 161 395 q 146 402 148 400 q 141 407 144 404 q 122 412 130 408 q 106 423 114 416 q 94 432 98 430 q 87 444 90 434 q 67 464 75 450 q 50 480 60 477 q 44 491 46 490 q 45 495 42 492 q 35 519 39 510 q 27 536 30 529 q 26 545 26 540 q 26 555 27 549 q 18 575 19 568 q 9 585 16 582 q 6 604 12 598 q 0 620 0 610 q 5 644 1 637 q 5 656 8 650 q 9 667 11 666 q 8 671 8 669 q 13 680 8 677 q 15 693 18 684 q 22 705 20 697 q 24 720 23 712 q 26 734 24 727 q 33 747 27 742 q 35 760 30 755 q 37 774 39 765 q 44 785 41 781 q 49 798 47 789 q 56 804 53 800 q 62 810 58 807 q 70 826 64 821 q 84 837 76 831 q 91 852 88 849 q 96 854 94 854 q 99 862 98 859 q 102 869 100 865 q 116 884 114 880 q 121 892 118 887 q 137 903 132 895 q 149 918 142 910 q 168 924 163 921 q 179 932 175 928 q 190 939 183 937 q 198 945 193 943 q 208 949 203 947 q 235 958 222 960 q 259 964 248 956 q 277 970 274 967 q 285 975 281 972 q 302 974 288 971 q 321 979 316 977 q 353 975 336 971 q 382 972 370 979 q 407 970 395 974 q 431 970 419 966 q 453 965 445 967 q 468 959 461 963 l 487 959 q 497 954 494 956 q 507 954 500 951 q 513 949 510 951 q 518 945 515 948 q 537 943 534 941 q 543 944 540 944 q 557 935 549 941 q 572 926 566 929 q 591 924 587 933 q 597 914 595 916 q 625 895 609 902 q 637 881 635 882 q 643 878 640 880 q 663 848 656 860 q 671 823 669 836 q 688 792 681 802 q 701 772 694 783 q 701 763 699 765 q 704 755 704 761 q 716 745 712 747 q 718 734 716 739 q 716 724 719 730 q 728 701 722 708 q 735 659 728 682 q 731 646 732 648 q 736 633 730 644 q 736 616 734 625 q 736 600 738 608 m 651 675 q 644 695 646 688 q 643 705 642 703 q 639 711 640 708 q 635 718 637 715 q 631 730 633 731 q 625 732 628 730 q 617 758 618 749 q 616 773 616 766 q 590 817 602 800 q 581 828 586 822 q 568 837 575 834 q 545 858 552 850 q 528 863 538 865 q 517 869 524 867 q 507 876 510 871 q 475 883 488 886 q 465 887 472 888 q 453 891 457 886 q 423 895 435 890 q 407 898 411 899 q 391 898 396 899 q 381 897 387 897 q 370 901 374 898 q 359 903 366 903 q 335 901 353 903 q 312 894 317 898 q 304 899 305 897 q 290 891 304 902 q 277 892 281 892 q 270 888 273 891 q 256 886 260 890 q 245 879 252 882 q 226 869 231 873 q 214 860 221 864 q 203 857 208 859 q 193 853 198 854 q 182 840 183 845 q 174 834 180 834 q 172 827 172 830 q 171 819 171 823 q 159 808 164 814 q 151 793 153 803 q 129 776 138 788 l 123 762 q 118 745 118 749 q 113 737 115 739 q 111 734 111 735 q 111 730 111 732 q 113 722 111 727 q 105 714 106 720 q 104 703 104 708 q 96 669 96 686 q 92 656 94 666 q 88 643 90 647 q 87 628 87 633 q 88 617 87 623 q 86 610 85 614 q 84 602 87 606 q 90 588 87 595 q 98 575 94 581 q 101 569 103 570 q 104 562 99 568 q 109 543 106 549 q 114 529 111 536 q 123 509 118 514 q 132 496 129 505 q 144 486 142 488 q 148 480 146 484 q 155 479 149 480 q 165 475 160 477 q 175 471 171 473 q 179 467 179 468 q 192 462 186 465 q 208 458 198 458 q 222 450 218 453 q 232 445 227 448 q 243 444 243 445 q 247 442 244 442 q 260 442 256 444 q 266 441 263 441 q 277 439 273 438 q 288 439 281 439 q 307 435 302 434 q 319 437 312 437 q 340 438 335 437 q 349 441 345 439 q 361 439 361 441 q 365 439 362 438 q 378 441 376 442 q 382 441 380 441 q 390 443 387 441 q 397 442 393 445 q 415 445 408 445 q 442 457 435 454 q 458 465 449 460 q 475 468 472 468 q 481 471 479 468 q 492 477 484 475 q 505 483 500 480 q 520 492 518 492 q 524 491 522 491 q 533 505 526 492 q 547 511 536 503 q 562 522 559 518 q 572 537 570 530 q 585 552 581 545 q 595 556 591 552 q 605 562 598 560 q 610 575 604 571 q 623 583 616 579 q 630 600 625 591 q 642 614 635 608 q 642 625 643 620 q 642 635 640 629 q 650 659 650 643 q 651 675 651 674 z "},"":{"ha":680,"x_min":27,"x_max":646,"o":"m 555 369 q 552 391 555 377 q 545 420 549 406 q 536 450 541 435 q 528 472 532 464 q 524 479 525 475 q 519 486 522 483 q 516 494 517 490 q 513 502 515 499 q 496 519 509 510 q 470 536 484 528 q 441 551 456 544 q 418 560 427 557 q 379 567 397 567 q 343 570 361 567 q 328 571 335 574 q 305 569 319 568 q 285 567 292 570 q 268 557 281 564 q 240 544 255 551 q 213 531 225 537 q 198 525 201 525 q 172 496 190 513 q 152 464 155 479 q 137 450 137 456 q 134 439 137 444 q 123 421 126 431 q 117 401 121 411 q 111 393 114 396 q 107 385 107 391 q 100 368 104 372 q 101 346 102 355 q 100 328 100 336 q 102 311 100 320 q 109 289 104 302 q 113 280 114 283 q 113 274 111 277 q 116 267 114 271 q 119 260 118 263 q 123 245 122 254 q 126 231 123 237 q 132 222 130 225 q 134 214 134 218 q 146 201 141 212 q 163 186 152 190 q 180 175 172 178 q 197 167 189 172 q 214 165 205 164 q 232 164 222 167 q 240 162 235 164 q 248 160 245 160 q 288 159 266 159 q 332 161 309 160 q 376 163 355 161 q 403 167 396 165 l 418 171 q 431 178 425 174 q 444 182 437 183 q 452 186 448 186 q 460 190 456 187 q 467 195 464 193 q 475 199 471 197 q 501 216 490 209 q 522 239 513 224 q 536 261 532 252 q 543 279 540 270 q 550 298 547 289 q 553 311 553 307 q 553 327 555 319 q 552 343 552 335 q 553 356 552 350 q 555 369 555 362 m 311 727 q 302 725 307 727 q 294 720 298 723 q 275 720 286 723 q 265 726 270 726 q 255 734 260 727 q 251 744 252 743 q 248 747 250 745 l 248 761 q 255 781 252 776 q 259 787 258 785 q 266 789 262 789 q 273 792 270 789 q 286 802 285 802 q 290 804 288 802 q 302 817 297 810 q 315 829 308 823 q 330 838 327 836 q 335 842 332 841 q 345 848 340 846 q 354 856 350 849 q 337 869 340 864 q 328 879 334 875 q 315 888 323 883 q 302 899 307 892 q 281 913 288 902 q 269 917 271 916 q 266 921 267 918 q 254 925 258 922 q 241 925 251 928 q 229 933 236 929 q 217 940 222 937 q 214 954 216 952 q 213 959 213 956 q 219 973 214 966 q 231 983 224 981 q 264 994 247 991 q 297 993 282 996 q 304 985 298 991 q 309 977 309 978 q 326 968 319 974 q 342 962 332 963 q 353 951 350 954 q 361 951 357 949 q 375 934 366 940 q 391 918 384 928 q 405 913 399 917 q 418 906 411 909 q 426 894 422 898 q 435 899 433 897 q 441 903 438 901 q 466 916 457 913 q 481 926 475 920 q 487 932 484 929 q 492 937 490 935 q 506 948 498 944 q 521 956 514 952 q 537 953 533 955 q 547 951 541 951 q 555 940 549 944 q 567 932 560 936 q 569 919 570 920 q 568 916 568 918 q 568 907 567 911 q 568 898 568 902 q 550 882 557 886 q 529 869 543 878 q 519 863 522 863 q 513 861 515 863 q 496 851 505 857 q 481 841 488 845 q 488 823 479 836 q 498 808 496 811 q 511 795 510 800 q 518 792 513 791 q 524 775 514 783 q 538 761 534 768 q 543 742 541 747 q 546 734 544 736 q 551 730 548 732 q 559 719 555 727 q 562 708 562 713 q 566 696 563 703 q 569 686 567 692 q 574 677 571 681 q 580 668 576 671 q 585 659 583 665 q 585 652 586 655 q 586 644 585 648 q 590 635 587 639 q 594 625 593 631 q 597 611 597 618 q 600 597 597 604 q 609 570 608 581 q 620 552 610 560 q 618 541 617 548 q 621 528 620 534 q 624 514 623 521 q 624 505 625 507 q 629 490 631 492 q 628 486 627 488 q 633 464 632 471 q 634 449 633 457 q 636 433 635 441 q 637 423 637 426 q 637 417 637 420 q 639 408 637 414 q 645 326 644 370 q 633 256 646 282 q 624 237 628 243 q 612 220 618 228 q 602 203 606 213 q 593 197 595 197 q 589 194 591 197 q 585 187 586 191 q 581 180 583 183 q 570 170 572 178 q 559 161 567 163 q 555 155 557 157 q 551 149 552 152 q 541 144 544 148 q 533 137 537 140 q 526 136 530 136 q 519 134 522 136 q 500 123 506 123 q 491 117 494 122 q 469 109 483 114 q 449 99 454 104 q 442 98 446 98 q 434 98 438 99 q 417 91 431 94 q 387 86 403 88 q 357 83 370 84 q 342 85 343 83 q 315 85 323 87 q 301 84 308 84 q 275 85 294 84 q 250 88 255 87 q 225 93 237 90 q 201 99 213 96 q 182 104 191 102 q 165 113 172 106 q 140 122 155 115 q 118 136 126 129 q 111 146 115 138 q 103 156 106 153 q 96 165 100 161 q 87 175 91 170 q 84 182 84 178 q 81 189 84 186 q 68 205 76 198 q 57 222 61 213 q 51 240 54 228 q 46 258 47 252 q 45 268 43 263 q 43 277 46 273 q 39 292 42 282 q 33 304 35 301 q 32 323 35 315 q 28 343 28 332 q 28 354 27 349 q 30 366 30 359 q 29 395 30 377 q 35 422 28 412 q 42 432 38 425 q 49 445 46 439 l 56 458 q 65 479 60 469 q 73 500 71 490 q 91 522 80 505 q 109 547 102 540 q 125 564 115 556 q 144 579 136 571 q 149 585 146 582 q 155 590 152 589 q 170 596 160 593 q 186 602 179 600 q 227 621 206 610 q 270 637 247 632 q 294 642 277 639 q 316 646 311 644 q 338 647 330 647 q 361 650 346 647 q 378 651 366 651 q 405 650 391 651 q 431 647 419 648 q 450 644 444 646 q 465 637 457 642 q 479 632 472 632 q 485 628 481 629 q 491 624 488 627 q 508 614 505 616 q 515 610 511 613 q 511 622 514 617 q 507 631 509 627 q 502 650 503 642 q 490 666 500 659 q 486 676 490 667 q 479 695 483 685 q 470 714 475 705 q 464 724 465 723 q 448 749 454 739 q 435 766 442 758 q 427 775 429 773 q 422 787 425 777 q 400 787 406 792 q 395 780 395 783 q 376 772 384 779 q 359 759 368 766 q 340 745 350 751 q 320 735 331 738 l 311 727 z "},"":{"ha":707,"x_min":-23,"x_max":659,"o":"m 37 414 q 20 408 31 414 q 11 411 15 410 q 1 411 7 412 q -8 418 -3 416 q -18 426 -14 419 q -23 439 -23 438 l -23 453 q -14 473 -16 468 q -8 479 -11 477 q -1 481 -5 481 q 5 481 3 480 q 20 491 18 491 q 24 492 22 491 q 37 503 31 496 q 50 515 43 510 q 66 522 64 519 q 72 526 69 525 q 83 530 79 529 q 92 538 88 532 q 109 541 98 538 q 109 551 109 547 q 113 560 110 555 q 111 568 110 564 q 110 578 113 572 q 114 585 113 578 q 117 602 115 593 q 118 619 118 610 q 118 631 118 628 q 116 642 118 637 q 117 654 114 647 q 115 661 117 658 q 113 667 113 665 q 113 699 114 684 q 113 718 113 715 q 111 739 109 732 q 114 753 113 746 q 112 766 111 762 q 115 772 113 769 q 117 793 114 783 q 121 815 119 804 q 121 832 119 829 q 122 838 122 836 q 122 849 121 848 q 123 853 123 850 q 122 865 123 856 q 118 878 121 875 q 120 886 123 880 q 117 897 117 892 q 98 899 102 901 q 92 895 95 897 q 73 894 80 898 q 56 886 66 890 q 47 888 50 887 q 37 888 43 890 q 22 901 23 898 q 18 907 20 905 q 6 918 5 917 q 8 922 7 920 q 1 934 1 926 q 1 948 0 941 q 16 957 12 952 q 34 962 19 962 q 40 964 37 962 q 46 968 43 967 q 62 971 60 968 q 79 972 75 972 q 89 973 81 970 q 99 978 96 977 q 121 977 110 979 q 141 981 132 974 q 154 979 148 977 q 167 982 160 982 q 180 981 174 982 q 193 981 186 979 q 202 984 198 982 q 212 987 206 986 q 220 986 216 987 q 228 987 224 985 q 245 986 241 990 q 258 983 250 982 q 264 979 259 979 q 270 974 269 979 q 277 972 277 977 q 283 970 277 967 q 294 958 285 962 q 294 947 293 951 q 298 936 296 943 q 294 927 296 932 q 290 920 293 922 q 278 913 285 914 q 266 905 271 911 q 258 906 262 907 q 248 902 254 905 q 234 903 241 905 q 220 907 227 902 q 212 903 214 905 q 202 902 209 901 q 203 886 205 895 q 205 869 201 876 q 203 850 202 863 q 202 833 205 838 q 199 812 197 823 q 195 795 202 802 q 197 787 195 791 q 197 780 198 784 q 195 767 197 772 q 194 753 193 762 q 197 743 195 746 q 197 734 198 741 q 196 724 195 730 q 197 710 197 718 q 199 696 198 703 q 199 690 199 690 q 199 669 199 671 q 198 664 198 666 q 199 659 198 662 q 202 650 201 656 q 202 633 199 642 q 204 603 205 614 q 199 583 203 591 q 213 589 206 586 q 227 595 220 591 q 237 605 233 598 q 253 614 244 612 q 269 621 262 617 q 285 616 281 618 q 294 613 289 613 q 302 602 297 606 q 312 591 307 597 q 313 579 315 581 q 312 576 312 578 q 311 568 311 572 q 309 559 311 563 q 290 545 298 548 q 269 534 282 541 q 257 528 260 528 q 251 528 254 529 q 234 518 243 524 q 217 510 225 513 q 199 505 203 507 q 191 498 195 502 q 192 479 191 488 q 191 460 193 471 q 189 450 190 456 q 193 442 189 445 q 190 420 187 429 q 190 407 193 411 q 193 385 195 391 q 191 374 191 380 q 193 358 191 368 q 195 343 194 349 q 195 331 193 338 q 197 319 198 324 q 195 307 194 315 q 199 297 197 300 q 197 283 198 296 q 197 254 197 270 q 197 225 197 239 q 199 208 198 212 q 203 182 203 190 q 203 165 202 174 q 207 156 205 160 q 208 145 209 152 q 204 127 202 133 q 203 117 206 122 q 216 111 206 110 q 228 110 225 113 q 244 113 239 111 q 251 111 250 114 l 283 119 q 299 119 296 118 q 307 121 302 121 q 321 120 313 121 q 335 121 328 119 q 354 123 350 125 q 361 122 358 122 q 368 123 365 122 q 374 123 372 123 q 399 123 387 125 q 422 127 411 121 q 446 130 434 123 q 454 129 450 130 q 463 127 458 127 q 481 127 477 129 q 490 126 486 126 q 509 127 505 129 q 517 127 513 126 q 525 129 521 127 q 533 130 529 130 q 545 128 544 130 q 557 130 545 126 q 562 143 563 142 q 560 146 562 144 q 561 153 560 149 q 562 160 562 156 q 562 168 562 161 q 562 182 562 175 q 561 197 562 190 q 559 205 560 203 q 562 229 562 221 q 564 243 563 236 q 563 266 564 254 q 568 288 562 278 q 569 310 566 298 q 566 330 572 321 q 568 357 570 346 q 566 373 567 368 q 568 385 570 377 q 568 397 567 392 q 581 414 579 411 q 585 418 583 416 q 591 420 587 419 q 604 422 594 422 q 614 421 608 425 q 628 419 621 418 q 637 412 632 415 q 647 401 643 408 l 646 387 q 650 366 651 372 q 651 353 650 359 q 652 345 651 349 q 654 338 654 340 q 651 317 650 321 q 652 308 652 312 q 650 296 651 301 q 654 285 648 290 q 650 273 651 278 q 647 260 648 267 q 648 245 647 254 q 646 231 650 236 q 648 217 647 224 q 646 205 648 210 q 652 190 647 197 q 656 165 650 176 q 656 155 656 164 q 657 136 656 146 q 659 116 658 125 q 659 106 659 107 q 648 79 648 96 q 635 65 642 72 q 623 50 629 58 q 610 49 612 50 q 608 47 609 47 q 579 50 587 45 q 567 45 574 43 q 555 49 560 47 q 542 49 548 50 q 530 52 536 47 q 521 50 528 50 q 507 48 514 49 q 492 47 499 47 q 483 47 484 47 q 471 50 472 50 q 468 49 471 49 q 441 49 450 50 q 422 47 431 47 q 404 48 414 47 q 387 41 393 49 q 372 43 380 43 q 357 47 363 43 q 345 44 350 46 q 334 42 340 42 q 312 40 320 43 q 300 41 304 37 q 292 39 296 41 q 283 42 288 38 q 267 37 275 39 q 251 34 259 35 q 243 35 247 34 q 237 35 240 35 q 226 34 231 35 q 216 33 221 33 q 198 34 206 33 q 182 34 190 35 l 168 31 q 149 34 159 31 q 130 31 138 37 q 121 35 127 34 q 113 33 115 35 q 98 30 100 31 q 92 27 95 28 q 76 26 84 26 q 60 24 68 27 l 34 19 q 25 25 28 22 q 16 27 22 28 q 3 43 12 38 q -7 60 -5 49 q -5 73 -8 66 q 0 85 -3 79 q 7 90 5 87 q 14 96 9 94 q 25 97 20 94 q 37 102 30 100 q 50 102 46 100 q 56 104 53 104 q 90 107 76 109 q 114 113 103 106 q 114 121 111 117 q 117 129 117 125 q 115 136 117 133 q 114 144 114 140 q 114 160 114 156 q 113 178 114 172 q 111 197 114 191 q 114 210 107 203 q 109 226 107 224 q 113 231 111 228 q 111 239 113 235 q 109 250 109 244 q 112 270 113 262 q 110 288 111 278 q 108 304 109 297 q 106 313 107 312 q 108 320 104 319 q 109 327 111 321 q 106 343 104 340 q 109 349 109 346 q 108 361 110 355 q 106 373 106 366 q 107 383 106 378 q 107 395 109 388 q 104 405 106 400 q 103 416 103 410 q 102 434 104 430 q 100 442 100 438 q 77 433 90 444 q 47 420 64 423 l 37 414 z "},"":{"ha":324,"x_min":4,"x_max":342,"o":"m 65 427 q 47 422 58 427 q 28 425 38 426 q 19 431 24 430 q 11 439 14 433 q 7 451 8 450 q 4 453 5 452 l 5 468 q 14 486 11 481 q 19 492 18 491 q 26 494 22 495 q 33 495 30 494 q 38 500 35 498 q 43 503 41 502 q 64 518 58 511 q 79 529 71 525 q 94 536 91 534 q 100 541 96 538 q 111 545 106 544 q 119 552 115 545 q 141 556 130 552 q 143 572 142 563 q 142 585 144 581 q 142 597 141 595 q 144 602 144 600 q 146 626 145 617 q 144 642 146 635 q 146 649 145 646 q 149 656 148 652 q 152 687 151 665 q 155 734 153 709 q 156 781 156 760 q 155 811 156 803 q 150 821 153 817 q 144 831 146 826 q 121 831 136 834 q 90 823 106 827 q 59 817 73 819 q 37 817 45 814 q 31 821 33 819 q 27 827 30 823 q 18 838 20 834 q 26 849 16 841 q 23 857 24 853 q 24 864 22 860 q 37 876 31 871 q 54 884 43 882 q 63 885 58 886 q 72 884 68 884 q 87 889 80 886 q 103 894 95 892 q 111 894 107 895 q 118 894 115 892 q 130 900 125 897 q 141 903 134 903 q 154 903 148 905 q 167 902 160 902 q 186 907 176 903 q 208 907 197 910 q 216 900 210 906 q 227 891 222 894 q 227 874 225 883 q 228 857 229 865 q 227 850 228 853 q 225 842 225 846 q 227 835 225 838 q 228 827 228 831 q 227 809 229 818 q 225 792 225 800 q 225 783 224 787 q 227 773 227 779 q 225 765 227 769 q 225 755 224 761 q 227 748 225 751 q 228 741 228 745 q 228 719 228 734 q 227 686 228 704 q 224 654 227 669 q 221 633 222 639 q 224 618 227 623 q 222 613 221 614 q 222 595 225 609 q 239 601 231 598 q 255 609 248 604 q 260 614 258 612 q 266 618 263 616 q 281 628 273 625 q 297 635 289 631 q 312 629 308 632 q 321 627 316 627 q 329 615 324 620 q 340 605 334 610 q 339 590 342 595 q 338 581 338 586 q 338 572 338 576 q 319 558 327 562 q 297 548 311 555 q 284 543 288 543 q 278 541 281 543 q 262 533 270 538 q 245 524 254 528 q 227 518 232 521 q 217 511 222 515 q 214 467 210 487 q 213 434 217 448 q 212 424 212 431 q 212 414 212 416 q 213 401 212 407 q 212 389 214 396 q 211 374 209 382 q 212 359 213 366 q 210 349 212 354 q 209 340 209 345 q 207 307 206 323 q 208 274 208 290 q 208 263 208 269 q 205 254 208 258 q 212 205 214 228 q 210 156 210 182 q 228 151 218 151 q 245 146 237 151 l 256 137 q 267 113 266 121 q 269 99 269 106 q 256 91 264 95 q 236 83 247 87 q 215 76 225 79 q 201 73 205 73 q 191 75 195 73 q 179 77 186 77 q 148 81 164 80 q 117 84 132 81 q 75 83 100 87 q 38 83 49 80 q 28 91 33 85 q 20 100 24 96 q 16 127 9 114 q 31 151 22 140 q 43 153 38 151 q 54 156 47 156 q 91 162 75 161 q 118 163 107 163 q 123 177 125 170 q 122 193 122 184 q 123 201 122 197 q 123 210 123 205 q 121 233 119 228 q 122 245 122 239 q 120 256 122 251 q 118 266 118 260 q 121 279 119 273 q 123 292 123 285 q 124 308 125 304 q 123 317 123 312 q 125 336 123 332 q 126 342 126 339 q 128 364 129 353 q 129 387 127 376 q 130 406 129 396 q 132 425 132 415 q 131 444 132 435 q 132 464 130 453 q 104 448 118 458 q 75 435 91 438 l 65 427 z "},"":{"ha":880,"x_min":12,"x_max":831,"o":"m 831 260 q 829 252 831 255 q 827 247 827 250 q 827 226 826 235 q 823 203 827 217 q 823 196 822 201 q 822 189 823 191 q 813 172 819 179 q 806 155 807 165 q 800 151 802 155 q 795 146 799 148 q 793 140 795 142 q 793 133 792 137 q 785 127 788 132 q 780 121 783 123 q 762 104 764 113 q 751 97 758 102 q 742 94 745 92 q 735 87 738 91 q 728 79 732 83 q 717 77 722 79 q 705 73 712 75 q 682 58 688 66 q 673 56 673 57 q 666 50 673 56 q 644 37 648 42 q 625 40 629 39 q 616 38 620 41 q 601 32 606 31 q 593 28 595 33 q 577 29 586 30 q 563 24 568 28 q 550 24 556 27 q 537 23 544 22 q 519 11 529 15 q 510 7 514 8 q 503 5 506 5 q 496 6 500 4 q 488 8 491 8 q 470 6 479 8 q 454 11 461 4 q 426 7 435 9 q 410 11 416 5 q 384 12 391 9 q 370 15 377 15 q 349 24 354 20 q 338 24 345 27 q 320 30 331 31 q 302 35 309 28 q 294 35 300 33 q 285 34 288 37 q 272 39 279 38 q 259 45 264 39 q 237 53 244 53 q 225 60 229 53 q 207 66 212 62 q 197 66 202 69 q 186 75 194 72 q 176 85 178 77 q 166 93 171 90 q 159 103 161 96 q 134 112 142 104 q 111 125 125 119 q 106 109 107 118 q 100 94 106 100 q 102 78 103 85 q 102 62 102 71 q 100 50 102 53 q 98 43 98 46 q 94 24 96 28 q 92 12 92 19 q 85 8 88 12 q 80 1 83 4 q 51 0 61 -5 q 30 8 41 5 q 15 24 27 15 q 14 39 12 31 q 15 53 16 46 q 20 64 18 62 q 22 69 22 66 q 20 83 19 81 q 20 88 20 85 q 20 104 20 96 q 24 119 19 113 q 24 132 23 126 q 30 142 24 138 q 30 161 27 153 q 34 176 33 168 l 38 193 q 43 211 41 201 q 46 229 45 221 q 47 245 45 241 q 45 251 49 248 q 50 272 50 259 q 42 293 49 285 q 47 309 43 305 q 46 320 50 313 q 56 329 49 327 q 72 331 64 331 q 88 330 80 331 q 103 332 96 330 q 132 307 121 323 q 132 294 130 294 q 133 290 133 293 q 132 269 129 277 q 127 244 132 256 q 121 220 123 232 q 137 204 130 210 q 146 198 144 198 q 160 183 152 189 q 176 174 168 178 q 182 165 180 165 q 187 163 184 164 q 205 151 201 155 q 218 146 210 146 q 238 128 224 132 q 262 114 252 125 q 281 111 279 114 q 285 107 282 109 q 300 104 293 104 q 315 96 308 103 q 321 95 317 96 q 328 96 326 94 q 345 92 339 94 q 361 90 350 90 q 383 83 373 84 q 396 84 393 81 q 410 79 403 79 q 424 78 416 79 q 438 77 431 77 q 446 76 445 76 q 469 80 457 83 q 491 80 480 77 q 512 87 506 83 q 525 88 518 92 q 532 92 529 90 q 537 96 534 95 q 547 99 543 99 q 555 99 551 99 q 563 100 559 99 q 575 107 567 102 q 606 110 590 107 q 632 123 621 113 q 638 123 635 121 q 646 125 642 126 q 653 131 648 129 q 662 136 658 133 q 685 157 678 145 q 698 161 694 156 q 705 172 701 167 q 712 179 709 179 q 718 182 715 179 q 728 197 720 191 q 741 212 736 203 q 740 220 738 216 q 742 228 742 224 q 741 234 742 231 q 741 241 739 237 q 744 258 741 248 q 741 273 747 267 q 740 297 746 281 q 726 316 734 313 q 707 348 719 331 q 688 368 694 365 q 682 377 685 376 q 677 381 680 378 q 672 389 675 387 q 666 397 669 392 q 640 414 648 410 q 623 425 631 418 q 603 427 612 422 q 586 435 594 431 q 574 435 579 433 q 563 435 570 438 q 551 440 560 444 q 536 437 541 437 q 522 446 529 444 q 507 450 515 448 q 489 452 498 452 q 476 449 480 453 q 468 452 473 452 q 463 456 463 452 q 448 457 456 457 q 433 461 439 457 q 414 460 423 463 q 403 466 411 467 q 392 468 395 465 q 371 478 380 475 q 355 479 362 481 q 345 484 349 481 q 334 487 342 487 q 328 492 332 491 q 320 495 323 492 q 301 496 305 494 q 292 499 297 499 q 280 502 281 500 q 277 505 279 503 q 264 506 271 503 q 252 513 258 509 q 239 519 245 517 q 231 522 233 522 q 216 531 227 530 q 197 541 205 532 q 189 544 193 541 q 180 547 186 547 q 172 556 178 551 q 163 564 167 562 q 149 573 151 570 q 144 579 146 576 q 132 584 137 579 q 119 590 127 589 q 88 616 102 612 q 83 625 87 621 q 75 632 79 629 q 70 643 72 643 q 66 646 68 643 q 63 656 65 648 q 58 663 61 665 q 58 675 61 674 q 53 685 56 677 q 54 704 52 693 q 49 722 56 715 q 49 739 54 730 q 50 762 56 749 q 55 770 56 765 q 56 780 54 776 q 60 800 64 795 q 61 808 60 804 q 58 817 62 812 q 65 824 62 819 q 73 831 68 829 q 79 844 75 837 q 90 858 84 850 q 99 871 95 865 q 103 878 103 876 q 118 885 106 878 q 133 895 130 892 q 139 903 136 898 q 145 911 142 909 l 161 918 q 179 929 178 928 l 203 945 q 218 951 210 948 q 231 959 227 954 q 260 969 248 966 q 281 981 271 972 q 296 985 289 981 q 312 989 304 989 q 321 993 320 993 q 326 991 323 993 q 342 995 332 996 q 359 994 351 994 q 385 1002 374 1002 q 403 1005 395 1002 q 419 1005 416 1002 q 425 1008 422 1008 q 433 1006 429 1008 q 441 1008 438 1005 q 466 999 457 1001 q 486 994 475 997 q 519 998 505 993 q 541 997 528 991 q 561 991 549 990 q 583 989 572 993 q 599 987 595 989 q 608 989 602 986 q 616 983 610 983 q 624 977 623 983 q 644 972 635 978 q 665 967 654 967 q 672 960 667 962 q 680 951 677 958 q 702 939 694 943 q 713 928 709 935 q 722 926 720 929 q 728 921 724 924 q 737 939 735 933 q 743 949 739 944 q 746 966 742 959 q 753 982 750 974 q 766 985 760 985 q 779 987 772 985 q 806 977 792 977 q 812 968 807 970 q 823 963 818 966 q 823 946 822 955 q 821 929 823 937 q 816 916 815 918 q 815 910 817 913 q 805 879 810 894 q 800 854 800 864 q 800 846 799 850 q 800 837 800 842 q 797 818 799 827 q 795 799 795 808 q 795 779 795 793 q 795 762 796 765 q 792 744 795 751 q 788 730 789 736 q 787 711 788 716 q 781 696 784 700 q 777 688 777 692 l 772 673 q 766 665 769 669 q 760 659 762 662 q 747 660 751 659 q 738 658 742 661 q 728 663 732 661 q 718 667 724 666 q 711 676 713 671 q 701 684 708 681 q 696 703 697 690 q 705 720 694 715 q 709 739 705 730 q 715 757 713 747 q 715 775 713 770 q 718 785 718 780 q 715 801 718 795 q 715 817 712 807 q 707 830 708 830 q 705 833 705 830 q 698 846 700 842 q 693 853 696 849 q 678 865 682 863 q 673 875 674 868 q 665 882 669 879 q 659 892 662 886 q 648 897 652 892 q 637 902 644 901 q 616 915 625 910 q 598 928 606 920 q 585 926 587 924 q 576 930 583 928 l 563 933 q 546 930 555 935 q 529 933 537 926 q 513 932 514 933 q 510 930 513 930 q 492 934 492 935 q 483 936 491 933 q 466 936 469 937 q 458 936 463 935 q 448 939 453 936 q 438 941 442 941 q 418 940 423 939 q 407 941 412 941 q 393 935 395 933 q 389 937 392 937 q 367 933 377 932 q 351 928 357 935 q 345 927 347 929 q 338 925 342 925 q 324 924 324 924 q 315 918 317 921 q 305 914 313 916 q 283 904 294 909 q 269 895 271 899 q 249 887 248 888 q 244 879 250 886 q 227 871 232 872 q 218 864 221 871 q 189 842 198 852 q 170 821 180 831 q 144 788 156 803 q 143 778 145 781 q 140 768 141 774 q 141 754 142 754 q 140 753 140 754 q 140 745 138 749 q 137 739 141 742 q 137 729 137 731 q 134 724 137 727 q 147 667 134 685 q 176 637 160 648 q 206 618 193 625 q 220 606 220 612 q 230 602 228 604 q 231 598 232 601 q 254 583 247 594 q 266 582 259 586 q 275 574 273 578 q 283 573 282 571 q 294 566 283 575 q 320 561 311 567 q 351 556 330 555 q 381 542 370 545 q 403 540 392 538 q 413 535 410 536 q 420 536 416 534 q 436 528 426 528 q 453 522 446 529 q 460 526 457 524 q 468 529 464 528 q 477 526 475 529 q 483 522 479 524 q 507 519 498 525 q 528 518 515 513 q 543 515 534 513 q 557 514 551 517 q 563 511 560 513 q 568 506 566 509 q 590 505 579 509 q 612 505 601 502 q 631 495 627 496 q 642 495 635 494 q 659 482 652 488 q 680 477 665 476 q 690 467 685 472 q 700 456 694 463 q 721 441 715 448 q 731 429 727 435 q 745 420 741 427 q 758 411 749 414 q 771 385 765 393 q 787 376 777 377 q 791 369 788 372 q 795 362 793 366 q 800 355 799 359 q 806 349 802 351 q 814 328 812 335 q 821 316 815 321 q 821 309 819 315 q 824 298 822 304 q 828 286 826 292 q 830 277 830 279 q 830 265 829 267 q 831 260 831 263 m 651 1259 q 647 1251 651 1253 q 640 1245 643 1249 q 621 1229 628 1237 q 607 1213 614 1221 q 593 1198 600 1204 q 583 1190 586 1191 q 578 1180 583 1183 q 572 1171 572 1177 q 558 1162 566 1166 q 547 1152 551 1158 q 537 1147 540 1152 q 528 1143 534 1143 q 518 1132 519 1138 q 510 1126 517 1126 q 505 1114 507 1114 q 500 1112 502 1115 q 477 1103 487 1099 q 463 1101 468 1108 q 449 1106 456 1104 q 435 1111 442 1108 q 417 1131 429 1123 q 401 1153 406 1138 q 396 1159 399 1156 q 392 1166 393 1162 q 382 1177 388 1173 q 373 1188 377 1181 q 364 1202 365 1199 q 361 1207 363 1204 q 349 1212 355 1207 q 337 1223 343 1217 q 327 1238 331 1230 q 323 1251 323 1246 q 330 1265 324 1261 q 331 1274 328 1272 q 335 1282 334 1276 q 348 1283 342 1282 q 361 1287 354 1284 q 371 1282 366 1284 q 382 1283 376 1280 q 395 1274 385 1279 q 408 1268 404 1268 q 420 1255 418 1256 q 425 1252 422 1255 q 437 1230 431 1241 q 454 1213 444 1219 q 463 1198 457 1200 q 473 1200 469 1196 q 480 1207 476 1203 q 496 1218 492 1210 q 510 1232 507 1223 q 527 1242 522 1241 q 533 1245 532 1242 q 542 1255 541 1253 q 545 1260 543 1257 q 552 1268 551 1268 q 556 1271 553 1268 q 567 1284 562 1279 q 581 1289 572 1289 q 591 1296 589 1294 q 598 1301 594 1298 q 607 1300 601 1302 q 616 1302 613 1298 q 622 1297 620 1299 q 631 1295 624 1294 q 640 1287 633 1290 q 650 1279 646 1284 q 649 1269 647 1272 q 651 1259 651 1265 z "},"":{"ha":614,"x_min":-15,"x_max":601,"o":"m 601 648 q 596 640 598 643 q 595 631 594 637 q 585 622 589 628 q 576 610 582 616 q 577 604 578 606 q 576 597 576 601 q 569 591 572 594 q 560 586 566 589 q 545 576 547 582 q 541 568 544 571 q 534 564 538 566 q 525 559 529 562 q 519 553 522 556 q 513 549 517 549 q 509 540 510 541 q 505 537 507 538 q 498 526 502 532 q 487 518 494 521 q 484 511 486 514 q 483 502 483 507 q 468 493 479 500 q 453 483 457 486 q 437 486 446 488 q 419 487 427 483 q 412 503 416 490 q 408 518 408 515 q 408 532 410 530 q 408 536 407 533 q 414 546 410 543 q 426 552 419 549 q 433 569 429 562 q 444 585 438 576 q 433 593 439 590 q 426 604 427 597 q 408 614 419 606 q 391 618 396 618 q 384 623 385 618 q 368 628 373 627 q 361 631 363 629 q 351 635 358 635 q 335 637 343 636 q 320 640 327 639 q 312 640 313 640 q 302 639 307 640 q 294 637 298 637 q 284 638 289 637 q 274 637 279 639 q 267 634 270 636 q 258 631 263 632 q 238 626 241 628 q 231 621 235 624 q 201 604 214 612 q 176 581 189 595 q 161 547 165 568 q 153 510 156 526 q 154 491 153 500 q 160 473 155 481 q 173 462 165 467 q 187 450 180 457 q 199 442 193 446 q 212 439 205 438 q 260 425 240 431 q 300 418 279 419 q 323 407 309 407 q 347 404 338 407 q 354 400 351 403 q 361 395 357 397 q 387 387 372 389 q 411 377 401 384 q 424 378 418 381 q 437 376 430 374 q 453 366 449 368 q 461 366 457 365 q 475 354 465 357 q 488 340 486 351 q 498 337 494 339 q 509 334 503 335 q 514 328 511 331 q 522 323 517 324 q 530 312 526 313 q 536 307 534 311 q 543 288 538 290 q 549 283 547 286 q 554 262 555 269 q 559 254 553 256 q 557 233 556 243 q 557 212 559 222 q 553 182 552 186 q 543 167 553 179 q 541 157 544 160 q 538 149 537 155 q 527 139 530 146 q 514 129 524 132 q 510 122 511 126 q 506 115 509 118 q 487 106 498 114 q 471 92 476 98 q 453 83 458 90 q 444 81 446 84 q 437 76 441 79 q 413 69 431 76 q 393 57 395 62 q 382 56 384 60 q 377 53 380 53 q 353 49 359 52 q 340 46 347 46 q 326 45 336 46 q 302 45 315 45 q 279 45 290 45 q 264 45 269 45 q 252 48 258 45 q 239 47 245 52 q 228 58 237 56 q 212 58 218 61 q 189 69 199 65 q 168 80 179 73 q 148 94 157 87 q 136 104 138 100 q 123 110 125 109 q 122 114 122 111 q 110 121 115 115 q 100 133 104 127 q 89 140 95 138 q 77 134 83 141 q 66 121 71 127 q 61 107 62 115 q 46 102 50 107 q 26 96 37 102 q 11 98 19 99 q -4 100 3 98 q -7 107 -5 103 q -12 114 -8 111 q -14 136 -15 129 q -12 148 -14 144 q 3 159 -1 156 q 12 168 8 163 q 16 177 15 171 q 27 186 18 183 q 49 214 42 205 q 61 233 56 222 q 83 254 75 245 q 90 260 88 259 q 95 264 92 262 q 111 277 106 274 q 118 285 115 281 q 157 277 145 283 q 175 255 170 271 q 171 248 174 250 q 170 239 168 245 q 160 218 160 229 q 146 204 146 206 q 146 200 145 202 q 150 196 146 198 q 156 190 153 194 q 163 177 157 183 q 170 163 168 171 q 179 159 175 161 q 189 153 183 156 q 198 146 194 146 q 202 141 202 145 q 220 132 214 134 q 228 126 225 130 q 247 122 240 129 q 256 121 248 122 q 272 120 263 121 q 290 119 281 119 q 301 118 298 118 q 314 121 307 118 q 324 122 321 125 q 340 123 330 121 q 355 127 351 125 q 378 129 374 127 q 391 132 381 130 q 414 144 407 137 q 429 153 422 151 q 434 159 431 156 q 439 165 437 161 q 451 170 448 164 q 461 176 454 175 q 465 189 463 183 q 472 198 467 195 q 475 215 471 208 q 480 231 480 222 q 477 243 480 237 q 472 256 475 250 q 463 268 467 266 q 460 275 458 270 q 447 286 449 285 q 444 290 445 288 q 434 291 437 290 q 430 292 431 292 q 427 294 429 293 q 422 298 426 296 q 406 302 407 301 q 403 305 406 304 q 396 306 400 307 q 388 307 392 305 q 350 315 363 315 q 323 319 336 316 q 301 326 312 321 q 279 334 290 331 q 272 334 275 335 q 264 335 269 334 q 243 341 254 338 q 221 342 232 345 q 205 349 212 345 q 187 354 198 353 q 180 360 186 359 q 175 368 175 361 q 161 372 167 369 q 148 378 155 376 q 123 395 141 389 q 115 406 118 400 q 107 418 111 411 q 95 433 102 430 q 87 454 96 444 q 77 475 79 464 q 77 484 76 480 q 79 492 79 488 q 75 512 75 507 q 72 519 76 517 q 73 530 75 525 q 75 543 72 536 q 77 566 76 557 q 84 576 77 574 q 86 585 87 581 q 87 593 85 589 q 99 607 94 604 q 104 618 104 610 q 117 629 115 629 q 121 631 118 628 q 135 644 129 640 q 141 656 141 647 q 157 663 148 654 q 174 675 167 673 q 186 685 184 682 q 208 689 197 686 q 229 699 220 692 q 239 697 233 694 q 248 705 245 700 q 273 715 263 704 q 287 715 279 713 q 301 715 294 716 q 341 713 326 709 q 368 707 357 716 q 397 703 382 709 q 426 699 411 696 q 439 690 427 690 q 456 680 442 682 q 460 673 457 675 q 465 667 463 671 q 498 650 486 667 q 513 662 505 652 q 525 678 522 671 q 534 680 530 678 q 541 684 537 681 q 565 682 553 685 q 587 675 576 680 q 601 648 597 665 m 499 968 q 495 961 499 963 q 488 955 491 959 q 469 939 476 947 q 455 922 463 930 q 441 907 448 914 q 431 899 434 901 q 426 890 431 892 q 420 880 420 887 q 406 872 414 876 q 395 861 399 868 q 385 857 388 861 q 376 853 382 853 q 366 842 368 848 q 358 836 365 836 q 353 824 355 823 q 349 822 350 825 q 326 813 335 808 q 311 811 316 818 q 297 816 304 814 q 283 821 290 818 q 265 840 277 833 q 250 863 254 848 q 244 869 247 865 q 240 876 241 872 q 231 887 236 883 q 221 898 225 891 q 212 911 213 909 q 209 917 212 914 q 197 922 203 917 q 185 933 191 926 q 175 948 179 940 q 171 960 171 956 q 178 975 172 971 q 179 984 176 982 q 183 991 182 986 q 196 993 190 991 q 209 997 202 994 q 219 992 214 994 q 231 993 224 990 q 243 983 233 989 q 256 978 252 978 q 268 965 266 966 q 273 962 270 964 q 286 940 279 951 q 302 922 292 929 q 311 907 305 910 q 321 909 317 906 q 328 917 324 913 q 345 928 340 920 q 358 941 355 933 q 375 951 370 951 q 381 955 380 952 q 390 965 389 963 q 393 970 391 967 q 400 978 399 978 q 404 981 401 978 q 415 994 410 989 q 429 998 420 998 q 439 1006 437 1004 q 446 1010 442 1008 q 455 1010 449 1012 q 464 1012 461 1008 q 470 1006 468 1009 q 479 1005 472 1004 q 488 997 481 1000 q 498 989 494 994 q 497 979 495 982 q 499 968 499 975 z "},"":{"ha":646,"x_min":-236,"x_max":882,"o":"m 882 943 q 861 929 875 933 l 849 918 q 835 916 841 916 q 823 917 829 916 q 800 921 810 921 q 787 922 789 921 q 748 928 766 929 q 709 930 730 928 q 702 924 705 928 q 694 918 699 921 q 692 910 696 911 q 690 903 689 909 q 681 897 684 902 q 675 887 678 891 q 662 878 665 882 q 655 869 659 873 q 648 859 651 864 q 643 853 644 854 q 636 848 640 850 q 629 842 632 845 q 625 833 628 840 q 623 826 623 827 q 612 817 616 822 q 606 804 608 812 q 593 794 598 802 q 579 784 587 787 q 570 770 576 776 q 556 758 563 764 q 541 732 548 739 q 526 709 534 726 q 517 705 521 708 q 509 700 514 703 q 487 682 500 688 q 481 673 484 678 q 472 666 477 669 q 467 660 471 662 q 464 652 464 658 q 459 645 465 650 q 450 639 453 640 q 445 627 449 632 q 441 616 441 623 q 425 600 429 604 q 420 590 420 597 q 409 581 411 589 q 399 572 407 574 q 397 564 400 567 q 395 557 395 562 q 385 550 387 553 q 382 544 384 547 q 366 524 372 530 q 353 511 359 518 q 350 504 351 507 q 351 498 349 500 q 336 486 336 490 q 331 480 336 481 q 334 460 332 464 q 335 452 335 456 q 334 444 335 448 q 334 438 334 441 q 336 416 334 427 q 338 393 338 404 q 337 384 338 388 q 336 374 336 380 q 340 343 342 353 q 338 323 338 334 q 339 315 339 321 q 342 305 339 308 q 343 290 336 297 q 343 260 340 275 q 345 253 343 256 q 346 245 346 250 q 345 233 346 239 q 345 220 345 227 q 345 205 343 206 q 346 201 346 203 q 346 170 343 180 q 347 146 349 159 q 346 132 350 137 q 350 119 347 125 q 351 106 353 114 q 352 93 350 95 q 354 88 354 91 q 361 85 357 87 q 369 83 366 84 q 378 84 373 83 q 388 84 382 85 q 404 82 396 84 q 418 87 411 80 q 433 83 426 85 q 448 81 441 81 q 472 82 464 87 q 486 75 480 77 q 503 58 498 66 q 510 45 507 49 q 509 22 503 31 q 494 11 495 14 q 491 5 492 8 q 476 3 483 7 q 461 -1 469 -1 q 452 -1 457 -3 q 442 1 448 1 q 435 0 439 1 q 429 0 431 -1 q 420 2 423 0 q 412 4 416 4 q 385 1 393 0 q 372 -1 377 1 q 352 -1 358 -1 q 340 0 346 -1 q 329 1 334 1 q 320 -1 324 1 q 294 3 311 1 q 269 -1 278 5 q 250 -3 267 0 q 227 -5 232 -5 q 207 -9 220 -4 q 191 -15 194 -14 q 184 -14 189 -15 q 178 -16 180 -12 q 169 -12 172 -14 q 160 -8 165 -9 q 153 0 155 -3 q 146 3 151 3 q 144 11 146 7 q 140 19 142 15 q 136 41 137 31 q 138 62 136 50 q 148 66 142 65 q 155 73 153 66 q 172 72 163 71 q 190 72 182 73 q 202 75 199 77 q 208 73 205 72 q 234 76 220 76 q 259 81 248 76 q 263 109 266 95 q 266 138 260 123 q 264 145 264 141 q 263 152 264 149 q 264 161 263 155 q 267 175 266 168 q 267 187 267 182 q 264 194 266 193 q 267 227 269 216 q 264 251 266 239 q 264 271 263 260 q 263 290 266 282 q 263 303 263 300 q 260 309 263 307 q 264 351 263 328 q 260 392 264 373 q 258 399 259 397 q 258 408 258 401 q 261 427 260 420 q 256 444 262 433 q 258 456 259 448 q 259 469 256 465 q 250 479 255 475 q 239 486 245 484 q 232 492 236 490 q 224 496 228 494 q 219 510 221 509 q 214 514 217 511 q 198 534 205 533 q 193 543 198 541 q 189 552 189 545 q 181 557 186 552 q 172 568 176 562 q 162 578 167 574 q 156 586 157 583 q 142 612 149 600 q 129 627 136 624 q 119 639 129 637 q 105 663 110 655 q 95 678 100 670 q 87 689 87 686 q 85 694 87 692 q 79 703 84 694 q 69 715 75 712 q 48 745 57 734 q 31 768 39 757 q 30 774 31 772 q 28 781 28 777 q 16 797 22 788 q 7 812 11 806 q -9 840 -1 827 q -28 865 -18 853 q -36 874 -31 871 q -41 883 -41 878 q -55 897 -50 888 q -71 907 -60 905 q -89 905 -80 910 q -109 903 -98 901 q -115 901 -111 902 q -122 898 -118 899 q -140 899 -133 897 q -160 897 -146 902 q -174 897 -171 897 q -182 897 -178 898 q -207 902 -193 892 q -231 918 -221 911 q -236 940 -227 930 q -235 954 -235 952 q -236 958 -236 955 q -218 977 -229 970 q -202 974 -208 983 q -178 975 -190 977 q -153 974 -165 972 q -130 977 -141 974 q -106 979 -118 979 q -83 981 -91 978 q -69 983 -76 983 q -55 982 -62 983 q -41 982 -47 981 q -28 985 -34 982 q -14 986 -22 987 q 22 981 7 982 q 47 982 37 981 q 68 986 60 986 q 87 987 77 986 q 106 989 98 987 q 121 990 115 990 q 134 991 132 990 q 140 993 137 993 q 150 991 145 993 q 160 990 155 990 q 176 980 167 983 q 195 974 186 977 q 196 960 194 966 q 199 947 198 954 q 190 930 193 940 q 184 928 186 930 q 179 922 182 925 q 159 913 163 916 q 148 909 155 911 q 131 905 140 905 q 118 906 122 906 q 103 908 109 906 q 91 905 98 910 q 72 906 75 907 q 66 905 69 905 q 54 906 62 905 q 43 901 46 907 q 52 889 43 898 q 64 875 61 880 q 75 856 66 864 q 84 846 83 848 q 91 832 88 840 q 96 822 94 825 q 103 808 96 817 q 115 796 110 799 q 129 779 118 785 q 144 758 133 768 q 153 734 148 739 q 171 716 157 730 q 179 700 178 703 q 186 697 180 697 q 191 688 189 693 q 195 680 193 684 q 205 669 201 673 q 213 655 210 666 q 222 643 222 647 q 225 636 222 639 q 236 623 235 624 q 237 618 237 621 q 245 610 241 613 q 251 600 250 606 q 260 593 258 598 q 269 586 263 589 q 279 572 271 576 q 290 557 288 567 q 301 567 297 560 q 312 578 305 574 q 330 601 316 591 q 333 609 332 605 q 339 613 334 613 q 356 635 353 625 q 363 652 359 644 q 376 669 370 663 q 385 677 382 674 q 391 688 389 681 q 396 703 392 696 q 411 709 404 705 q 416 724 418 713 q 431 732 427 731 q 431 738 434 732 q 454 756 449 749 q 468 769 460 764 q 471 776 468 772 q 475 783 473 780 q 482 789 481 785 q 490 793 483 793 q 490 802 488 800 q 494 810 492 804 q 513 831 510 814 q 525 838 521 837 q 538 854 530 852 q 543 862 540 859 q 545 869 545 865 q 555 876 552 871 q 566 883 559 880 q 573 896 568 891 q 579 907 578 901 q 589 916 586 911 q 595 926 591 921 q 602 930 598 929 q 608 935 605 932 q 601 938 608 939 q 591 939 594 937 q 578 943 579 944 q 574 941 576 941 q 564 945 566 945 q 560 944 563 944 q 549 947 551 948 q 545 948 548 947 q 527 954 536 951 q 509 956 518 956 q 494 954 498 952 q 487 951 490 955 q 477 956 481 954 q 468 962 473 959 q 458 981 464 977 q 450 994 453 985 q 458 1021 448 1017 q 484 1027 468 1024 q 494 1029 490 1027 q 502 1031 498 1031 q 512 1029 507 1031 q 521 1027 517 1028 q 530 1025 525 1025 q 543 1028 536 1025 q 549 1025 545 1025 q 553 1020 552 1024 q 574 1018 572 1016 q 579 1020 576 1020 q 589 1017 585 1020 q 600 1017 594 1013 q 612 1015 610 1015 q 620 1016 614 1016 q 644 1010 633 1010 q 661 1013 654 1010 q 676 1011 677 1009 q 678 1013 675 1013 q 686 1012 682 1013 q 692 1009 689 1010 q 724 1006 713 1009 q 746 1009 735 1004 q 759 1003 757 1002 q 772 1005 761 1004 q 783 1006 779 1006 q 795 1008 788 1005 q 804 1003 800 1006 q 814 998 808 1000 q 825 997 819 996 q 837 998 830 998 l 848 990 q 861 982 856 986 q 872 977 865 978 q 876 960 872 967 q 882 943 879 952 m 446 1225 q 444 1208 449 1217 q 438 1191 439 1199 q 431 1188 434 1191 q 425 1185 429 1185 q 412 1175 412 1177 q 408 1169 411 1172 q 401 1169 403 1172 q 395 1166 399 1166 q 387 1156 392 1160 q 381 1143 382 1152 q 368 1139 374 1143 q 355 1131 362 1134 q 351 1126 351 1130 q 343 1122 350 1122 q 334 1108 340 1114 q 324 1096 328 1103 q 300 1084 312 1085 q 288 1089 289 1082 q 280 1089 283 1086 q 271 1089 277 1092 q 262 1100 269 1099 q 258 1110 263 1108 q 251 1118 254 1112 q 252 1126 254 1123 q 251 1134 250 1130 q 256 1142 252 1139 q 259 1152 259 1145 q 269 1160 262 1153 q 277 1171 277 1168 q 292 1181 289 1177 q 297 1190 294 1185 q 307 1194 302 1194 q 315 1207 311 1194 q 338 1229 332 1214 q 351 1233 347 1227 q 363 1238 355 1238 q 368 1244 363 1242 q 374 1251 372 1246 q 396 1261 391 1264 q 412 1261 401 1257 q 424 1248 422 1248 q 429 1245 426 1248 q 437 1235 430 1240 q 446 1225 445 1230 z "},"":{"ha":749,"x_min":-23,"x_max":742,"o":"m 739 606 q 742 593 742 602 q 736 581 742 583 q 735 570 739 574 q 728 559 731 566 q 720 557 722 562 q 712 552 718 553 q 705 555 709 553 q 699 556 701 556 q 682 553 685 552 q 675 548 680 553 q 656 552 659 553 q 648 549 652 551 q 647 532 648 541 q 646 514 646 524 q 645 497 647 500 q 646 491 643 494 q 640 473 637 484 q 637 453 643 461 q 640 424 639 433 q 636 408 640 415 q 640 393 640 393 q 637 391 639 393 q 640 383 637 388 q 642 374 642 378 q 640 363 640 365 q 637 354 640 361 q 636 342 636 345 q 633 336 636 339 q 633 319 633 327 q 632 302 632 311 q 627 296 628 300 q 624 289 627 292 q 630 275 627 282 q 633 260 633 269 q 631 247 633 254 q 632 233 629 240 q 636 220 633 228 q 640 208 639 213 q 638 189 642 193 q 635 179 635 184 q 637 167 635 172 q 635 156 639 161 q 637 144 639 145 q 636 140 636 142 q 637 132 636 136 q 637 123 637 127 l 636 109 q 635 88 636 103 q 635 71 633 73 q 630 60 629 68 q 632 49 631 53 q 627 37 627 43 q 625 23 628 30 q 620 12 623 16 q 614 1 617 8 q 614 -14 616 -11 q 610 -19 612 -16 q 611 -31 609 -26 q 605 -45 613 -37 q 605 -64 602 -57 q 599 -68 601 -66 q 594 -73 597 -71 q 592 -89 597 -83 q 585 -103 587 -95 q 580 -122 582 -117 q 574 -129 578 -127 q 570 -136 575 -134 q 564 -144 564 -138 q 555 -149 560 -148 q 551 -157 551 -151 q 538 -168 538 -165 q 536 -174 538 -171 q 524 -180 529 -178 q 515 -191 518 -183 q 509 -194 511 -191 q 502 -195 506 -197 q 487 -203 491 -202 q 480 -209 483 -205 q 465 -211 476 -209 q 453 -218 454 -213 q 422 -222 433 -224 q 406 -228 412 -221 q 398 -229 401 -228 q 392 -227 395 -231 q 363 -231 381 -236 q 347 -233 347 -236 q 342 -229 346 -231 q 328 -228 334 -232 q 316 -224 323 -224 q 298 -223 302 -225 q 288 -224 294 -221 q 271 -215 273 -217 q 266 -210 269 -213 q 257 -208 262 -208 q 252 -203 252 -209 q 234 -195 239 -198 q 227 -186 229 -191 q 214 -175 214 -179 q 208 -170 210 -172 q 205 -160 205 -167 q 194 -152 198 -157 q 183 -142 190 -146 q 171 -129 182 -134 q 159 -113 167 -119 q 146 -83 159 -95 q 146 -64 145 -75 q 140 -47 146 -54 q 142 -34 141 -42 q 144 -20 144 -26 q 142 1 140 -4 q 144 11 144 5 q 155 20 153 18 q 171 19 157 22 q 186 15 186 16 q 190 14 187 14 l 206 5 q 213 -16 213 -9 q 218 -24 213 -22 q 222 -39 217 -33 q 224 -53 227 -46 q 235 -81 228 -68 q 244 -99 241 -94 q 258 -113 255 -111 q 260 -121 260 -115 q 268 -127 263 -125 q 275 -133 273 -130 q 283 -136 277 -133 q 297 -142 290 -138 q 309 -148 304 -145 q 315 -152 315 -151 q 336 -151 320 -149 q 357 -156 351 -153 q 366 -150 363 -149 q 368 -148 369 -151 q 389 -150 377 -152 q 407 -141 400 -148 q 422 -139 422 -138 q 425 -140 423 -140 q 435 -132 430 -137 q 452 -123 449 -129 q 469 -116 461 -122 q 486 -107 476 -110 q 500 -87 491 -95 q 511 -62 509 -79 q 524 -38 517 -47 q 530 -18 529 -24 q 536 -9 532 -12 q 535 9 534 4 q 533 18 536 14 q 540 30 538 28 q 541 34 541 31 q 547 57 544 50 q 551 71 549 64 q 553 90 553 81 q 556 109 553 99 q 557 128 560 118 q 556 149 553 138 q 553 166 551 164 q 556 171 555 168 q 546 171 551 176 q 540 164 541 165 q 528 155 530 159 q 524 149 526 152 q 513 144 515 146 q 507 144 511 141 q 487 130 494 136 q 471 123 480 125 q 440 119 453 122 q 416 114 427 117 q 409 111 412 114 q 401 109 406 109 q 380 110 388 114 q 363 109 366 107 q 357 115 359 111 q 345 117 347 117 q 339 118 342 118 l 311 118 l 286 123 q 271 132 279 129 q 255 138 263 134 q 245 145 250 141 q 235 152 241 149 q 222 162 228 155 q 209 174 217 170 q 201 184 206 180 q 193 195 197 189 q 176 214 180 206 q 164 228 170 227 q 161 237 161 232 q 155 241 161 241 q 149 257 152 248 q 138 269 146 266 q 136 275 138 271 q 136 282 134 278 q 126 294 127 286 q 118 309 125 302 q 114 330 118 321 q 107 349 110 338 q 109 355 106 353 q 113 362 113 358 q 111 377 113 369 q 111 392 109 385 q 109 418 110 410 q 104 431 109 426 l 106 448 q 104 458 103 457 q 104 461 104 458 q 104 479 103 475 q 103 487 106 483 q 96 488 99 490 q 88 486 92 486 q 81 487 85 486 q 75 487 77 488 q 66 486 71 487 q 60 483 62 484 q 51 483 57 486 q 41 480 45 480 q 27 483 34 480 q 15 483 20 486 l 1 494 l -11 502 q -20 526 -23 517 q -20 541 -16 534 q -15 545 -18 541 q -9 549 -12 548 q 23 557 9 559 q 46 559 37 556 q 58 562 54 563 q 64 562 61 560 q 71 563 68 562 q 77 564 75 564 q 85 563 81 564 q 95 562 90 562 q 121 564 103 560 q 146 570 138 567 q 155 566 151 568 q 164 564 159 564 q 182 567 176 567 q 197 568 189 567 q 212 570 205 568 q 222 571 220 571 q 232 575 228 572 q 243 579 236 578 q 267 574 259 581 q 285 566 274 567 q 289 555 288 556 q 292 553 290 555 q 294 541 292 544 q 296 536 297 538 q 291 519 290 521 q 292 514 292 517 q 285 506 285 507 q 283 503 285 505 q 266 492 273 502 q 240 492 255 492 q 216 487 225 492 q 199 488 208 490 q 184 484 191 487 q 186 466 182 475 q 186 449 190 457 q 195 429 191 442 q 190 410 198 416 q 193 397 195 407 q 197 384 191 387 q 193 368 190 377 q 198 350 197 358 q 197 336 198 343 q 198 323 195 330 q 201 315 198 320 q 209 303 205 309 q 217 293 213 297 q 224 289 221 289 q 229 277 224 282 q 233 266 233 273 q 244 256 237 259 l 250 243 q 260 233 255 235 q 269 220 260 227 q 287 208 277 213 q 308 199 297 202 q 324 198 319 197 q 340 194 331 194 q 355 193 349 194 q 368 192 359 197 q 384 190 377 187 q 401 193 396 191 q 410 197 406 195 q 432 202 426 198 q 446 201 438 206 q 464 216 461 208 q 480 221 475 214 q 492 233 486 228 q 508 243 503 241 q 518 251 513 245 q 524 262 522 262 q 528 263 526 262 q 532 286 534 281 q 539 310 538 307 q 541 314 540 313 q 543 316 541 315 q 547 323 544 317 q 547 338 545 330 q 547 353 549 346 q 552 361 553 362 q 553 366 551 359 q 556 375 559 369 q 559 384 553 381 q 557 410 555 395 q 557 437 559 426 q 556 444 557 441 q 555 452 555 448 q 555 465 555 457 q 556 477 555 472 q 561 491 562 490 q 562 495 560 492 q 565 520 567 500 q 564 548 563 540 q 549 555 552 553 q 540 552 545 556 q 528 551 533 555 q 515 548 522 548 q 498 547 503 549 q 486 548 494 544 q 477 551 480 548 q 471 552 475 553 q 446 572 465 566 q 443 596 439 589 q 444 610 446 604 q 460 623 456 621 q 469 625 464 624 q 497 626 480 628 q 528 627 514 624 q 542 629 541 631 q 545 628 543 628 q 553 629 551 632 q 559 627 556 627 q 576 631 570 627 q 596 633 593 631 q 602 636 600 635 q 627 637 613 632 q 650 633 642 643 q 675 632 663 639 q 688 632 681 632 q 699 635 694 632 q 716 625 712 628 q 727 621 720 621 q 732 612 727 616 q 739 606 736 609 m 473 852 q 471 835 476 844 q 465 818 467 826 q 458 815 461 818 q 452 812 456 812 q 439 802 439 804 q 435 796 438 799 q 428 796 430 799 q 422 793 426 793 q 414 783 419 787 q 408 770 410 779 q 395 766 401 770 q 382 758 389 761 q 378 753 378 757 q 370 749 377 749 q 361 735 368 741 q 351 723 355 730 q 328 711 339 712 q 315 716 316 709 q 307 716 311 713 q 298 716 304 719 q 289 727 296 726 q 286 737 290 735 q 278 745 281 739 q 279 753 281 750 q 278 761 277 757 q 283 769 279 766 q 286 779 286 772 q 296 787 289 780 q 304 798 304 795 q 319 808 316 804 q 324 817 321 812 q 334 821 330 821 q 342 834 338 821 q 365 856 359 841 q 378 860 374 854 q 391 865 382 865 q 395 871 391 869 q 401 878 399 873 q 423 888 418 891 q 439 888 429 884 q 451 875 449 875 q 456 872 453 875 q 465 862 457 867 q 473 852 472 857 z "},"":{"ha":880,"x_min":-23,"x_max":867,"o":"m 867 473 q 865 452 864 458 q 860 442 867 446 q 854 426 860 433 q 854 410 854 414 q 849 404 853 406 q 848 397 849 400 q 846 391 846 395 q 839 373 840 384 q 830 355 838 362 q 820 334 823 342 q 810 324 817 327 q 805 313 807 317 q 796 307 803 309 q 786 285 796 296 q 770 264 776 274 q 760 258 764 262 q 749 251 755 254 q 737 242 741 245 q 730 237 734 239 q 722 235 727 240 q 715 228 716 231 q 701 221 704 228 q 685 218 693 222 q 671 214 677 213 q 659 207 669 213 q 647 198 648 201 q 635 195 639 197 q 621 195 631 193 q 591 186 608 189 q 585 182 587 184 q 579 178 583 179 q 569 178 572 180 q 559 178 566 175 q 537 172 548 172 q 511 165 517 167 q 496 160 506 163 q 490 161 492 159 q 481 163 487 163 q 474 160 477 163 q 465 156 471 157 q 444 155 454 153 q 423 152 434 157 q 392 152 408 159 q 361 148 376 145 l 340 152 q 318 153 330 149 q 296 155 307 156 q 288 153 292 155 q 281 152 285 152 q 274 153 277 151 q 267 156 271 155 q 255 156 260 155 q 243 157 250 157 q 241 143 241 153 q 240 122 240 133 q 240 101 240 111 q 241 87 240 91 q 245 79 243 83 q 247 71 248 76 q 262 71 254 73 q 277 72 270 69 q 296 78 292 77 q 304 79 301 79 q 315 73 311 77 q 328 71 320 68 q 343 50 339 57 q 353 35 347 42 q 350 26 351 30 q 350 16 349 22 q 338 9 340 11 q 320 -3 326 -3 q 312 -8 315 -4 q 304 -7 308 -7 q 296 -5 300 -7 q 270 -7 285 -8 q 243 -7 255 -7 q 230 -8 236 -7 q 217 -9 224 -9 q 197 -8 206 -9 q 176 -9 187 -7 q 157 -12 161 -14 q 145 -11 152 -11 q 113 -19 133 -12 q 81 -23 92 -26 q 68 -13 71 -16 q 64 -9 66 -9 q 56 13 62 1 q 52 35 49 24 q 59 47 53 38 q 68 58 65 56 q 93 60 79 62 q 119 61 107 58 q 141 69 137 64 q 159 77 156 65 q 159 99 161 88 q 161 119 161 114 q 163 129 160 125 q 159 148 156 146 q 155 164 161 149 q 157 196 155 186 q 159 218 160 206 q 155 232 157 227 q 153 245 152 237 q 155 255 155 252 q 160 263 156 258 q 160 274 159 274 q 161 277 161 274 q 161 294 160 292 q 161 298 161 296 q 159 306 161 302 q 159 313 157 309 q 161 328 161 326 q 160 332 160 330 q 162 348 163 345 q 161 354 161 351 q 163 366 161 361 q 163 377 165 370 q 166 384 165 380 q 170 391 167 388 q 167 416 164 404 q 171 442 170 429 q 163 452 163 450 q 160 454 163 454 q 161 465 161 460 q 164 472 160 469 q 160 502 165 488 q 162 514 163 513 q 161 518 161 515 q 163 526 161 522 q 165 533 165 529 q 163 558 167 547 q 164 583 160 570 q 159 598 160 589 q 156 612 159 608 q 159 621 160 617 q 160 629 159 625 q 163 650 164 643 q 164 666 161 658 q 161 680 161 673 q 159 693 161 686 q 163 702 159 699 q 168 711 167 705 q 168 726 168 713 q 164 742 167 739 q 165 762 165 757 q 165 773 165 768 q 162 794 161 787 q 163 810 163 802 q 164 825 164 818 q 163 834 164 831 q 158 856 161 846 q 164 872 155 865 q 160 892 157 880 q 164 913 163 903 q 156 918 161 920 q 146 916 151 916 q 109 916 123 920 q 85 913 95 913 q 67 912 72 914 q 57 910 62 910 q 35 910 41 911 q 24 910 30 909 q 16 914 19 911 q 7 916 14 917 q 1 922 3 918 q -8 925 -1 926 q -10 932 -7 929 q -15 937 -14 935 q -20 962 -18 955 q -20 975 -23 968 q -8 985 -11 990 q -2 990 -4 987 q 4 994 0 993 q 18 996 16 997 q 22 993 19 994 q 33 990 31 991 q 38 989 35 989 q 47 989 42 987 q 56 986 52 990 q 66 989 57 989 q 85 991 75 990 q 107 991 96 991 q 125 994 118 991 q 141 992 138 990 q 146 994 144 994 q 161 995 153 997 q 176 993 168 993 q 184 996 180 994 q 191 998 189 998 q 210 996 206 994 q 216 997 213 997 q 235 994 225 997 q 251 998 244 991 q 265 994 258 996 q 278 997 273 991 q 294 996 290 993 q 307 994 298 998 q 326 978 324 985 q 336 968 328 971 q 338 957 335 966 q 343 947 340 948 q 338 937 340 941 q 334 925 336 932 q 313 918 327 922 q 293 914 300 914 q 278 916 286 914 q 263 916 270 918 q 252 899 254 903 q 252 882 250 895 q 249 873 250 879 q 247 861 248 867 q 250 844 248 846 q 255 836 252 841 q 251 819 251 822 q 268 819 260 815 q 286 817 275 822 q 293 819 292 817 q 298 825 294 822 q 316 823 304 823 q 342 824 328 823 q 370 825 357 825 q 388 829 382 826 q 405 829 399 833 q 414 825 411 825 q 434 826 420 825 q 453 830 448 827 q 464 826 461 827 q 468 825 467 825 q 473 827 469 825 q 484 831 476 829 q 509 826 496 829 q 533 823 521 823 q 547 821 544 818 q 556 821 551 823 q 568 815 563 815 q 576 812 574 815 q 602 812 595 814 q 616 812 609 810 q 632 805 623 806 q 646 798 642 804 q 659 793 655 800 q 695 781 673 788 q 722 758 718 774 q 730 751 726 754 q 739 743 735 749 q 751 739 746 742 q 764 734 757 735 q 768 724 766 724 q 769 719 770 723 q 776 710 772 713 q 783 700 780 707 q 802 675 792 689 q 818 659 812 662 q 827 648 821 650 q 836 632 830 637 q 838 613 841 627 q 847 596 848 601 q 852 589 846 591 q 853 564 848 576 q 854 537 859 552 q 863 507 859 515 q 867 490 867 499 q 865 481 867 483 q 867 473 864 480 m 777 476 q 775 490 773 483 q 777 503 777 496 q 776 518 774 515 q 777 524 777 521 q 774 538 776 530 q 772 553 772 545 q 768 568 769 563 q 765 579 766 572 q 764 589 764 583 q 764 597 765 594 q 747 623 750 609 q 736 633 739 625 q 730 647 734 640 q 711 669 719 662 q 699 685 703 675 q 682 694 689 693 q 677 704 675 694 q 665 710 674 704 q 654 719 655 716 q 638 723 644 722 q 629 728 632 724 q 592 736 609 736 q 560 738 575 735 q 545 742 552 741 q 529 743 538 743 q 513 747 517 747 q 505 746 509 746 q 498 749 502 747 q 491 753 495 751 q 483 752 487 754 q 476 751 479 750 q 455 752 461 751 q 445 750 449 753 q 433 753 441 753 q 420 751 425 753 q 400 757 408 757 q 385 755 392 757 q 371 751 377 753 q 357 751 365 749 q 345 743 350 745 q 328 747 338 749 q 311 750 319 745 q 297 747 305 749 q 286 750 289 745 q 276 746 281 746 q 264 746 271 746 q 258 743 262 743 q 250 742 254 743 q 247 728 250 732 q 250 711 252 713 q 248 707 248 709 q 247 690 248 694 q 245 681 245 686 q 245 673 244 677 q 247 666 247 670 q 243 653 245 659 q 247 642 240 647 q 246 629 244 635 q 241 620 248 624 q 244 596 244 608 q 245 572 244 585 q 247 564 245 568 q 248 556 248 560 q 247 550 248 553 q 245 543 245 547 q 245 535 244 538 q 247 528 247 532 q 245 510 247 518 q 245 494 244 502 q 247 484 245 488 q 250 476 248 480 q 250 460 251 468 q 250 444 248 452 q 252 434 250 438 q 252 425 254 430 q 250 417 252 420 q 248 410 248 414 q 249 396 250 397 q 248 392 248 395 q 248 374 250 381 q 245 357 247 366 q 244 341 244 349 q 247 331 244 334 q 246 315 244 323 q 248 298 248 307 q 245 273 248 286 q 243 247 243 259 q 246 242 244 243 q 245 233 248 241 q 256 233 254 231 q 264 235 258 236 q 273 233 269 235 q 281 229 277 231 q 289 229 285 228 q 297 229 293 229 q 307 227 302 228 q 317 225 312 225 q 332 227 330 228 q 338 225 335 225 q 351 229 347 229 q 357 229 354 228 q 374 231 370 232 q 380 231 377 231 q 389 232 384 231 q 397 232 393 233 q 407 229 404 231 q 418 231 410 228 q 441 234 433 233 q 458 235 449 235 q 474 237 467 236 q 484 240 481 237 q 498 243 495 241 q 503 247 500 245 q 517 250 510 250 q 532 250 525 250 q 541 256 541 254 q 544 259 540 259 q 569 262 556 259 q 594 267 582 266 q 612 279 602 275 q 632 285 621 282 q 648 292 644 290 q 654 293 651 293 q 677 305 666 300 q 692 319 689 311 q 709 342 708 335 q 725 354 723 349 q 734 361 727 359 q 735 369 731 366 q 739 378 739 372 l 749 393 q 758 405 754 397 q 762 415 761 412 q 764 430 766 427 q 766 440 765 434 q 769 450 766 446 q 774 469 774 464 q 777 476 774 473 z "},"":{"ha":757,"x_min":-14,"x_max":730,"o":"m 728 419 q 724 387 726 397 q 726 368 723 377 q 722 350 719 353 q 722 342 724 347 q 717 321 716 326 q 712 313 718 316 q 714 304 715 311 q 711 292 713 298 q 709 281 709 286 q 712 274 708 275 q 707 265 709 270 q 704 255 705 260 q 695 244 699 250 q 692 229 692 239 q 682 225 685 229 q 673 220 680 221 q 668 214 670 217 q 665 208 666 210 q 658 203 659 208 q 650 199 656 198 q 640 189 646 193 q 629 182 635 184 q 615 169 620 171 q 608 160 610 167 q 595 155 601 159 q 581 149 589 151 q 574 144 576 146 q 568 138 571 141 q 553 130 564 136 q 537 125 541 125 q 526 118 528 118 q 525 115 525 118 q 495 109 510 117 q 473 104 480 110 q 456 102 467 99 q 450 95 453 99 q 444 91 446 91 q 431 96 439 94 q 416 95 422 98 q 394 101 400 99 q 381 104 388 103 q 364 106 373 106 q 346 107 355 106 q 300 125 317 115 q 286 127 292 123 q 274 129 281 132 q 250 142 264 140 q 242 151 248 149 q 232 155 236 152 q 232 134 227 145 q 231 115 237 123 q 233 101 233 109 q 232 87 232 94 q 236 75 237 79 q 235 69 235 72 q 239 56 239 62 q 239 43 239 50 q 240 36 239 39 q 241 28 241 33 q 240 20 241 24 q 239 11 239 16 q 239 -9 237 1 q 241 -28 240 -19 q 238 -35 240 -33 q 235 -41 236 -37 q 236 -47 236 -43 q 237 -54 236 -52 q 241 -69 239 -61 q 247 -84 244 -77 q 248 -100 248 -90 q 248 -121 248 -110 q 250 -141 248 -132 q 256 -153 252 -151 q 250 -168 252 -163 q 251 -183 248 -172 q 248 -195 247 -193 q 250 -201 250 -198 q 243 -217 243 -208 q 233 -231 243 -227 q 229 -250 236 -243 l 217 -256 q 203 -262 206 -259 q 195 -267 199 -264 q 182 -270 184 -267 q 176 -274 179 -273 q 157 -275 164 -277 q 138 -269 149 -273 q 118 -262 125 -263 q 100 -262 115 -262 q 83 -263 84 -263 q 66 -272 72 -266 q 47 -274 61 -278 q 40 -269 43 -271 q 33 -266 37 -267 q 12 -260 22 -262 q -1 -241 1 -258 q -1 -220 -8 -229 l 5 -208 q 14 -203 7 -206 q 28 -197 20 -201 q 41 -192 35 -194 q 50 -190 47 -190 q 58 -190 54 -189 q 66 -191 62 -191 q 80 -189 79 -187 q 84 -190 81 -190 q 106 -187 98 -182 q 125 -190 114 -193 q 140 -196 132 -193 q 156 -197 149 -199 q 165 -181 165 -184 q 164 -174 164 -178 q 168 -149 170 -157 q 164 -132 165 -140 q 165 -125 164 -129 q 164 -118 165 -121 q 155 -94 157 -104 q 153 -77 153 -83 q 153 -27 151 -53 q 155 -19 153 -23 q 155 -9 156 -15 q 153 -2 155 -5 q 151 4 152 1 q 155 16 155 12 q 154 21 155 19 q 152 24 153 23 q 152 30 151 26 q 145 80 159 57 q 144 111 149 94 q 146 130 148 118 q 144 148 144 141 q 144 180 142 164 q 145 212 146 197 q 144 222 145 217 q 142 232 142 227 q 143 250 141 241 q 142 269 145 259 q 136 294 140 282 q 130 321 132 307 q 132 331 130 327 q 133 340 133 335 q 131 370 132 355 q 133 399 130 384 q 127 423 126 410 q 127 448 127 437 q 127 458 126 457 q 127 461 127 458 q 127 471 126 468 q 129 476 129 473 q 130 494 130 491 q 132 509 133 509 q 130 511 132 509 q 134 537 134 530 q 136 551 133 544 q 132 577 130 559 q 134 606 134 595 q 133 613 134 609 q 130 620 132 617 q 132 631 130 625 q 129 642 133 637 q 134 667 136 655 q 133 694 132 680 q 135 701 133 697 q 134 708 137 705 q 135 718 134 713 q 130 724 136 722 q 132 731 132 728 q 134 738 132 734 q 130 760 132 749 q 129 783 129 772 q 130 793 129 788 q 130 803 132 798 q 128 818 130 808 q 129 830 126 827 q 129 847 130 838 q 127 863 127 856 q 130 874 127 869 q 125 886 132 879 q 99 887 113 882 q 72 886 85 892 q 49 893 58 892 q 24 894 39 894 q 16 899 22 894 q -1 903 9 903 l -14 928 q -12 936 -11 932 q -11 945 -14 940 q -2 953 -8 949 q 7 960 4 956 q 22 962 18 960 q 30 966 27 964 q 37 966 33 967 q 52 960 41 966 q 62 962 58 962 q 72 966 66 963 q 92 958 81 963 q 102 960 98 959 q 111 963 106 962 q 127 960 119 963 q 144 958 136 958 l 202 959 q 215 950 214 952 q 220 945 216 948 q 232 926 236 935 q 227 903 228 917 q 219 897 222 901 q 212 888 216 892 q 212 873 209 882 q 212 865 210 868 q 213 860 213 863 q 212 840 214 849 q 212 821 209 831 q 214 798 216 804 q 213 785 213 792 q 212 778 213 781 q 213 769 210 774 q 215 761 216 766 q 216 751 214 755 q 220 711 222 736 q 217 669 218 685 q 218 660 221 665 q 214 651 214 655 q 216 638 214 647 q 221 625 218 629 q 218 607 218 616 q 217 590 217 598 q 237 593 228 587 q 248 608 245 598 q 258 610 254 610 q 267 616 263 610 q 273 616 271 617 q 281 618 275 614 q 303 627 294 621 q 321 633 312 633 q 338 634 334 632 q 346 636 342 636 q 358 636 353 637 q 369 642 363 635 q 384 644 380 639 q 393 651 388 648 q 404 652 399 648 q 415 655 410 655 q 429 654 426 656 q 446 661 433 652 q 460 661 458 659 q 465 662 463 662 q 475 661 471 662 q 484 659 479 659 q 492 660 488 659 q 499 661 495 661 q 509 658 505 659 q 518 655 513 656 q 527 656 522 655 q 536 654 532 656 q 562 654 545 659 q 591 652 578 648 q 604 648 597 650 q 614 642 610 646 q 628 639 623 639 q 638 630 631 632 q 650 621 646 628 q 659 619 655 621 q 667 616 663 617 q 673 604 669 608 q 684 595 677 600 q 686 586 684 590 q 689 575 688 582 q 708 545 701 556 q 715 522 715 533 q 715 514 713 517 q 718 509 718 511 q 724 498 726 500 q 722 494 722 496 q 724 482 726 484 q 724 477 723 480 q 726 465 724 471 q 728 453 728 460 q 728 443 730 448 q 727 433 727 438 q 728 425 727 429 q 728 419 730 422 m 646 450 q 643 471 644 461 q 641 486 642 479 q 640 494 640 492 q 631 521 637 505 q 620 548 625 537 q 614 555 617 552 q 610 564 610 559 q 593 574 600 570 q 572 574 586 578 q 553 580 564 578 q 530 583 541 582 q 513 583 515 582 q 509 585 511 585 q 496 585 498 583 q 491 586 494 586 q 478 585 484 587 q 465 582 472 582 q 442 577 453 579 q 423 574 431 575 q 408 569 408 570 q 406 567 408 568 q 397 566 401 566 q 388 567 392 567 q 373 564 376 563 q 368 564 370 566 q 361 560 361 562 q 353 560 361 559 l 332 556 q 327 552 330 553 q 321 548 324 551 q 305 543 312 548 q 292 532 298 538 q 281 528 286 529 q 270 524 277 526 q 263 514 267 517 q 252 507 259 511 q 245 498 250 503 q 234 488 240 494 q 223 477 228 483 q 217 471 218 472 q 215 461 214 467 q 214 450 216 456 q 212 443 213 446 q 209 435 210 439 q 216 416 216 427 q 213 395 216 404 q 216 387 217 392 q 214 377 214 382 q 217 362 218 363 q 216 358 216 361 q 218 343 216 350 q 216 334 220 336 q 217 319 220 320 q 216 315 214 319 q 222 307 218 309 q 227 298 225 304 q 225 286 222 292 q 229 274 228 281 q 231 256 228 260 q 232 247 233 252 q 241 241 237 244 q 250 235 244 237 q 263 233 254 233 q 283 218 278 224 q 313 202 302 205 q 330 191 323 199 q 339 189 332 191 q 353 185 346 187 q 368 180 361 183 q 376 176 374 178 q 384 178 380 179 q 393 178 388 178 q 425 172 414 172 q 446 182 437 172 q 475 185 460 179 q 503 194 490 191 q 509 199 507 195 q 513 206 510 203 q 519 208 517 205 q 526 212 522 210 q 549 222 545 216 q 556 233 552 228 q 576 241 571 240 q 587 250 581 243 q 595 260 597 256 q 605 271 594 264 q 623 289 621 285 q 627 296 625 293 q 628 304 628 300 q 629 316 628 308 q 633 335 631 331 q 633 343 635 339 q 639 372 637 365 q 642 391 640 380 q 644 412 643 400 q 643 433 644 423 q 643 447 642 446 q 646 450 644 448 z "},"":{"ha":769,"x_min":-39,"x_max":741,"o":"m 741 959 q 728 943 739 956 q 715 926 718 929 q 707 922 712 924 q 697 917 701 920 q 687 907 689 910 q 684 897 685 905 q 663 869 667 890 q 654 856 656 864 q 644 844 652 848 q 642 835 646 837 q 640 826 637 833 q 630 813 637 825 q 623 799 623 802 q 608 780 612 787 q 602 765 604 773 q 591 753 594 762 q 582 739 589 743 q 576 725 578 727 q 571 722 574 723 q 562 705 570 718 q 552 690 555 692 q 540 671 545 675 q 533 656 534 666 q 519 644 525 647 q 515 631 514 640 q 506 617 509 627 q 494 605 503 608 q 480 584 483 590 q 471 574 477 578 l 453 549 q 443 532 444 538 q 441 524 442 526 q 434 518 438 521 q 433 511 430 515 q 425 505 429 507 q 422 495 422 502 q 406 469 406 483 q 390 450 392 457 q 381 439 388 442 q 370 414 381 433 q 353 395 359 396 q 349 385 351 389 q 346 376 346 381 q 332 366 335 369 q 323 351 330 362 q 316 340 317 342 q 315 334 315 338 q 299 315 307 327 q 285 294 292 304 q 281 286 282 290 q 278 279 281 282 q 265 262 269 264 q 262 254 262 259 q 254 245 256 251 q 245 237 251 240 q 239 223 241 229 q 235 210 237 217 q 229 205 231 209 q 222 202 227 202 q 220 195 222 197 q 218 186 217 193 q 213 178 214 183 q 206 171 212 174 q 200 157 203 164 q 190 148 197 151 q 179 129 186 138 q 164 113 172 119 q 160 100 163 100 q 155 96 157 99 q 153 85 151 87 q 153 81 155 84 q 146 78 149 80 q 141 73 144 76 q 136 61 141 66 q 130 49 132 56 q 140 48 134 46 q 151 49 146 50 q 164 51 161 49 q 171 53 167 53 q 183 53 182 52 q 187 54 184 54 q 203 54 194 56 q 218 60 212 53 q 229 59 224 56 q 240 60 235 62 q 274 69 259 60 q 297 69 285 65 q 320 73 309 73 q 334 73 327 73 q 349 72 342 72 q 358 73 354 72 q 366 73 362 73 q 392 77 381 76 q 410 81 403 77 q 424 81 416 80 q 439 80 431 83 q 475 88 463 81 q 486 86 477 84 q 496 84 494 88 q 526 87 514 87 q 544 80 537 87 q 576 83 567 84 q 593 87 585 81 q 610 91 601 91 q 614 104 613 94 q 616 117 614 114 q 618 131 618 123 q 617 140 617 138 q 614 147 616 145 q 614 156 613 149 q 614 172 616 164 q 610 186 613 179 q 614 197 617 195 q 613 203 612 198 q 613 216 613 210 q 610 227 613 221 q 610 246 609 243 q 613 254 612 250 q 613 262 613 256 q 612 276 613 269 q 610 290 612 283 q 608 297 609 296 q 609 305 610 301 q 609 313 608 309 q 612 328 613 326 q 610 334 610 331 q 611 356 613 350 q 609 367 609 362 q 614 376 609 372 q 631 384 618 381 q 650 382 646 388 q 663 374 654 376 q 672 366 666 368 q 681 358 678 363 q 689 329 685 340 q 686 309 693 317 q 686 289 689 300 q 689 271 682 278 q 688 262 689 269 q 688 250 688 256 q 688 240 688 244 q 692 236 689 236 q 688 211 688 229 q 696 187 688 193 q 697 164 694 176 q 697 141 700 152 q 699 130 699 134 q 703 122 700 125 q 698 103 701 114 q 701 84 694 92 q 701 73 699 79 q 701 62 703 68 q 696 51 699 56 q 697 39 694 46 q 687 28 694 39 q 678 14 680 16 q 661 4 667 11 q 644 7 659 5 q 627 8 629 8 q 612 3 618 7 q 598 3 606 0 q 589 -2 594 0 q 581 -7 585 -4 q 564 -5 572 -4 q 547 -7 555 -5 q 533 -2 537 -4 q 526 0 529 0 q 504 1 509 -1 q 492 3 499 3 q 472 -1 479 -1 q 458 -1 465 -1 q 446 -2 452 -1 q 439 -5 441 -3 q 418 -3 431 -3 q 399 -8 406 -4 q 382 -6 391 -7 q 366 -7 374 -5 q 351 -9 351 -11 q 347 -8 350 -8 q 338 -10 342 -8 q 328 -14 334 -12 q 317 -12 323 -14 q 307 -9 312 -11 q 288 -13 294 -14 q 279 -15 282 -12 q 264 -14 274 -12 q 254 -15 255 -16 q 231 -17 250 -15 q 208 -22 213 -19 q 195 -24 197 -24 q 190 -23 193 -23 q 178 -26 180 -27 q 174 -26 176 -26 q 157 -31 159 -31 q 153 -30 156 -30 q 140 -31 145 -30 q 129 -34 136 -31 q 121 -35 125 -37 q 113 -35 117 -34 q 98 -39 102 -39 q 92 -39 95 -38 q 83 -43 87 -41 q 76 -47 80 -45 q 58 -40 69 -45 q 39 -35 46 -35 q 35 -31 38 -35 q 31 -24 33 -27 l 24 -8 q 18 5 22 -1 q 11 19 14 11 q 11 28 9 23 q 9 37 12 33 q 19 48 9 41 q 26 61 28 56 q 34 67 30 61 q 42 81 38 73 q 51 95 46 88 q 60 103 56 102 q 68 114 60 110 q 73 125 69 121 q 80 134 77 129 q 88 151 85 149 q 95 156 91 153 q 104 172 96 160 q 121 199 113 184 q 138 224 130 213 q 145 239 145 236 q 153 248 151 241 q 161 256 156 254 q 167 272 164 270 q 170 281 170 274 q 184 300 179 294 q 194 312 189 305 q 199 321 195 319 q 205 331 203 324 q 223 357 216 347 q 236 378 231 368 q 242 385 240 384 q 248 387 244 387 q 258 401 251 401 q 262 411 258 404 q 269 418 266 418 q 275 431 271 426 q 286 444 279 437 q 305 479 286 464 q 317 495 307 488 q 323 511 317 498 q 332 526 330 524 q 340 533 335 528 q 350 545 345 538 q 359 558 355 552 q 365 568 363 564 q 374 582 372 579 q 376 591 377 585 q 396 615 387 601 q 416 640 406 629 q 425 654 416 652 q 428 663 422 656 q 437 671 434 669 q 446 682 445 680 q 449 684 446 685 q 450 695 448 692 q 460 703 453 699 q 470 720 463 713 q 479 738 477 726 q 495 755 490 746 q 503 765 500 765 q 511 783 511 777 q 518 788 511 788 q 533 814 529 804 q 545 829 537 823 q 546 836 544 834 q 548 842 548 838 q 554 846 552 844 q 559 852 556 849 q 566 868 560 854 q 574 886 572 882 q 585 904 582 901 q 591 914 589 907 q 587 924 591 925 q 581 924 583 922 q 553 926 570 928 q 532 921 537 924 q 511 924 517 926 q 503 924 506 921 q 490 922 495 922 l 475 922 q 446 924 454 926 q 429 921 438 921 q 410 922 420 920 q 391 924 400 925 q 366 922 373 920 q 353 917 358 924 q 324 916 338 921 q 309 916 312 916 q 302 917 305 917 q 281 916 292 917 q 259 916 270 916 q 252 913 255 916 q 245 911 250 911 q 232 914 240 913 q 218 913 224 916 q 204 914 212 916 q 190 914 197 913 q 180 916 184 914 q 171 917 176 917 q 157 917 164 918 q 141 916 149 916 q 121 916 125 917 q 113 916 117 916 q 94 918 99 920 q 85 921 88 917 q 69 917 79 917 q 53 917 60 917 q 49 898 46 911 q 53 878 52 884 q 50 863 53 871 q 53 850 52 860 q 56 829 54 841 q 60 808 58 818 q 61 795 61 798 q 69 769 64 783 q 58 751 62 755 q 50 747 53 746 q 26 731 41 731 q 5 742 8 736 q -4 747 3 747 q -10 758 -7 753 q -19 765 -14 762 q -22 787 -22 776 q -26 808 -22 798 q -27 836 -24 830 q -27 862 -26 846 q -33 888 -28 878 q -30 895 -30 891 q -30 903 -30 899 q -35 926 -35 918 q -37 940 -34 933 q -37 964 -39 963 q -34 972 -35 966 q -22 992 -27 987 q -9 1000 -16 997 q 3 993 -1 997 q 11 996 5 996 q 19 993 16 997 q 31 996 20 994 q 54 997 41 997 q 79 996 68 997 q 95 993 91 994 q 146 990 121 998 q 151 989 146 989 q 161 990 156 990 q 176 991 167 990 q 192 996 187 997 q 201 998 197 996 q 214 994 213 993 q 218 996 216 996 q 241 995 239 994 q 254 993 243 996 q 276 996 273 996 q 286 1000 279 996 q 296 999 288 1000 q 313 998 304 998 q 331 999 323 998 q 340 1000 339 1000 q 355 1002 353 1002 q 361 1001 358 1001 q 390 1001 381 1002 q 410 1000 399 1000 q 423 1000 422 1001 q 427 1000 425 1000 q 437 1001 433 1000 q 446 1002 442 1002 q 454 1001 450 1002 q 461 1000 457 1000 q 475 1002 468 1000 q 490 1004 483 1004 q 501 1004 499 1002 q 506 1005 503 1005 l 519 1005 q 532 1006 522 1005 q 554 1007 543 1006 q 574 1010 566 1008 q 583 1016 583 1012 q 592 1011 589 1015 q 601 1008 595 1008 q 619 1007 614 1009 q 627 1010 624 1005 q 634 1008 631 1008 q 642 1010 637 1009 q 652 1008 647 1008 q 662 1005 656 1008 q 669 1008 666 1006 q 675 1012 673 1010 q 705 1010 693 1006 q 719 1002 708 1005 q 728 992 722 996 q 738 985 735 989 q 740 972 741 978 q 741 959 739 966 m 513 1259 q 509 1251 513 1253 q 502 1245 505 1249 q 483 1229 490 1237 q 469 1213 476 1221 q 454 1198 461 1204 q 445 1190 448 1191 q 439 1180 445 1183 q 434 1171 434 1177 q 420 1162 427 1166 q 408 1152 412 1158 q 399 1147 401 1152 q 389 1143 396 1143 q 380 1132 381 1138 q 372 1126 378 1126 q 366 1114 369 1114 q 362 1112 363 1115 q 339 1103 349 1099 q 324 1101 330 1108 q 311 1106 317 1104 q 297 1111 304 1108 q 279 1131 290 1123 q 263 1153 267 1138 q 258 1159 260 1156 q 254 1166 255 1162 q 244 1177 250 1173 q 235 1188 239 1181 q 226 1202 227 1199 q 222 1207 225 1204 q 211 1212 217 1207 q 199 1223 205 1217 q 189 1238 193 1230 q 184 1251 184 1246 q 191 1265 186 1261 q 193 1274 190 1272 q 197 1282 195 1276 q 210 1283 203 1282 q 222 1287 216 1284 q 233 1282 228 1284 q 244 1283 237 1280 q 256 1274 247 1279 q 270 1268 266 1268 q 281 1255 279 1256 q 286 1252 283 1255 q 299 1230 293 1241 q 316 1213 305 1219 q 324 1198 319 1200 q 334 1200 331 1196 q 342 1207 338 1203 q 358 1218 354 1210 q 372 1232 369 1223 q 389 1242 384 1241 q 395 1245 393 1242 q 404 1255 403 1253 q 407 1260 404 1257 q 414 1268 412 1268 q 418 1271 415 1268 q 429 1284 423 1279 q 442 1289 434 1289 q 453 1296 450 1294 q 460 1301 456 1298 q 469 1300 463 1302 q 477 1302 475 1298 q 484 1297 481 1299 q 492 1295 486 1294 q 501 1287 495 1290 q 511 1279 507 1284 q 511 1269 509 1272 q 513 1259 513 1265 z "},"":{"ha":669,"x_min":11,"x_max":642,"o":"m 640 83 q 637 60 642 69 q 631 45 632 52 q 621 39 629 46 q 609 31 612 33 q 599 33 604 34 q 589 33 594 31 q 581 37 585 34 q 574 41 578 41 q 566 50 571 47 q 559 57 562 53 q 558 68 560 64 q 553 79 556 72 q 555 95 556 91 q 552 102 555 99 q 541 119 551 121 q 528 113 532 117 q 494 111 511 115 q 461 100 476 107 q 454 102 457 100 q 448 103 452 103 q 432 99 439 102 q 415 96 425 96 q 402 98 408 96 q 389 96 396 99 q 363 91 370 90 q 350 91 357 92 q 327 85 335 85 q 311 84 319 85 q 290 80 293 83 q 272 76 281 75 q 256 76 263 77 q 245 73 245 72 q 241 75 244 75 q 218 72 232 75 q 208 70 213 72 q 198 68 203 68 q 178 66 191 66 q 159 62 165 65 q 140 56 152 56 q 122 50 129 57 q 108 54 119 53 q 90 58 96 54 q 79 69 84 61 q 66 77 73 77 q 69 92 68 90 q 72 96 71 94 q 73 107 73 102 q 75 118 72 113 q 84 123 80 121 q 92 129 88 126 q 103 138 99 137 q 110 140 107 138 q 117 147 114 144 q 126 149 119 151 q 140 170 134 160 q 160 184 146 180 q 169 199 163 191 q 180 209 175 206 q 193 225 189 222 q 203 231 198 228 q 209 237 208 232 q 217 240 210 241 q 223 249 220 244 q 232 256 227 254 q 239 267 233 262 q 250 279 244 273 q 259 291 255 285 q 263 300 263 297 q 277 315 275 311 q 283 320 278 320 q 290 332 286 327 q 297 343 294 336 q 315 355 311 353 q 319 365 319 358 q 339 386 331 381 q 350 400 347 391 q 359 411 359 404 q 366 416 362 414 q 372 422 369 418 q 385 439 380 437 q 389 448 389 441 q 402 455 399 449 q 412 465 406 461 q 424 488 419 481 q 437 496 429 494 q 441 507 441 505 q 444 511 441 509 q 450 520 449 515 q 458 528 452 525 q 463 533 461 530 q 467 538 464 536 q 441 544 460 545 q 415 538 423 543 q 407 537 411 536 q 400 536 403 538 q 368 536 378 538 q 346 536 357 534 q 331 536 334 537 q 326 534 328 534 q 304 536 319 534 q 288 528 290 537 q 266 528 278 533 q 244 530 254 524 q 233 528 241 529 q 216 526 225 526 q 200 527 208 526 q 191 529 193 528 q 176 527 184 526 q 161 522 168 528 q 140 522 145 526 q 123 522 129 525 q 127 480 122 498 q 127 452 132 463 q 120 441 121 444 q 118 435 119 438 q 100 426 111 430 q 79 425 88 422 q 69 432 69 429 q 66 437 69 435 l 57 449 q 48 461 47 460 q 47 465 49 463 q 41 487 45 477 q 37 506 38 496 q 35 538 34 522 q 33 570 37 555 q 31 576 33 572 q 28 583 28 581 q 26 597 26 595 q 22 610 27 600 q 18 640 24 625 q 15 666 11 654 q 28 677 18 673 q 45 685 38 681 q 61 678 50 684 q 79 669 77 673 q 87 666 81 666 q 94 652 87 656 q 94 645 91 648 q 98 639 96 642 q 102 616 99 621 q 107 605 106 612 q 156 606 130 608 q 201 606 182 604 q 233 611 216 609 q 266 613 251 613 q 283 613 279 612 q 292 614 288 614 q 301 612 297 614 q 309 613 305 610 q 326 618 320 616 q 336 618 331 620 q 348 617 343 618 q 358 616 353 616 q 376 618 373 620 q 382 617 380 617 q 394 618 389 617 q 406 623 399 620 q 414 623 410 624 q 422 627 419 623 q 437 631 433 624 q 450 628 444 628 q 464 631 457 628 q 480 627 471 624 q 498 628 490 629 q 519 626 510 628 q 544 631 529 624 q 557 625 552 628 q 570 623 562 621 q 584 606 582 610 q 591 600 586 602 q 591 591 589 595 q 593 582 593 587 q 587 564 591 574 q 579 547 582 555 q 564 532 568 536 q 559 519 559 528 q 545 505 547 514 q 533 496 537 503 q 522 487 529 490 q 515 477 519 480 q 514 467 511 475 q 500 456 503 457 q 494 450 496 454 q 482 435 487 445 q 473 418 477 426 l 463 400 q 448 384 448 389 q 438 372 441 374 q 431 370 435 370 q 422 353 425 355 q 415 349 420 350 q 409 336 411 339 q 406 331 407 334 q 398 327 403 328 q 393 320 393 326 q 374 306 385 319 q 359 286 362 293 q 349 277 353 283 q 339 269 346 271 q 332 254 339 258 q 326 241 326 251 q 313 229 316 239 q 300 217 309 220 q 285 191 290 199 q 270 176 279 182 q 248 153 255 165 q 256 149 250 151 q 271 148 263 148 q 286 149 279 148 q 296 152 293 151 q 312 155 307 153 q 323 155 317 157 q 343 161 338 159 q 353 165 349 163 q 376 165 362 163 q 400 167 389 167 q 429 172 419 172 q 448 180 438 172 q 471 180 458 176 q 496 186 483 183 q 519 190 509 189 q 533 189 530 191 q 548 194 545 195 q 553 195 551 193 q 556 210 555 209 q 557 213 557 210 q 555 227 557 220 q 552 240 553 233 q 549 264 545 256 q 553 279 552 273 q 563 284 559 282 q 571 289 567 286 q 585 290 578 290 q 597 286 591 289 q 620 271 610 281 q 623 252 620 264 q 632 236 627 240 q 630 224 629 233 q 629 208 631 214 q 632 182 635 193 q 635 172 633 174 q 637 167 636 171 q 636 150 635 152 q 636 141 637 148 q 635 133 637 137 q 632 126 632 129 q 634 117 632 121 q 637 110 636 114 q 638 96 639 102 q 640 83 637 90 m 499 898 q 495 890 499 892 q 488 884 491 888 q 469 868 476 876 q 455 852 463 860 q 441 837 448 844 q 431 829 434 830 q 426 819 431 822 q 420 810 420 817 q 406 802 414 806 q 395 791 399 798 q 385 787 388 791 q 376 783 382 783 q 366 771 368 777 q 358 765 365 765 q 353 753 355 753 q 349 751 350 754 q 326 743 335 738 q 311 741 316 747 q 297 745 304 743 q 283 750 290 747 q 265 770 277 762 q 250 792 254 777 q 244 798 247 795 q 240 806 241 802 q 231 817 236 812 q 221 827 225 821 q 212 841 213 838 q 209 846 212 844 q 197 851 203 846 q 185 863 191 856 q 175 878 179 869 q 171 890 171 886 q 178 905 172 901 q 179 913 176 911 q 183 921 182 916 q 196 922 190 921 q 209 926 202 924 q 219 922 214 924 q 231 922 224 920 q 243 913 233 918 q 256 907 252 907 q 268 895 266 895 q 273 891 270 894 q 286 869 279 880 q 302 852 292 859 q 311 837 305 840 q 321 839 317 836 q 328 846 324 842 q 345 857 340 849 q 358 871 355 863 q 375 881 370 880 q 381 884 380 882 q 390 895 389 892 q 393 899 391 897 q 400 907 399 907 q 404 910 401 907 q 415 923 410 918 q 429 928 420 928 q 439 935 437 933 q 446 940 442 937 q 455 939 449 941 q 464 941 461 937 q 470 936 468 939 q 479 935 472 933 q 488 926 481 929 q 498 918 494 924 q 497 908 495 911 q 499 898 499 905 z "},"":{"ha":652,"x_min":42,"x_max":667,"o":"m 667 286 q 650 254 667 264 q 617 241 632 243 q 590 245 602 239 q 578 243 583 243 q 567 244 574 243 q 541 241 551 241 q 520 239 530 240 q 502 239 510 239 q 490 241 494 239 q 479 238 483 241 q 468 235 475 235 q 446 226 452 229 q 434 224 441 222 q 412 247 419 239 q 399 266 404 255 q 400 274 401 270 q 401 283 399 278 q 410 294 408 289 q 412 302 411 298 q 427 311 422 311 q 433 321 427 319 q 441 332 439 324 q 452 349 448 342 q 458 363 456 355 q 465 376 464 372 q 468 388 467 381 q 480 401 476 392 q 494 414 484 410 q 499 425 492 423 q 505 437 506 427 q 513 447 511 439 q 522 458 515 454 q 526 473 524 469 q 521 488 528 477 q 513 500 518 492 q 503 510 507 509 q 497 507 499 510 q 491 503 495 505 q 464 487 472 498 q 444 469 456 476 q 433 455 441 463 q 425 442 425 448 l 393 441 q 385 447 388 442 q 374 453 381 452 q 368 462 369 460 q 363 463 366 464 q 361 473 362 468 q 358 483 359 477 q 368 495 369 494 q 369 498 368 496 q 377 503 372 500 q 385 509 382 506 q 403 528 397 522 q 411 532 408 533 q 435 556 426 551 q 463 572 444 562 q 475 577 469 575 q 487 582 480 579 l 502 583 q 511 581 509 585 q 522 579 514 576 q 528 574 525 575 q 533 571 532 574 q 547 568 541 575 q 560 563 552 562 q 581 547 571 547 q 588 536 583 538 q 597 529 593 533 q 602 513 595 519 q 602 504 600 509 q 604 495 604 499 q 604 487 605 491 q 602 479 602 483 q 601 464 604 468 q 601 454 598 460 q 596 448 600 450 q 597 439 593 445 q 587 422 590 425 q 582 414 585 419 q 583 406 585 410 q 582 399 582 403 l 555 373 q 551 359 552 361 q 547 357 549 357 q 541 347 545 350 q 538 336 537 343 q 529 327 532 334 q 521 315 526 320 q 540 312 532 309 q 570 311 559 312 q 590 312 581 309 q 614 317 606 313 q 627 313 623 320 q 640 315 633 316 q 654 312 647 313 q 663 301 655 307 q 665 294 663 297 q 667 286 666 290 m 148 674 q 144 662 145 669 q 142 650 144 655 q 142 632 141 639 q 142 623 142 625 q 146 608 146 614 q 146 593 146 601 q 146 580 146 586 q 146 572 146 574 q 137 553 138 557 q 129 545 136 548 q 127 538 130 538 q 122 533 125 537 q 109 537 115 534 q 95 540 102 540 q 86 555 91 548 q 73 566 81 562 l 68 593 q 67 608 65 601 q 69 624 69 616 q 71 648 68 639 q 69 663 75 656 q 70 687 69 677 q 71 703 71 697 q 69 713 71 703 q 67 734 68 723 q 66 757 66 746 q 65 770 65 768 q 58 799 62 798 q 52 807 54 800 q 48 823 52 815 q 52 840 45 831 q 58 848 57 845 q 61 853 58 852 q 72 855 69 854 q 77 855 75 856 q 81 854 79 854 q 90 852 83 853 q 118 841 110 849 q 132 826 126 833 q 130 805 129 819 q 138 785 132 791 q 138 763 137 779 q 141 739 140 747 q 144 732 142 736 q 145 724 145 728 q 144 699 145 715 q 148 674 142 682 m 460 836 q 452 819 458 829 q 446 796 446 808 q 438 785 444 789 q 435 774 438 779 q 433 762 431 769 q 425 749 426 751 q 425 743 423 746 q 408 711 410 728 q 401 703 400 707 q 401 696 403 700 q 395 686 397 692 q 389 677 393 680 q 378 652 388 670 q 366 625 369 635 l 359 605 q 352 593 354 600 q 343 582 350 586 q 330 551 335 563 q 323 529 326 540 q 307 503 316 515 q 296 472 307 487 q 294 458 296 457 q 290 457 293 460 q 286 448 290 457 q 277 429 282 439 q 268 410 273 419 q 262 397 263 400 q 261 390 263 393 q 260 382 259 387 q 252 371 252 376 q 245 366 251 366 q 233 343 239 355 q 224 324 228 331 q 217 309 220 312 q 210 304 214 307 q 205 288 209 294 q 195 275 201 282 q 192 258 195 270 q 184 243 189 245 q 180 224 183 231 q 180 214 178 217 q 174 208 176 212 q 167 201 171 203 q 160 184 163 184 q 155 180 157 183 q 153 174 155 176 q 151 167 151 171 q 140 155 142 164 q 130 141 137 146 q 125 126 130 132 q 121 111 121 121 q 107 100 109 103 q 103 95 106 98 q 80 94 87 94 q 69 97 73 95 q 61 103 65 99 q 46 113 57 107 q 47 121 49 115 q 42 129 45 126 q 44 139 43 133 q 42 149 45 145 q 47 159 45 153 q 56 165 49 164 q 61 177 56 167 q 68 190 66 187 q 77 208 75 199 q 88 220 80 216 q 93 229 91 225 q 96 237 95 233 q 101 251 102 245 q 106 255 100 256 q 107 262 106 259 q 107 270 109 266 q 116 281 110 273 q 121 292 122 289 q 129 307 130 301 q 140 331 138 321 q 151 345 142 340 q 157 357 151 353 q 160 372 157 368 l 168 385 q 180 399 174 395 q 184 412 184 410 q 184 416 183 414 q 197 440 193 429 q 206 450 202 452 q 213 468 206 460 q 218 490 220 476 q 229 518 229 503 q 243 541 240 526 q 255 564 245 555 q 261 579 260 575 q 267 585 262 583 l 273 601 q 277 608 275 605 q 282 614 279 612 q 288 633 286 625 q 297 643 290 640 q 309 670 305 659 q 319 689 312 681 q 319 696 317 693 q 320 703 320 699 q 327 713 327 705 q 332 723 327 720 q 339 741 339 736 q 343 747 339 746 q 345 754 345 750 q 346 761 345 758 q 359 781 351 768 q 366 796 366 795 q 374 810 370 806 q 378 829 373 822 q 382 849 384 837 q 389 858 385 854 q 391 869 392 861 q 399 882 397 878 q 412 892 401 886 q 427 888 423 891 q 437 886 430 886 q 448 874 441 879 q 460 863 456 869 q 460 854 463 860 q 458 845 458 849 l 460 836 z "},"":{"ha":674,"x_min":42,"x_max":662,"o":"m 661 376 q 658 369 659 374 q 656 357 656 363 q 657 346 656 351 q 659 340 658 340 q 653 321 655 324 q 651 313 651 317 q 652 300 651 301 q 654 296 654 298 q 654 283 652 288 q 655 275 656 279 q 654 268 655 270 q 652 264 652 266 q 651 260 651 263 q 654 251 651 258 q 652 227 650 233 q 651 216 655 221 q 654 199 656 203 q 659 193 652 194 q 644 159 646 170 q 637 155 642 156 q 632 149 632 155 q 618 148 624 149 q 604 149 612 146 q 595 154 598 155 q 590 156 593 153 q 583 164 589 157 q 576 172 576 171 q 569 180 571 175 q 564 189 567 184 q 568 204 566 201 q 571 212 570 208 q 570 218 571 213 q 570 230 570 224 q 569 241 570 236 q 568 245 568 245 q 571 262 572 258 q 571 270 570 266 q 572 281 571 274 q 574 297 574 289 q 573 312 575 305 q 566 321 571 319 q 526 319 545 323 q 498 320 507 316 q 481 317 492 316 q 468 319 471 319 q 450 316 453 315 q 445 317 448 317 q 422 311 427 311 q 411 312 416 312 q 395 318 396 316 q 391 323 393 320 q 383 330 388 327 q 374 336 378 334 q 371 347 374 343 q 366 357 368 350 q 367 369 365 363 q 365 381 369 374 q 374 399 368 391 q 382 415 380 407 q 387 437 382 433 q 391 452 392 441 q 400 463 396 460 q 399 479 400 477 q 407 487 397 480 q 410 504 408 495 q 418 519 412 513 q 418 533 418 528 q 423 545 419 538 q 426 573 422 564 q 437 583 430 582 q 465 585 457 590 q 484 579 473 579 q 499 563 488 567 q 500 555 498 557 q 503 548 502 552 q 498 536 500 541 q 496 524 495 532 q 488 500 488 513 q 484 490 484 496 q 479 480 483 484 q 471 454 477 461 q 468 435 465 446 q 463 427 463 433 q 460 418 464 420 q 456 402 458 404 q 454 397 454 400 q 461 391 454 391 q 471 385 468 391 q 477 389 475 387 q 484 389 479 391 q 515 388 502 391 q 533 393 528 385 q 551 395 543 391 q 567 407 560 400 q 580 425 578 420 q 582 435 582 430 q 583 466 581 453 q 578 490 585 479 l 585 503 q 585 529 582 517 q 581 555 589 541 q 594 583 585 568 q 608 585 601 583 q 621 583 614 586 q 631 578 628 582 q 642 574 635 574 q 652 561 651 562 q 655 557 654 560 q 661 534 662 538 q 659 522 659 529 q 659 512 661 513 q 658 509 658 511 q 659 496 656 502 q 655 486 661 491 q 661 473 661 480 q 658 460 661 465 q 656 440 658 449 q 661 429 655 431 q 657 418 658 423 q 654 407 656 412 q 656 391 656 400 q 661 376 656 382 m 149 620 q 144 597 149 609 q 134 575 138 586 q 127 572 130 575 q 121 566 123 568 q 102 564 109 568 q 87 575 94 570 q 73 587 80 581 q 71 604 75 597 q 71 623 68 612 q 66 632 66 625 q 64 644 66 639 q 68 662 71 651 q 72 680 65 673 q 69 694 65 686 q 65 712 73 703 q 71 750 75 730 q 68 772 66 768 q 69 781 69 776 q 66 795 68 788 q 64 808 64 802 q 64 825 65 822 q 62 833 64 829 q 62 852 61 842 q 61 871 62 861 q 57 878 60 876 q 53 883 54 879 q 54 890 53 887 q 52 897 54 892 q 54 911 56 909 q 54 916 53 913 q 77 930 65 933 q 96 928 90 926 q 106 918 100 921 q 119 911 113 914 q 130 894 125 905 q 130 875 134 883 q 134 867 133 871 q 137 860 134 863 q 136 845 134 850 q 138 831 137 840 q 137 824 138 827 q 137 817 136 821 q 141 800 138 806 q 145 779 144 795 q 145 747 144 766 q 148 708 146 728 q 149 671 149 688 q 145 648 149 654 q 146 637 148 637 q 146 631 145 637 l 149 620 m 556 921 q 549 910 553 914 q 545 898 545 906 q 531 884 534 887 q 529 876 528 882 q 510 852 525 860 q 507 845 509 848 q 506 837 506 842 q 488 812 495 818 q 480 796 481 807 q 472 787 476 796 q 469 773 468 777 q 460 767 464 770 q 453 761 457 764 q 444 733 452 746 q 435 705 437 720 q 425 692 427 694 q 425 686 423 689 q 412 669 414 680 q 400 652 410 659 q 397 638 399 642 q 392 635 396 635 q 382 614 392 624 q 374 595 381 601 q 363 579 368 590 q 360 568 363 568 q 357 564 357 567 l 350 552 q 336 532 339 544 q 323 510 332 519 q 318 498 320 499 q 313 496 316 498 q 298 476 307 486 q 282 454 289 467 q 275 449 275 453 q 273 441 275 445 q 265 429 270 434 q 256 418 260 425 q 251 399 251 401 q 252 388 251 396 q 242 371 244 381 q 233 354 240 361 q 229 343 229 346 q 227 339 229 340 q 225 323 225 334 l 214 305 q 206 289 206 302 q 201 283 203 285 q 199 275 198 282 l 193 263 q 184 254 189 260 q 176 248 180 248 q 174 237 176 245 q 168 221 171 229 q 161 205 165 213 q 156 197 157 198 q 146 170 149 179 q 137 153 142 161 q 137 144 137 146 q 136 140 137 141 q 134 140 136 140 q 129 136 132 140 q 125 125 126 130 q 119 118 125 121 q 116 102 119 109 q 111 88 113 96 q 98 81 99 81 q 94 80 96 81 q 64 83 73 79 q 47 95 56 88 q 45 109 46 102 q 42 122 45 115 q 49 136 45 132 q 52 153 53 141 q 62 165 60 161 q 62 175 64 170 q 72 191 69 182 q 81 208 75 201 q 87 228 87 221 q 91 233 88 231 q 95 240 94 236 q 98 252 98 245 q 99 266 98 259 q 106 271 104 267 q 107 279 107 275 q 118 294 114 286 q 129 307 122 301 q 137 332 137 326 q 144 338 144 332 q 149 346 144 343 q 152 358 149 353 q 155 370 155 363 q 164 380 161 374 q 172 392 167 387 q 176 414 174 403 q 183 434 178 425 q 189 452 184 446 q 199 460 193 457 q 204 473 199 468 q 210 486 209 479 q 220 498 220 490 q 236 518 232 511 q 247 528 240 525 q 255 541 250 536 q 262 556 260 547 q 274 576 270 571 q 279 589 278 582 q 288 597 286 591 q 296 608 290 604 q 306 628 302 621 q 315 642 309 635 q 320 657 319 655 q 324 661 321 659 q 334 684 326 675 q 342 703 342 692 q 359 725 353 712 q 372 750 365 738 q 374 762 370 762 q 376 766 377 762 q 383 780 381 773 q 392 792 385 787 q 405 817 400 810 q 416 829 410 825 q 429 850 423 844 q 437 861 434 856 q 439 868 439 864 q 441 875 438 872 q 449 890 448 890 q 451 890 450 890 q 452 894 452 891 q 454 903 453 897 l 467 911 q 467 922 464 917 q 473 929 469 926 q 489 957 483 949 q 505 970 495 964 q 521 967 517 968 q 533 961 522 967 q 545 955 544 955 q 550 946 548 951 q 556 937 552 941 q 555 929 556 933 q 556 921 555 925 z "},"":{"ha":195,"x_min":42,"x_max":140,"o":"m 140 620 q 134 597 140 609 q 125 575 129 586 q 117 572 121 575 q 111 566 114 568 q 91 564 100 568 q 77 575 84 570 q 64 587 71 581 q 62 604 65 597 q 61 623 58 612 q 57 632 57 625 q 54 644 57 639 q 58 662 61 651 q 62 680 56 673 q 60 694 56 686 q 56 712 64 703 q 62 730 61 722 q 61 750 62 739 q 58 772 57 768 q 60 781 60 776 q 56 795 58 788 q 54 808 54 802 q 54 825 56 822 q 53 833 53 829 q 52 852 52 842 q 52 871 53 861 q 47 878 50 876 q 43 883 45 879 q 44 890 43 887 q 42 897 45 892 q 44 911 45 909 q 45 916 43 913 q 68 930 56 933 q 87 928 80 926 q 96 918 91 921 q 109 911 102 914 q 119 894 114 905 q 121 875 125 883 q 124 867 123 871 q 127 860 125 863 q 126 845 125 850 q 129 831 127 840 q 127 824 129 827 q 127 817 126 821 q 132 800 129 806 q 134 779 134 795 q 136 747 134 766 q 138 708 137 728 q 139 671 140 688 q 134 648 138 654 q 136 637 137 637 q 137 631 136 637 l 140 620 z "},"":{"ha":829,"x_min":27,"x_max":815,"o":"m 815 374 q 807 350 808 359 q 806 338 806 340 q 808 327 810 328 q 807 323 807 326 q 806 292 808 300 q 803 274 803 283 q 806 266 803 269 q 808 259 808 263 q 807 225 800 244 q 799 206 802 217 q 788 187 791 201 q 769 180 779 186 q 758 182 764 183 q 747 182 753 182 q 736 192 743 189 q 724 199 730 195 q 721 212 722 210 q 719 217 720 214 q 720 229 719 224 q 722 240 722 233 q 720 248 722 244 q 719 258 719 252 q 721 268 719 263 q 720 278 723 273 q 726 286 724 279 q 727 300 727 292 q 726 315 727 308 q 727 327 726 323 q 718 332 724 331 q 708 335 712 332 q 688 330 693 332 q 675 327 682 327 q 661 327 663 328 q 656 324 659 326 q 637 325 651 324 q 621 319 624 326 q 606 316 609 319 q 598 312 602 313 q 589 317 600 319 q 576 312 579 315 q 552 304 562 302 q 528 313 543 307 q 513 332 525 326 q 509 345 510 339 q 505 357 507 350 q 521 384 515 378 q 523 394 522 389 q 529 401 524 399 q 531 410 529 406 q 533 416 533 414 q 547 444 540 433 q 555 475 553 456 q 564 498 564 491 q 570 513 563 506 q 569 519 567 517 q 572 526 571 522 q 573 535 574 530 q 574 545 572 540 q 581 556 576 552 q 589 567 586 560 q 613 570 606 572 q 631 566 620 567 q 638 558 633 562 q 648 552 643 555 q 649 542 647 547 q 651 532 651 537 q 648 522 651 526 q 648 511 646 518 q 641 496 642 499 q 643 494 640 494 q 633 474 637 483 q 629 452 629 465 q 626 446 629 448 q 621 441 623 444 q 614 425 616 430 q 608 416 613 419 q 607 404 608 410 q 604 392 606 397 q 616 389 609 389 q 629 389 623 389 q 640 393 636 393 q 643 396 643 392 q 649 393 647 395 q 656 392 651 391 q 671 397 665 395 q 686 396 677 399 q 693 399 690 396 q 699 403 696 401 q 707 404 703 404 q 718 406 712 403 q 726 438 727 419 q 724 472 724 457 q 725 485 727 476 q 727 502 723 494 q 724 517 722 515 q 726 521 727 518 q 723 533 724 525 q 719 544 722 541 q 722 554 720 549 q 726 564 724 559 q 738 572 732 568 q 750 579 743 575 q 768 575 760 576 q 787 572 777 574 q 792 565 788 567 q 799 559 796 563 q 801 545 802 549 q 803 536 800 540 q 799 524 798 529 q 803 513 800 519 q 800 496 800 506 q 804 480 799 487 q 799 465 798 472 q 803 446 800 457 q 801 425 802 431 q 798 415 800 419 q 807 397 803 400 q 814 388 811 395 q 812 380 811 382 q 815 374 812 378 m 642 886 q 641 873 646 879 q 635 854 636 868 q 635 847 637 850 q 631 841 632 844 q 627 827 628 830 q 629 823 625 825 q 622 808 623 817 q 614 793 621 799 q 610 781 610 783 q 606 779 609 779 q 597 755 605 765 q 589 731 590 745 q 576 704 576 720 q 560 677 564 693 q 545 651 556 662 q 537 633 545 639 q 530 617 537 623 q 526 601 530 608 q 522 583 522 594 q 515 569 515 571 q 513 566 514 567 q 509 557 509 560 q 509 552 510 555 q 501 540 506 545 q 494 528 496 534 q 488 511 490 513 q 487 503 486 510 q 481 490 481 499 q 468 471 475 488 q 461 449 461 454 l 452 435 q 438 401 446 418 q 426 381 430 384 q 419 364 426 370 q 414 345 412 358 q 404 321 404 332 q 395 294 395 311 q 389 287 388 292 q 382 278 391 282 q 375 265 381 270 q 373 250 369 260 q 365 238 366 245 q 362 224 363 231 q 353 210 355 218 q 345 197 351 201 q 343 183 345 187 q 332 168 336 176 q 321 153 328 160 q 313 142 313 144 q 309 141 312 141 q 305 132 307 137 q 298 126 304 126 q 286 105 292 109 q 282 94 281 102 q 273 87 277 91 q 264 80 269 83 q 252 79 254 80 q 247 77 250 77 q 229 87 239 79 q 213 102 218 95 q 212 120 214 110 q 221 133 210 130 q 232 149 224 146 q 235 161 229 159 q 240 172 241 163 q 250 185 245 175 q 256 198 255 195 q 278 228 269 218 q 279 243 275 236 q 283 258 283 250 q 294 268 292 260 q 302 279 296 275 q 307 294 307 292 q 311 296 308 296 q 315 311 311 307 q 320 324 319 316 q 324 330 323 327 q 328 335 326 332 q 334 355 334 349 q 336 365 334 361 q 347 379 347 376 q 347 385 346 382 q 353 398 347 396 q 355 407 359 400 q 366 425 362 420 q 372 434 369 429 q 376 450 374 441 q 385 463 378 458 q 395 488 389 476 q 399 503 400 500 q 405 509 403 506 q 410 515 407 513 q 411 524 410 521 q 412 530 412 526 q 419 540 416 534 q 426 548 422 545 q 431 559 427 555 q 434 570 435 563 q 444 589 442 581 q 452 601 445 597 q 456 617 450 612 q 464 631 461 623 q 465 639 465 635 q 468 646 464 643 l 468 659 q 477 674 472 663 q 479 685 477 685 q 484 688 481 685 q 488 699 484 694 q 492 711 492 704 q 522 757 509 738 q 530 776 530 770 q 536 784 530 781 q 538 797 533 792 q 540 811 543 802 q 553 830 549 825 q 559 842 556 836 q 560 857 559 852 q 565 873 566 871 q 564 878 564 875 q 568 892 570 891 q 568 895 567 892 q 571 906 572 901 q 572 918 570 911 q 580 920 574 918 q 592 924 586 922 q 603 925 598 925 q 608 921 608 925 q 615 921 612 922 q 623 920 618 920 q 635 905 629 909 q 642 886 642 901 m 343 636 q 343 620 346 624 q 342 610 340 616 q 340 587 342 600 q 328 567 339 575 q 325 555 330 562 q 321 544 320 549 q 312 533 316 536 q 310 524 315 526 q 305 515 305 522 q 282 498 292 505 q 266 484 273 492 q 258 481 262 483 q 251 476 254 480 q 243 475 248 479 q 237 469 239 472 q 221 467 229 469 q 205 463 213 464 q 197 459 201 463 q 190 454 194 456 q 163 457 171 457 q 146 458 155 457 q 131 458 138 458 q 118 454 123 458 q 109 459 113 457 q 99 458 104 461 q 83 467 91 467 q 75 473 80 471 q 68 480 71 475 q 43 503 46 492 q 33 524 39 513 q 32 533 30 526 q 27 544 34 540 q 33 557 33 552 q 39 561 37 559 q 46 566 42 563 q 64 556 50 566 q 83 544 79 547 q 105 534 95 537 q 121 533 115 530 q 146 530 141 530 q 160 528 152 529 q 185 533 176 532 q 195 540 194 534 q 212 545 208 536 q 227 555 216 553 q 234 562 232 557 q 243 566 236 566 q 252 579 251 576 q 255 581 252 582 q 264 601 258 594 q 267 618 259 613 q 264 631 266 625 q 260 643 262 636 q 248 645 255 644 q 237 651 240 646 q 213 651 218 652 q 201 652 208 650 q 195 649 198 651 q 189 646 191 647 q 178 644 183 644 q 170 643 174 644 q 157 638 159 637 q 153 637 156 639 l 138 632 q 125 636 132 632 q 114 646 119 640 q 104 658 109 652 q 96 666 99 663 q 96 681 95 681 q 99 684 98 681 q 100 692 100 688 q 102 701 99 697 q 118 712 107 709 q 133 726 127 722 q 145 732 138 731 q 149 739 146 736 q 153 746 152 742 q 179 768 167 764 q 195 792 191 783 q 205 799 202 793 q 216 807 209 804 q 224 818 218 814 q 233 829 231 822 q 217 837 229 834 q 191 840 205 840 q 165 838 176 840 q 151 833 153 836 q 136 836 140 837 q 130 834 133 834 q 124 835 125 834 q 123 836 123 836 q 120 836 122 837 q 111 834 118 836 q 80 842 91 833 q 60 859 69 852 q 56 873 61 864 q 66 902 52 883 q 84 903 75 905 q 100 906 94 902 q 116 903 107 902 q 132 905 125 905 q 147 903 140 905 q 161 903 155 902 q 178 909 171 905 q 197 906 186 913 q 205 908 198 907 q 221 908 213 909 q 237 906 229 907 q 247 903 244 905 q 262 909 254 914 q 274 906 270 903 q 296 895 285 897 q 310 884 302 887 q 326 869 317 882 q 333 854 332 859 q 336 845 334 850 q 323 822 331 833 q 311 810 315 815 q 304 798 308 804 q 297 787 300 792 q 294 780 294 781 q 283 771 288 777 q 273 762 279 765 q 237 727 248 745 q 247 720 240 720 q 256 713 254 720 q 267 712 264 715 q 277 707 270 709 q 285 705 282 705 q 292 703 288 705 l 336 669 q 336 661 334 665 q 338 652 339 658 q 340 644 342 646 q 343 636 338 643 z "},"":{"ha":372,"x_min":27,"x_max":346,"o":"m 343 636 q 343 620 346 624 q 342 610 340 616 q 340 587 342 600 q 328 567 339 575 q 325 555 330 562 q 321 544 320 549 q 312 533 316 536 q 310 524 315 526 q 305 515 305 522 q 282 498 292 505 q 266 484 273 492 q 258 481 262 483 q 251 476 254 480 q 243 475 248 479 q 237 469 239 472 q 221 467 229 469 q 205 463 213 464 q 197 459 201 463 q 190 454 194 456 q 163 457 171 457 q 146 458 155 457 q 131 458 138 458 q 118 454 123 458 q 109 459 113 457 q 99 458 104 461 q 83 467 91 467 q 75 473 80 471 q 68 480 71 475 q 43 503 46 492 q 33 524 39 513 q 32 533 30 526 q 27 544 34 540 q 33 557 33 552 q 39 561 37 559 q 46 566 42 563 q 64 556 50 566 q 83 544 79 547 q 105 534 95 537 q 121 533 115 530 q 146 530 141 530 q 160 528 152 529 q 185 533 176 532 q 195 540 194 534 q 212 545 208 536 q 227 555 216 553 q 234 562 232 557 q 243 566 236 566 q 252 579 251 576 q 255 581 252 582 q 264 601 258 594 q 267 618 259 613 q 264 631 266 625 q 260 643 262 636 q 248 645 255 644 q 237 651 240 646 q 213 651 218 652 q 201 652 208 650 q 195 649 198 651 q 189 646 191 647 q 178 644 183 644 q 170 643 174 644 q 157 638 159 637 q 153 637 156 639 l 138 632 q 125 636 132 632 q 114 646 119 640 q 104 658 109 652 q 96 666 99 663 q 96 681 95 681 q 99 684 98 681 q 100 692 100 688 q 102 701 99 697 q 118 712 107 709 q 133 726 127 722 q 145 732 138 731 q 149 739 146 736 q 153 746 152 742 q 179 768 167 764 q 195 792 191 783 q 205 799 202 793 q 216 807 209 804 q 224 818 218 814 q 233 829 231 822 q 217 837 229 834 q 191 840 205 840 q 165 838 176 840 q 151 833 153 836 q 136 836 140 837 q 130 834 133 834 q 124 835 125 834 q 123 836 123 836 q 120 836 122 837 q 111 834 118 836 q 80 842 91 833 q 60 859 69 852 q 56 873 61 864 q 66 902 52 883 q 84 903 75 905 q 100 906 94 902 q 116 903 107 902 q 132 905 125 905 q 147 903 140 905 q 161 903 155 902 q 178 909 171 905 q 197 906 186 913 q 205 908 198 907 q 221 908 213 909 q 237 906 229 907 q 247 903 244 905 q 262 909 254 914 q 274 906 270 903 q 296 895 285 897 q 310 884 302 887 q 326 869 317 882 q 333 854 332 859 q 336 845 334 850 q 323 822 331 833 q 311 810 315 815 q 304 798 308 804 q 297 787 300 792 q 294 780 294 781 q 283 771 288 777 q 273 762 279 765 q 237 727 248 745 q 247 720 240 720 q 256 713 254 720 q 267 712 264 715 q 277 707 270 709 q 285 705 282 705 q 292 703 288 705 l 336 669 q 336 661 334 665 q 338 652 339 658 q 340 644 342 646 q 343 636 338 643 z "},"":{"ha":309,"x_min":0,"x_max":309,"o":"m 309 625 q 290 593 309 604 q 259 580 274 582 q 232 585 244 578 q 220 582 225 582 q 209 583 216 582 q 182 580 193 581 q 162 578 172 579 q 144 578 152 578 q 132 581 136 578 q 121 577 125 581 q 110 574 117 574 q 104 571 106 574 q 99 566 102 568 q 87 565 94 568 q 76 563 81 562 q 54 586 61 578 q 41 605 46 594 q 42 613 43 609 q 43 623 41 617 q 52 633 50 628 q 54 642 53 637 q 69 650 64 650 q 75 661 69 658 q 81 671 81 663 q 94 688 90 681 q 99 703 98 694 q 107 715 106 711 q 110 727 109 720 q 122 740 118 731 q 136 753 126 749 q 141 764 134 762 q 146 776 148 766 q 155 786 153 779 q 164 798 157 793 q 168 812 165 808 q 163 827 170 817 q 155 840 160 831 q 145 849 149 848 q 139 846 141 849 q 133 842 137 844 q 106 826 114 837 q 85 808 98 815 q 75 794 83 802 q 66 781 66 787 l 35 780 q 26 786 30 781 q 16 792 23 791 q 9 801 9 799 q 5 802 8 803 q 3 812 4 807 q 0 822 1 817 q 10 834 11 833 q 11 837 9 836 q 19 842 14 840 q 27 846 24 845 q 34 859 33 854 q 45 867 39 861 q 53 871 50 872 q 77 895 68 890 q 104 911 85 901 q 117 916 111 914 q 129 921 122 918 l 142 922 q 153 920 149 924 q 164 918 156 916 q 170 913 165 914 q 175 910 174 913 q 188 907 183 913 q 202 902 193 901 q 222 886 214 884 q 230 875 225 878 q 237 868 235 872 q 244 852 237 859 q 243 843 241 848 q 245 834 245 838 q 245 826 247 830 q 244 818 244 822 q 243 803 245 807 q 243 793 240 799 q 238 787 241 789 q 237 779 235 784 q 229 761 232 764 q 224 753 227 758 q 224 745 225 749 q 224 738 224 742 q 205 722 209 727 q 197 712 201 718 q 193 698 194 700 q 189 696 191 696 q 183 686 187 689 q 180 675 179 682 q 170 666 174 673 q 163 654 167 659 q 174 649 171 648 q 182 651 178 650 q 211 650 199 651 q 232 651 222 648 q 256 656 248 652 q 269 652 264 659 q 282 654 275 655 q 296 651 289 652 q 305 640 297 646 q 307 633 305 636 q 309 625 308 629 z "},"":{"ha":240,"x_min":68,"x_max":172,"o":"m 165 604 q 162 596 163 601 q 161 587 161 591 q 151 574 153 579 q 140 568 144 571 q 127 563 137 564 q 117 564 118 566 q 113 563 115 563 l 99 570 q 85 585 88 581 q 81 591 83 589 q 83 609 85 606 q 81 614 81 612 q 78 638 81 631 q 73 654 75 646 q 73 669 75 666 q 72 675 72 673 q 73 686 72 682 q 71 697 73 690 q 76 728 77 712 q 73 751 75 745 q 74 764 72 760 q 77 774 76 768 q 76 783 77 776 q 77 788 75 789 q 77 813 75 804 q 77 830 79 822 q 75 838 76 834 q 72 844 73 841 q 69 859 68 852 q 71 875 71 867 q 83 886 79 883 q 90 892 87 888 q 104 894 98 891 q 118 899 111 897 q 132 895 130 897 q 136 891 133 892 l 149 884 q 155 864 156 872 q 153 841 153 856 q 154 829 156 833 q 152 823 152 826 q 153 807 152 817 q 153 791 155 798 q 153 766 151 777 q 157 751 155 754 q 155 738 155 738 q 157 724 155 738 q 157 708 156 720 q 161 693 159 696 q 158 675 157 685 q 161 656 159 666 q 164 635 163 646 q 161 614 165 624 l 165 604 m 170 92 q 165 86 167 90 q 159 83 164 83 q 149 66 153 72 q 143 68 146 66 q 136 68 140 69 q 127 64 130 68 q 118 61 123 61 q 102 67 109 60 q 90 76 96 75 q 83 90 87 84 q 79 106 79 95 q 81 123 77 118 q 79 140 77 133 q 80 157 80 148 q 78 174 80 165 q 75 191 76 182 q 75 199 75 195 q 75 206 76 202 q 72 222 73 214 q 77 237 71 231 q 78 260 75 248 q 81 282 81 271 q 79 296 81 289 q 77 311 76 304 q 78 344 81 334 q 80 366 75 354 q 96 384 92 378 q 103 389 99 389 q 119 390 111 392 q 136 389 127 388 q 142 385 137 385 q 144 378 146 385 q 157 369 153 370 q 156 354 159 361 q 159 339 157 351 q 160 324 160 327 q 159 313 157 321 q 159 298 161 305 q 156 282 155 286 q 157 274 157 278 q 155 264 157 269 q 152 254 152 259 q 155 242 152 247 q 157 231 157 237 q 156 195 157 208 q 160 175 155 183 q 157 155 156 164 q 161 136 157 146 q 170 122 170 123 q 170 107 172 115 q 170 92 168 99 z "},"":{"ha":555,"x_min":14,"x_max":541,"o":"m 541 430 q 532 419 534 427 q 522 408 529 411 q 506 407 517 406 q 488 407 495 408 q 469 403 476 403 q 453 404 461 403 q 437 405 445 404 q 430 406 430 406 q 412 407 416 408 q 404 407 408 406 q 385 409 388 410 q 378 408 381 408 q 351 409 359 410 q 334 408 342 408 q 321 408 324 410 q 315 407 317 407 q 294 408 308 407 q 274 408 281 408 q 256 408 262 407 q 244 408 251 408 q 233 406 237 408 q 221 406 228 404 q 207 408 214 406 q 193 407 199 410 q 186 404 187 404 q 179 403 186 403 q 157 408 164 408 q 144 410 151 408 q 119 404 127 403 q 104 406 111 406 q 97 403 100 404 q 91 401 94 401 q 79 403 88 401 q 66 407 69 404 q 47 408 52 403 q 37 412 42 414 q 31 423 35 419 q 20 430 26 427 q 18 443 19 437 q 14 454 18 449 q 23 469 16 464 q 37 480 30 475 q 77 477 57 475 q 118 477 98 480 q 132 474 126 476 q 145 473 137 472 q 154 477 151 475 q 163 479 157 479 q 174 477 170 479 q 186 473 179 475 q 203 476 198 476 q 212 473 208 476 q 225 477 221 477 q 232 476 229 476 q 247 477 240 476 q 262 477 254 477 q 270 478 264 480 q 281 480 275 476 q 298 478 298 475 q 301 480 297 481 q 322 477 309 479 q 342 481 335 475 q 353 480 347 480 q 365 479 358 480 q 378 480 374 479 q 385 481 381 481 q 401 479 388 481 q 415 477 414 477 q 425 481 420 477 q 434 486 429 484 q 453 484 444 487 q 472 488 463 481 q 484 487 479 486 q 496 487 490 488 q 506 484 502 486 q 515 479 510 481 q 524 476 518 477 q 533 471 530 475 q 539 452 537 464 q 541 430 541 439 z "},"":{"ha":457,"x_min":12,"x_max":444,"o":"m 442 637 q 442 627 441 633 q 441 617 444 620 q 426 601 431 601 q 418 591 423 594 q 410 583 414 587 q 393 564 407 566 q 390 557 391 562 q 382 555 389 553 q 366 530 376 541 q 349 506 355 519 q 336 493 340 496 q 331 484 332 490 q 318 471 320 476 q 311 464 316 467 q 304 450 309 456 q 296 438 300 445 q 302 425 300 426 q 305 418 304 425 q 311 413 308 415 q 317 408 315 411 q 330 399 324 399 q 336 385 332 392 q 346 376 339 378 q 352 363 349 365 q 358 359 355 362 q 372 342 365 345 q 384 336 380 339 q 391 321 385 326 q 399 308 396 316 q 410 301 410 302 q 415 297 410 300 q 419 284 419 286 q 422 281 419 282 q 416 269 420 274 q 410 255 411 263 q 391 241 399 247 q 381 241 385 241 q 373 239 377 241 q 366 245 369 243 q 357 250 363 248 q 349 260 351 258 q 343 262 346 262 q 311 296 320 281 q 293 316 302 312 q 286 327 289 328 q 279 326 282 326 q 270 339 277 338 q 263 353 264 351 q 262 357 262 354 q 256 363 259 359 q 251 373 252 368 q 234 374 235 377 q 231 368 233 370 q 216 357 224 368 q 205 347 208 346 q 201 340 202 345 q 197 334 199 336 q 189 330 193 331 q 183 323 184 330 q 170 310 174 312 q 167 302 167 308 q 156 292 160 294 q 149 282 152 289 q 140 270 141 273 q 138 263 138 267 q 131 254 136 260 q 129 243 126 247 q 118 238 121 241 q 113 233 115 235 q 99 228 111 232 q 85 224 87 224 q 67 234 81 224 q 50 247 53 244 q 45 258 45 258 q 47 262 46 259 q 44 278 43 275 q 49 281 45 281 q 54 294 49 288 q 60 311 58 301 q 71 317 66 313 q 80 324 75 321 q 90 340 87 336 q 98 347 94 345 q 108 361 104 357 q 118 369 111 366 q 125 382 118 374 q 140 397 132 389 q 155 412 148 404 q 164 423 163 419 q 168 451 178 444 q 148 464 159 458 q 144 471 145 468 q 140 477 142 473 q 134 482 137 480 q 127 486 130 484 q 109 512 119 500 q 95 522 99 524 q 90 531 94 529 q 85 540 85 533 q 74 551 75 549 q 71 553 73 553 q 58 574 71 567 q 49 591 53 589 q 42 600 45 593 q 37 600 39 597 q 28 601 34 602 q 24 616 26 608 q 16 627 23 624 q 15 640 18 629 q 16 659 12 651 q 28 666 28 666 q 39 668 37 669 q 45 667 42 667 q 69 665 58 669 q 87 655 80 662 q 97 648 95 650 q 102 646 99 646 q 107 633 103 637 q 116 623 111 628 q 124 614 121 618 q 127 601 127 609 q 134 595 130 597 q 137 586 138 593 q 145 579 141 583 q 155 572 149 575 q 161 560 156 564 q 170 549 167 556 q 185 536 180 540 q 197 530 190 533 q 203 519 198 524 q 210 510 208 515 q 231 496 220 506 q 240 504 237 498 q 250 511 243 510 q 252 517 250 515 q 254 525 255 519 q 273 543 266 534 q 283 553 279 552 q 292 566 292 563 q 296 574 293 568 q 306 585 300 581 q 312 598 312 589 q 326 612 317 601 q 334 618 332 613 q 343 624 336 623 q 354 639 346 633 q 366 652 362 644 q 382 658 380 655 q 388 662 385 661 q 415 665 411 669 q 431 658 419 662 q 442 637 437 646 z "}," ":{"ha":403,"x_min":0,"x_max":0,"o":""},"!":{"ha":248,"x_min":68,"x_max":179,"o":"m 178 288 q 172 273 175 279 q 170 256 170 266 q 164 250 165 254 q 160 243 163 245 q 149 240 149 239 q 145 240 148 241 q 138 239 141 237 q 132 240 136 241 q 110 242 117 240 q 96 245 103 244 q 87 261 92 254 q 87 279 83 269 q 81 293 79 288 q 81 300 83 298 q 84 308 83 305 q 83 316 85 311 q 83 326 84 324 q 81 330 81 327 q 82 341 83 340 q 81 343 81 342 q 81 361 80 357 q 81 369 81 365 q 80 385 81 377 q 79 400 79 392 q 79 410 81 404 q 77 420 77 416 q 79 437 80 429 q 79 457 79 446 q 78 477 79 468 q 77 490 77 487 q 80 513 77 506 q 77 529 83 521 q 81 572 79 555 q 81 609 84 590 q 80 627 79 624 q 81 633 81 631 q 79 648 83 642 q 75 662 76 655 q 77 670 75 666 q 80 678 79 674 q 79 687 77 682 q 81 697 81 692 q 79 709 81 704 q 79 720 77 713 q 80 728 79 724 q 83 735 81 731 q 79 760 76 746 q 81 784 83 773 q 79 802 79 799 q 80 810 80 806 q 79 817 80 812 q 79 825 77 821 q 81 833 79 830 q 81 844 83 837 q 77 858 80 850 q 75 873 75 865 q 72 898 76 891 q 71 916 68 905 q 81 929 77 926 q 90 935 85 932 q 96 934 92 935 q 103 937 100 933 q 123 941 118 936 q 135 937 127 941 q 145 929 142 932 l 156 921 q 161 903 160 907 q 159 898 161 899 q 161 870 160 882 q 164 852 161 859 q 161 841 160 846 q 161 830 161 836 q 161 816 160 818 q 161 811 163 814 q 159 801 161 806 q 157 791 157 796 q 160 768 161 774 q 160 755 159 762 q 164 742 161 750 q 163 722 164 731 q 167 703 161 712 q 164 688 163 696 q 161 674 165 681 q 165 660 164 667 q 161 646 165 652 q 168 613 165 624 q 168 591 170 602 q 166 578 167 585 q 168 564 165 571 q 168 533 172 547 q 170 507 163 519 q 168 498 167 503 q 165 488 168 492 q 168 479 168 483 q 165 471 167 476 q 166 445 168 458 q 165 419 164 431 q 170 397 174 403 q 170 388 167 391 q 171 374 171 378 q 169 362 171 368 q 168 350 167 357 q 172 326 170 335 q 170 304 174 317 q 173 295 172 300 q 178 288 174 290 m 178 114 q 174 106 178 110 q 167 100 170 103 q 163 94 164 98 q 159 88 161 91 q 145 83 152 88 q 133 85 138 79 q 109 87 115 83 q 95 96 102 92 q 90 108 94 103 q 87 121 85 113 q 81 136 81 126 q 91 148 81 145 q 102 161 98 160 q 110 165 107 161 q 117 165 114 164 q 123 164 121 165 q 134 168 132 171 q 138 165 137 165 q 157 158 153 163 q 168 152 161 153 q 177 129 175 137 q 178 114 179 121 z "},"\"":{"ha":294,"x_min":27,"x_max":267,"o":"m 267 774 q 261 749 260 764 q 263 723 262 735 q 262 712 264 716 q 259 703 260 708 l 259 689 q 258 665 260 673 q 258 648 256 656 q 264 622 266 629 q 263 606 263 614 q 252 597 256 600 q 245 590 248 594 q 231 590 237 593 q 218 585 225 587 q 206 589 206 587 q 205 591 206 590 q 189 598 194 597 q 184 619 183 612 q 186 640 186 627 q 186 651 184 648 q 187 656 187 654 q 186 672 187 663 q 186 688 186 681 q 189 711 190 700 q 184 724 187 722 q 186 738 186 736 q 184 750 187 739 q 184 766 186 754 q 180 780 183 777 q 184 797 184 788 q 182 815 183 806 q 180 834 180 825 q 182 853 179 844 q 182 871 182 867 q 182 879 182 876 q 193 892 191 886 q 203 898 199 895 q 214 902 206 901 q 226 901 225 899 q 229 901 227 902 l 244 895 q 255 882 252 886 q 258 875 258 878 q 256 857 255 860 q 258 852 258 854 q 260 829 256 837 q 264 815 263 822 q 264 801 263 804 q 266 795 266 798 q 265 784 266 788 q 267 774 264 780 m 115 621 q 113 606 113 617 q 102 593 104 598 q 92 588 95 591 q 80 585 88 585 q 68 585 69 586 q 65 585 68 585 l 50 590 q 39 605 42 601 q 37 610 37 609 q 38 628 39 625 q 37 633 37 631 q 35 656 38 648 q 30 670 31 663 q 31 685 33 682 q 28 692 28 688 q 30 701 28 697 q 27 711 31 705 q 33 736 34 723 q 31 762 33 750 q 33 774 31 770 q 35 784 34 777 l 35 798 q 36 821 34 812 q 37 837 38 829 q 30 864 28 856 q 31 879 31 872 q 42 888 38 886 q 49 895 46 891 q 64 895 57 892 q 77 901 71 898 q 88 897 88 898 q 91 895 88 895 q 98 891 94 892 q 106 887 102 890 q 110 867 111 875 q 109 846 109 859 q 109 834 110 837 q 107 829 107 831 q 108 813 107 822 q 109 798 109 804 q 106 774 104 785 q 110 761 107 764 q 108 748 109 750 q 110 735 107 746 q 110 720 109 731 q 114 707 111 709 q 112 670 106 690 q 113 632 118 650 l 115 621 z "},"#":{"ha":574,"x_min":-42,"x_max":643,"o":"m 643 537 q 638 519 643 526 q 631 503 633 513 q 606 494 618 498 q 582 487 594 491 q 574 490 576 488 q 566 488 572 492 q 553 492 560 490 q 541 491 545 495 q 522 494 532 491 q 498 489 510 488 q 484 494 487 490 q 469 492 477 491 q 457 487 460 492 q 456 475 460 480 q 449 465 452 471 q 448 455 449 460 q 448 445 446 450 q 441 438 442 442 q 437 431 441 434 q 433 410 437 420 q 429 388 429 399 q 418 368 422 373 q 418 361 415 363 q 431 357 425 358 q 445 358 438 355 q 462 362 457 363 q 471 362 467 361 q 483 365 477 362 q 495 365 488 368 q 511 371 502 369 q 526 369 519 373 q 552 364 541 372 q 574 349 563 357 q 576 340 572 343 q 579 331 579 336 q 575 319 579 324 q 570 308 571 315 q 552 296 560 307 q 509 297 530 300 q 465 297 488 294 q 458 295 460 298 q 452 292 456 292 q 444 294 448 292 q 434 296 439 296 q 412 293 418 292 q 403 292 407 294 q 389 269 392 285 q 384 241 385 252 q 372 214 376 220 q 371 202 370 208 q 363 195 372 197 q 353 174 361 180 q 351 157 354 163 q 344 147 349 151 q 334 142 339 144 q 327 137 330 140 q 309 139 320 137 q 292 144 298 141 q 280 151 282 152 q 275 153 278 151 q 274 170 273 161 q 274 187 275 179 q 282 200 281 193 q 289 214 283 208 q 293 229 292 221 q 296 243 294 236 q 305 264 300 258 q 307 280 305 278 q 312 285 309 282 q 292 295 301 297 q 275 293 283 293 q 258 294 273 296 q 240 292 244 292 q 225 290 231 292 q 214 288 220 289 q 207 288 210 288 q 199 289 203 289 q 192 288 195 289 q 184 288 189 288 q 174 290 179 289 q 164 288 170 290 q 154 263 159 271 q 151 245 149 255 q 140 233 142 243 q 137 216 137 224 q 130 202 133 209 q 122 189 126 195 q 121 179 123 182 q 118 171 119 176 q 104 166 111 170 q 92 165 96 163 q 65 169 73 165 q 54 176 57 172 q 49 183 50 179 q 42 190 47 187 q 47 203 46 195 q 54 214 47 212 q 57 227 54 221 q 60 239 60 232 q 71 262 69 252 q 75 282 72 271 q 54 289 66 289 q 34 285 42 289 q 18 285 20 286 q 14 283 16 283 q 4 286 8 283 q -7 286 0 288 q -24 298 -14 294 q -42 313 -35 302 q -39 324 -41 320 q -38 335 -38 328 q -26 346 -31 342 q -18 353 -22 350 q -8 353 -12 350 q 3 353 -4 355 q 14 350 9 351 q 19 351 18 349 q 33 350 28 349 q 43 351 38 351 q 56 348 53 346 q 62 351 60 350 q 80 349 66 351 q 98 355 94 346 q 102 370 103 366 q 103 376 102 373 l 113 395 q 113 403 114 399 q 114 412 113 407 q 119 421 117 418 q 121 431 121 425 q 127 449 126 445 q 129 458 129 453 q 136 467 134 461 q 141 477 137 473 q 145 495 141 487 q 132 495 141 498 q 121 499 123 492 q 109 494 113 495 q 102 493 104 492 q 98 494 100 494 q 87 495 95 495 q 73 493 79 495 q 63 490 68 491 q 52 489 58 488 q 33 494 45 490 q 19 501 24 496 q 5 509 14 506 q 2 520 1 514 q 3 532 3 526 q 15 545 9 536 q 33 550 30 551 q 41 549 37 549 q 48 553 46 551 q 58 553 50 555 q 99 555 83 557 q 126 563 115 552 q 163 560 151 562 q 172 585 172 575 q 179 598 172 594 q 186 627 184 616 q 194 647 187 639 q 199 667 197 661 q 201 680 202 673 q 208 688 205 684 q 214 696 212 692 q 226 697 220 696 q 235 704 232 699 q 241 703 239 705 q 248 700 244 701 q 271 671 267 690 q 266 640 275 651 q 260 621 264 628 q 252 604 256 613 q 252 589 254 590 q 248 586 250 587 q 245 574 247 579 q 241 562 244 568 q 255 558 245 556 q 269 555 264 560 q 291 558 277 559 q 317 560 305 557 q 323 558 320 560 q 331 556 327 556 q 350 560 347 560 q 355 556 353 560 q 377 559 366 559 q 399 557 388 559 q 407 570 406 562 q 407 586 408 579 q 412 593 410 590 q 416 601 415 597 q 418 614 419 608 q 419 627 418 620 q 424 637 422 636 q 426 643 426 639 q 426 668 423 658 q 433 684 429 678 q 445 683 438 681 q 458 685 452 685 q 482 687 473 690 q 496 680 491 684 q 506 661 509 673 q 510 640 503 648 q 501 627 503 633 q 495 613 499 620 q 495 600 498 608 q 488 589 492 591 q 489 579 491 585 q 486 570 487 574 q 496 562 492 566 q 509 562 499 559 q 522 563 519 562 q 530 560 524 564 q 550 560 541 560 q 570 563 559 560 q 584 559 575 556 q 601 557 593 562 q 608 559 605 557 q 614 563 610 562 q 631 545 629 556 q 637 543 635 545 q 643 537 640 540 m 378 491 q 347 492 363 491 q 315 487 330 494 q 299 491 307 494 q 283 487 292 488 q 273 488 278 487 q 262 488 267 488 q 254 488 258 490 q 244 486 250 486 q 236 488 240 486 q 227 491 232 491 q 216 473 216 486 q 208 453 217 460 q 204 438 209 450 q 198 419 199 426 q 194 405 194 410 q 193 397 194 400 q 189 387 189 391 q 189 380 190 382 q 181 361 183 366 q 182 353 179 357 q 202 355 191 351 q 218 351 208 349 q 235 355 228 353 q 250 353 243 351 q 264 356 256 354 q 279 360 273 358 q 288 362 286 362 q 302 362 300 361 q 307 363 304 363 q 319 361 313 361 q 332 362 326 361 q 339 373 338 366 q 345 387 340 380 q 352 408 349 401 q 358 422 355 415 q 358 428 357 425 q 357 435 359 431 q 362 446 359 445 q 362 450 365 448 q 366 456 363 450 q 371 468 369 461 q 375 481 373 475 q 378 491 377 488 z "},"$":{"ha":665,"x_min":-5,"x_max":650,"o":"m 650 787 q 648 774 647 777 q 646 766 650 770 q 642 745 646 749 q 639 731 637 741 q 629 716 631 727 q 620 700 627 705 q 617 688 621 697 q 608 669 613 680 q 597 648 602 658 q 591 633 591 637 q 578 614 583 618 q 576 604 574 610 q 562 578 568 582 q 549 566 555 574 q 531 567 538 568 q 514 566 524 566 q 501 575 503 574 q 496 578 499 576 q 490 597 494 589 q 490 618 486 606 q 504 640 498 631 q 510 659 510 648 q 521 672 514 658 q 528 690 528 686 q 514 698 522 696 q 505 713 506 700 q 484 722 494 718 q 463 731 473 726 q 452 735 453 734 q 449 738 452 736 q 440 738 445 735 q 434 742 435 741 l 420 742 q 413 749 418 746 q 406 755 408 751 q 386 757 396 758 q 366 758 376 755 q 363 745 362 754 q 359 732 365 735 q 361 720 362 720 q 359 716 359 719 q 360 702 361 705 q 359 696 359 699 q 364 680 365 685 q 369 671 363 674 q 371 661 370 666 q 374 648 372 655 q 374 623 373 631 q 374 605 376 614 q 372 598 373 602 q 370 591 370 594 q 370 578 372 581 q 369 572 369 575 q 370 558 369 566 q 370 544 370 551 q 372 531 368 540 q 378 517 376 522 q 389 513 385 515 q 400 509 393 510 q 413 509 406 507 q 426 507 420 510 q 437 501 433 505 q 449 496 442 498 q 463 479 454 486 q 481 468 472 473 q 495 456 486 460 q 503 446 496 449 q 513 435 509 442 q 525 425 525 430 q 534 416 532 420 q 544 408 537 411 q 548 398 547 399 q 552 395 549 397 q 559 380 557 381 q 562 377 562 380 q 564 364 566 365 q 563 361 563 363 q 566 355 564 357 q 566 347 568 353 q 568 333 570 336 q 570 326 567 330 q 575 312 574 319 q 579 298 576 305 q 572 281 574 292 q 568 262 571 270 q 553 238 559 243 q 549 220 548 233 q 541 210 547 218 q 534 199 534 202 q 526 195 526 197 q 524 191 526 193 q 511 182 514 187 q 505 174 507 176 q 487 171 498 172 q 473 161 476 170 q 463 162 469 164 q 452 157 457 160 q 441 151 446 153 q 431 149 435 148 q 402 138 411 141 q 382 133 393 136 q 384 124 380 126 q 388 117 388 122 q 387 109 385 114 q 391 103 388 104 q 388 79 384 92 q 392 56 392 66 q 392 26 395 37 q 396 12 389 16 q 391 1 391 8 q 387 -14 391 -7 l 387 -27 q 372 -38 378 -35 q 359 -43 366 -41 q 348 -43 353 -43 q 339 -49 343 -43 q 329 -45 334 -45 q 317 -42 324 -45 q 312 -31 316 -35 q 307 -22 308 -27 q 307 -8 308 -9 q 305 -4 305 -7 q 305 12 304 3 q 300 28 307 20 q 302 37 300 34 q 300 46 304 41 q 300 93 298 73 q 297 132 301 113 q 281 138 293 137 q 264 134 270 138 q 252 138 258 137 q 240 134 247 138 q 213 142 227 137 q 199 152 203 152 q 191 157 194 152 l 167 161 q 161 168 164 165 q 159 176 159 171 q 143 185 152 182 q 127 195 134 189 q 115 200 117 198 q 114 208 113 202 q 104 216 111 214 q 95 222 98 217 q 88 209 84 220 q 92 194 92 198 q 76 181 80 184 q 69 175 72 178 q 41 172 50 172 q 26 179 31 172 q 20 184 22 182 q 12 186 18 187 q 1 210 8 197 q 5 235 -5 224 q 9 252 9 245 q 8 260 9 258 q 18 270 15 263 q 23 283 20 277 q 35 300 31 298 q 37 309 38 302 q 42 317 41 312 q 46 326 43 321 q 54 337 53 336 q 57 340 56 338 q 64 353 61 347 q 71 366 66 359 q 75 372 71 366 q 85 383 80 377 q 94 395 90 389 q 99 403 99 401 q 110 408 104 406 q 119 414 115 410 q 133 416 125 411 q 141 412 141 422 q 155 407 149 412 q 170 401 160 401 q 179 387 182 389 q 176 382 176 385 q 170 361 175 368 q 159 347 164 354 q 146 331 153 342 q 140 317 140 320 q 150 287 148 300 q 163 271 152 274 q 180 245 172 251 q 202 237 189 239 q 209 229 205 232 q 214 220 213 225 q 227 214 221 217 q 235 205 232 212 q 252 201 244 205 q 267 203 263 205 q 273 202 270 202 q 281 204 277 202 q 290 203 286 206 q 294 211 293 205 q 296 225 296 217 q 296 241 296 233 q 296 252 296 250 q 296 265 294 262 q 298 273 298 269 q 297 280 298 277 q 297 288 296 283 q 298 307 300 302 q 297 316 297 311 q 299 337 301 332 q 297 347 297 342 q 297 362 298 361 q 296 366 296 363 q 296 373 294 369 q 297 381 297 377 q 295 414 294 400 q 290 437 296 427 q 292 454 293 446 q 290 471 290 461 q 273 472 283 480 q 251 479 266 480 q 228 486 236 479 q 210 491 212 488 q 201 491 205 488 q 193 495 197 494 q 171 498 175 496 q 160 500 167 500 q 144 506 146 503 q 140 513 141 509 q 126 514 134 511 q 116 530 123 524 q 104 548 109 537 q 80 579 90 570 q 78 603 79 591 q 75 627 77 614 q 79 646 84 639 q 73 663 75 652 q 77 685 75 674 q 81 705 79 694 q 91 720 88 712 q 100 735 94 728 q 111 752 109 749 q 114 760 113 755 q 123 770 122 765 q 137 779 132 773 q 149 791 142 784 q 163 798 153 795 q 179 803 172 800 q 203 810 194 812 q 220 817 209 817 q 237 821 231 817 q 248 820 243 821 q 256 825 254 819 q 265 822 259 822 q 274 822 271 822 q 281 845 282 837 q 281 861 281 853 q 275 873 278 867 q 278 886 273 879 q 273 901 271 899 q 274 905 274 902 l 270 922 q 270 937 271 933 q 270 943 269 940 q 270 958 269 954 q 273 968 271 963 q 282 973 277 971 q 290 979 288 975 q 306 980 301 979 q 313 983 311 981 q 323 980 319 982 q 334 978 327 978 q 342 969 338 974 q 351 962 346 964 q 351 949 351 959 q 351 928 350 939 q 353 908 351 917 q 357 898 354 899 q 359 880 355 884 q 357 869 362 875 q 363 849 363 859 q 362 829 363 840 q 374 823 366 822 q 387 819 381 825 q 407 821 401 826 q 422 812 412 817 q 434 809 426 810 q 445 803 442 808 q 461 800 454 804 q 477 795 468 795 q 486 788 484 787 q 490 788 487 789 q 500 785 496 783 q 506 781 503 787 q 513 780 510 781 q 519 779 517 779 q 526 774 524 776 q 533 770 528 772 q 545 760 541 764 q 551 751 548 757 q 564 764 562 751 q 566 784 566 776 q 574 802 571 799 q 578 812 576 806 q 589 826 587 819 q 599 829 595 826 q 609 834 602 831 q 631 818 621 826 q 643 807 640 810 q 646 791 646 793 q 650 787 647 788 m 292 616 q 290 624 290 621 q 290 633 289 627 q 288 665 283 646 q 278 686 279 670 q 279 708 277 701 q 276 714 278 711 q 274 722 274 718 q 277 734 278 726 q 279 749 277 742 q 264 751 271 751 q 248 751 256 751 q 237 745 244 746 q 224 743 231 745 l 209 738 q 199 728 202 734 q 187 722 197 722 q 184 711 190 712 q 180 703 178 711 q 165 680 171 685 q 157 669 160 675 q 157 651 159 666 q 161 625 155 636 q 157 609 155 621 q 168 597 160 597 q 176 578 171 579 q 179 567 180 576 q 195 560 183 566 q 210 552 208 555 q 228 548 221 555 q 239 547 235 551 q 250 541 244 543 q 257 541 254 540 q 264 543 260 543 q 273 540 270 543 q 282 538 277 537 q 285 568 286 555 q 288 593 283 581 q 290 604 290 602 q 289 608 289 605 l 292 616 m 488 330 q 481 357 486 349 q 479 373 476 366 q 471 378 473 376 q 463 382 468 381 q 458 391 463 385 q 452 400 454 397 q 440 405 441 403 q 437 404 439 407 q 424 421 429 414 q 411 431 419 429 q 407 440 411 435 q 397 447 403 445 q 386 448 392 449 q 377 438 380 446 q 378 410 377 420 q 382 392 380 399 q 382 376 381 380 q 385 370 382 373 q 381 363 384 366 q 378 355 378 359 q 382 330 380 338 q 382 315 384 321 q 385 301 385 307 q 383 294 385 297 q 380 288 381 290 q 382 275 380 281 q 382 263 384 270 q 380 229 381 240 q 385 209 378 217 q 402 213 392 212 q 415 221 412 214 q 436 228 430 225 q 446 235 442 231 q 454 243 450 239 q 467 254 457 247 q 470 261 467 259 q 472 270 473 263 q 479 278 479 271 q 487 288 480 285 q 488 304 484 290 q 488 330 491 319 z "},"%":{"ha":742,"x_min":11,"x_max":742,"o":"m 359 716 q 354 700 357 704 q 347 680 347 693 q 339 662 347 667 q 336 644 342 648 q 330 628 330 639 q 319 620 323 623 q 313 614 316 617 q 302 610 304 613 q 297 605 300 608 q 285 596 290 597 q 271 590 279 595 q 260 587 262 585 q 254 586 258 589 q 239 578 245 585 q 231 577 235 581 q 224 572 228 574 q 210 570 216 572 q 197 568 206 568 q 178 567 189 567 q 159 568 168 567 q 148 570 151 568 q 136 574 140 574 q 132 576 133 574 q 125 575 127 576 q 118 575 122 574 q 90 587 102 585 q 69 595 77 590 q 55 610 61 604 q 41 620 49 616 q 30 632 38 631 q 27 640 30 637 q 22 647 24 643 q 22 665 24 655 q 14 682 20 675 q 14 726 18 708 q 23 754 11 743 q 22 765 20 758 q 22 776 23 772 q 35 787 33 784 q 37 796 37 789 q 45 807 41 803 q 49 819 49 811 q 58 823 50 819 q 72 830 65 826 q 85 838 79 834 q 91 842 91 841 q 98 845 95 842 q 104 846 100 848 q 116 855 109 853 q 126 864 123 857 q 144 868 137 864 q 156 869 156 867 q 159 873 156 872 q 182 873 168 876 q 203 882 197 871 q 224 880 214 882 q 244 879 233 878 q 266 871 254 871 q 274 865 271 867 q 283 863 277 863 q 291 855 288 859 q 300 850 294 852 q 308 840 302 844 q 316 829 313 836 q 323 824 319 826 q 327 815 327 822 q 342 803 335 807 q 343 793 339 796 q 351 787 347 789 q 353 778 350 780 q 358 770 355 776 q 358 760 355 764 q 359 750 361 755 q 357 729 355 735 q 359 716 359 723 m 273 743 q 271 753 273 749 q 271 762 270 757 q 260 781 264 770 q 247 798 255 791 q 235 810 240 808 q 227 814 231 811 q 216 813 221 814 q 206 812 212 812 q 186 810 190 810 q 178 806 182 810 q 166 804 167 806 q 163 802 165 803 q 150 795 156 799 q 140 792 144 791 q 127 780 137 788 q 113 772 117 772 q 102 760 102 761 q 99 757 103 760 q 90 734 92 742 q 88 720 88 727 q 89 713 88 718 q 90 707 90 709 q 88 696 90 700 q 87 685 87 692 q 91 670 90 674 q 91 663 92 666 q 95 658 94 661 q 98 651 96 655 q 110 648 104 650 q 122 644 115 646 q 129 644 125 643 q 136 644 133 644 q 166 642 160 639 q 183 648 172 646 q 200 652 190 651 q 217 656 210 654 q 225 663 224 663 q 229 663 227 662 q 242 673 235 670 q 256 684 250 677 q 258 693 255 690 q 260 701 260 696 q 269 728 266 723 q 273 743 271 734 m 742 307 q 739 288 739 297 q 736 269 739 278 q 736 255 739 256 q 731 251 734 254 q 724 233 730 240 q 718 218 719 227 q 707 198 709 209 q 701 194 703 197 q 696 190 700 191 q 691 182 696 183 q 686 175 686 180 q 676 171 680 174 q 666 167 673 168 q 637 151 651 151 q 631 145 635 148 q 625 141 628 142 q 600 134 613 140 q 583 126 586 129 q 561 127 570 126 q 545 129 552 129 q 536 130 544 127 q 518 136 528 132 q 501 144 509 140 q 492 152 494 149 q 485 153 488 151 q 477 153 481 156 q 454 184 472 164 q 426 214 435 203 q 422 227 426 222 q 415 237 419 231 q 416 258 418 247 q 422 275 415 269 q 428 301 420 293 q 438 324 435 309 q 450 338 448 331 q 458 349 452 346 q 467 363 465 359 q 472 366 469 366 q 482 377 477 374 q 490 387 487 380 q 513 401 505 389 q 527 403 519 401 q 538 411 534 404 q 547 412 545 410 q 556 415 549 414 q 569 412 567 412 q 574 411 571 411 q 587 411 585 412 q 593 411 590 410 q 602 416 598 412 q 612 420 606 419 q 628 416 620 418 q 644 411 636 414 q 665 404 661 403 q 674 403 670 406 q 686 394 681 400 q 700 387 692 388 q 711 374 703 378 q 719 362 720 370 q 726 357 724 361 q 734 353 727 353 q 742 334 734 339 q 739 328 739 331 q 735 320 738 324 q 742 307 736 315 m 661 294 q 655 304 658 298 q 655 312 652 309 q 655 331 659 319 q 643 345 651 343 q 634 343 637 346 q 627 338 631 340 q 617 340 623 340 q 610 345 612 340 q 602 345 604 342 q 594 349 600 349 q 576 344 585 347 q 557 343 568 340 q 553 336 555 339 q 548 328 551 332 q 539 323 543 327 q 530 319 536 320 q 521 305 525 312 q 510 294 517 298 l 505 275 q 497 263 498 271 q 492 248 496 255 l 500 228 q 517 216 513 225 q 533 203 522 206 q 557 204 548 202 q 575 210 566 206 q 593 217 585 214 q 602 220 601 220 q 617 229 606 227 q 627 241 621 236 q 639 250 632 247 q 646 262 643 256 q 654 274 648 269 q 655 285 652 281 q 661 294 658 289 m 658 838 q 654 827 658 831 q 650 818 650 823 q 640 808 643 815 q 629 800 637 800 q 622 783 625 789 q 609 770 618 776 l 600 751 q 591 742 591 746 q 586 736 591 738 q 571 711 574 723 q 562 690 568 700 q 555 676 560 678 q 552 666 551 674 q 540 654 545 661 q 533 637 534 647 q 526 632 529 635 q 518 627 522 629 q 505 601 513 609 l 502 587 q 494 578 499 581 q 484 570 490 575 q 472 549 481 555 q 466 536 468 536 q 461 533 464 536 q 451 516 450 521 q 446 510 452 511 q 437 490 441 494 q 427 481 433 486 q 420 467 427 471 q 412 453 414 463 q 400 440 404 444 q 397 431 396 437 q 388 419 391 430 q 370 394 376 403 q 362 376 363 385 q 350 359 354 363 q 343 351 346 355 q 341 343 340 349 q 327 328 342 338 q 309 300 319 313 q 292 271 298 286 q 280 249 282 255 q 271 236 278 243 q 264 220 270 225 q 255 206 259 214 q 245 190 248 194 q 239 174 245 179 q 231 160 232 170 q 221 146 222 156 q 210 134 213 145 q 202 127 205 132 q 194 119 199 122 q 193 113 195 115 q 191 106 190 110 q 180 98 182 100 q 176 96 179 96 q 170 84 175 88 q 163 73 165 80 q 153 69 160 73 q 136 72 146 65 q 111 75 119 73 q 96 81 103 77 q 95 92 96 87 q 94 103 94 98 q 98 115 95 110 q 102 126 102 119 q 119 144 111 132 q 127 159 126 156 q 138 172 134 168 q 148 179 141 176 q 157 190 151 190 q 166 205 160 199 q 174 221 172 210 q 180 229 180 222 q 187 237 180 235 q 190 247 187 243 q 193 256 193 251 q 199 261 197 258 q 203 267 201 264 q 204 275 202 271 q 205 283 206 279 q 212 293 212 286 q 214 302 212 300 q 223 315 220 309 q 232 326 227 320 q 243 338 240 336 q 249 353 247 350 q 254 358 251 355 q 259 369 256 366 q 262 377 262 372 q 271 386 267 384 q 278 392 275 388 l 282 412 q 288 417 285 415 q 296 420 292 419 q 300 433 297 427 q 309 439 302 438 q 319 457 312 450 q 327 475 326 464 q 357 519 351 500 q 370 544 370 529 q 376 549 374 547 q 382 553 378 552 q 385 561 382 555 q 392 573 388 567 q 400 585 396 579 q 406 590 404 590 q 415 604 415 598 q 420 610 415 609 q 423 623 420 618 q 429 636 426 628 q 436 642 435 636 q 444 648 437 647 q 446 656 441 655 q 448 665 450 658 q 463 682 457 670 q 475 701 468 693 q 485 722 483 715 q 492 732 487 728 q 500 751 499 746 q 507 760 500 757 q 511 771 510 769 q 515 774 513 773 q 520 789 514 777 q 530 803 526 802 q 533 812 532 808 q 538 815 534 815 q 545 827 540 822 q 552 840 549 833 q 565 850 564 852 q 568 849 566 849 q 574 859 571 854 q 585 865 578 863 q 589 876 585 872 q 597 882 593 879 q 640 879 620 873 q 644 871 640 873 q 646 864 647 869 q 658 849 656 854 q 658 838 659 844 z "},"&":{"ha":833,"x_min":27,"x_max":861,"o":"m 860 444 q 860 429 861 435 q 857 414 859 422 q 842 410 853 412 q 836 405 840 407 q 829 401 833 403 q 806 404 817 399 q 783 408 795 410 q 770 418 777 411 q 757 429 764 426 q 747 422 750 427 q 739 411 743 418 q 730 404 734 408 q 720 396 726 400 q 715 379 719 385 q 705 363 712 373 q 697 349 700 351 q 692 343 694 346 q 686 337 689 340 q 681 332 684 334 q 665 317 671 321 q 661 307 659 313 q 655 302 658 304 q 650 298 652 301 q 639 279 646 286 q 627 270 632 273 q 618 248 620 251 q 614 243 616 245 q 614 237 613 241 q 616 222 614 233 q 627 210 623 217 q 637 195 631 202 q 640 186 636 190 q 649 176 644 182 q 658 162 654 170 q 661 144 662 155 q 670 130 666 137 q 677 114 674 122 q 684 105 681 110 q 690 96 688 100 q 690 82 690 90 q 686 68 689 75 q 681 66 685 68 q 673 61 677 64 q 665 56 669 58 q 661 52 662 53 q 643 44 648 45 q 633 39 637 43 q 624 53 624 43 q 614 74 620 69 q 612 85 609 79 q 604 94 609 92 q 601 106 600 96 q 595 112 598 110 q 594 121 593 114 q 568 161 574 138 q 561 165 564 163 q 555 168 557 168 q 543 160 547 168 q 530 151 540 152 q 526 143 529 146 q 521 134 522 140 q 499 122 509 127 q 496 113 499 115 q 490 109 494 110 q 483 105 487 107 q 477 99 479 103 q 467 96 471 100 q 457 90 464 92 q 429 75 438 77 q 414 65 420 73 q 399 64 407 68 q 385 62 392 61 q 371 54 378 57 q 357 47 363 52 q 341 45 354 47 q 327 42 328 42 q 317 36 321 35 q 309 31 312 37 q 291 31 296 33 q 275 27 286 30 q 266 27 274 27 q 248 28 258 27 q 229 29 237 28 q 218 30 220 30 q 203 37 212 35 q 194 38 194 39 q 176 47 180 42 q 163 52 171 52 q 138 69 146 62 q 119 79 130 76 q 109 89 117 87 q 100 100 102 91 q 82 115 87 111 q 73 123 77 119 q 71 132 72 127 q 68 141 69 137 q 62 144 65 142 q 57 149 60 146 q 52 167 52 161 q 45 176 52 172 q 43 191 45 183 q 38 202 42 198 q 37 214 38 214 q 33 220 35 213 q 32 227 31 224 q 33 235 33 231 q 30 248 31 241 q 30 260 28 254 q 31 286 33 279 q 27 298 30 292 q 30 316 33 313 q 27 323 27 319 q 34 347 28 332 q 43 369 39 361 q 45 382 41 377 q 47 399 49 388 q 54 410 50 406 q 58 425 58 415 q 67 435 65 427 q 76 445 69 442 q 83 461 77 456 q 91 475 88 467 q 101 484 98 477 q 111 494 104 491 q 129 515 121 506 q 142 532 137 525 q 155 540 149 534 q 170 549 161 545 q 179 558 178 556 q 183 559 180 560 q 194 573 191 570 q 201 578 197 576 q 208 588 203 585 q 216 595 213 591 q 222 595 220 593 q 231 598 225 598 q 248 609 237 605 q 266 621 259 613 q 262 633 263 627 q 258 643 262 640 q 258 656 259 654 q 255 661 256 658 q 253 677 252 667 q 247 692 254 688 q 244 708 248 699 q 242 728 244 711 q 240 747 240 745 q 242 766 244 762 q 247 777 240 769 q 248 800 247 795 q 250 812 250 804 q 258 830 255 825 q 256 838 262 836 q 261 846 258 840 q 269 862 264 853 q 275 878 273 871 q 278 887 278 886 q 294 904 289 899 q 301 916 300 909 q 323 943 316 925 q 339 949 332 945 q 348 955 345 955 q 354 956 351 955 q 373 968 361 959 q 392 974 385 977 q 404 977 401 979 q 408 977 406 975 q 427 979 416 979 q 441 982 437 978 q 454 981 448 978 q 468 982 461 983 q 490 970 480 979 q 511 960 499 962 q 519 950 514 954 q 528 940 525 947 l 538 930 q 554 913 553 918 q 562 906 555 907 q 570 888 562 899 q 570 878 567 882 q 574 868 574 873 q 573 854 575 861 q 578 845 571 848 q 574 835 572 841 q 574 825 576 829 q 575 799 576 806 q 572 784 574 792 q 568 777 572 779 q 564 769 563 776 q 555 761 555 762 q 553 757 555 760 q 545 751 545 753 q 543 746 545 749 q 521 727 528 735 q 507 712 514 719 q 494 701 499 707 q 481 690 488 696 q 469 678 475 684 q 461 673 463 673 q 451 661 452 665 q 448 655 450 658 q 437 650 442 652 q 430 643 433 648 q 423 640 425 643 q 415 637 422 636 q 412 631 412 635 q 408 625 411 628 q 392 617 396 621 q 381 612 388 613 q 376 606 378 609 q 370 600 373 602 q 373 592 370 594 q 377 587 376 590 q 385 561 380 576 q 400 538 391 545 q 405 528 400 536 q 414 512 410 521 q 424 496 419 503 q 431 488 429 490 q 435 475 431 483 q 446 465 439 468 q 448 458 444 458 q 450 452 452 457 q 458 442 456 448 q 467 434 461 437 q 477 412 468 427 q 492 396 486 397 q 500 381 496 385 q 507 370 505 377 q 516 364 514 369 q 525 357 518 359 q 530 336 528 339 q 538 331 532 334 l 545 317 q 555 308 555 311 q 557 304 555 305 q 571 313 570 311 q 571 317 572 315 q 583 331 581 330 q 587 335 586 332 q 600 343 598 338 q 608 351 602 349 q 611 361 609 357 q 614 370 613 365 q 620 376 618 372 q 625 378 621 380 q 632 393 627 387 q 639 407 637 399 q 649 418 646 411 q 656 431 652 425 q 669 446 667 439 q 677 452 673 449 q 684 461 681 456 q 677 469 682 468 q 670 477 673 471 q 656 481 663 477 q 643 486 650 484 q 627 495 631 494 q 620 500 623 496 q 611 503 613 499 q 604 506 609 506 q 596 514 601 511 q 589 522 591 517 q 597 547 590 534 q 612 558 604 552 q 627 566 620 564 q 633 570 629 568 q 640 574 636 572 q 651 564 648 568 q 665 558 663 557 q 670 559 667 559 q 690 545 688 551 q 703 541 693 540 q 718 532 715 534 q 727 530 720 529 q 740 521 731 524 q 758 516 749 518 q 774 512 766 514 q 785 507 783 510 q 799 507 792 509 q 812 488 807 494 q 825 479 817 481 q 834 467 827 471 q 842 456 841 464 q 860 444 854 450 m 496 844 q 493 852 496 849 q 491 861 490 856 q 473 879 480 875 q 461 891 465 883 q 452 896 454 897 q 448 897 450 895 q 420 909 433 909 q 397 907 408 910 q 390 899 395 903 q 380 897 385 895 q 367 882 374 888 q 353 869 359 876 q 347 857 349 859 q 342 854 345 854 q 339 838 342 849 q 332 829 332 831 q 331 825 332 827 q 328 816 327 819 q 327 810 328 812 q 321 795 324 806 q 323 786 321 788 q 326 777 324 784 q 326 764 327 770 q 327 751 324 758 q 319 732 319 741 q 324 708 324 716 q 327 692 324 700 q 332 679 332 682 q 335 671 332 675 q 345 674 343 670 q 353 680 346 678 q 367 685 368 681 q 370 689 366 689 q 385 699 381 692 q 403 707 389 707 q 411 720 411 715 q 418 722 411 724 q 429 732 423 728 q 441 741 434 736 q 448 752 444 747 q 457 761 452 757 q 471 771 467 768 q 479 777 475 774 q 487 794 483 787 q 494 808 491 802 q 498 823 498 815 q 496 844 499 831 m 515 231 q 511 237 514 235 q 507 243 509 240 q 500 252 505 250 q 494 262 495 255 q 485 268 491 264 q 476 278 479 271 q 473 287 476 283 q 469 296 471 290 q 463 300 467 298 q 457 313 458 301 q 450 319 454 317 q 446 327 446 321 q 432 342 435 340 q 426 349 429 345 q 423 356 427 354 q 420 363 419 358 q 410 370 414 365 q 400 378 407 376 q 397 391 403 385 q 391 403 391 396 q 382 412 385 406 q 374 420 380 418 q 371 429 374 426 q 369 438 368 431 q 359 456 359 445 q 352 463 351 461 q 349 471 353 464 q 338 484 340 480 q 331 495 335 488 q 326 514 324 506 q 312 540 313 524 q 306 547 308 543 q 301 555 304 552 q 286 549 290 555 q 273 544 282 543 q 259 530 266 537 q 241 525 252 522 q 233 515 237 519 q 222 509 229 511 q 219 503 222 505 q 217 495 216 500 l 203 487 q 191 473 195 473 q 189 468 187 473 q 173 454 178 457 q 165 445 168 450 q 156 438 159 444 q 146 430 153 433 q 146 422 146 427 q 145 414 145 418 q 136 397 140 401 q 126 387 132 393 q 122 376 126 381 q 121 366 118 372 q 119 354 119 357 q 119 349 118 351 q 116 332 114 342 q 111 317 118 323 q 112 298 111 307 q 109 288 113 290 q 111 275 111 275 q 110 271 110 274 q 114 248 115 256 q 114 233 113 240 q 123 220 121 228 q 127 205 126 213 q 138 195 136 195 q 142 191 141 194 q 149 173 140 179 q 165 160 159 167 q 177 146 164 151 q 195 132 190 141 q 212 123 210 126 q 217 118 213 119 q 224 118 220 118 q 232 117 229 118 q 245 109 243 109 q 251 109 248 110 q 286 105 273 102 q 312 106 298 109 q 339 111 324 111 q 348 114 340 113 q 363 117 355 115 q 379 121 372 119 q 389 122 387 122 l 403 132 q 422 145 418 141 q 433 149 426 149 q 449 167 438 159 q 455 170 453 167 q 461 174 457 172 q 471 187 464 182 q 484 195 477 193 q 496 208 490 206 q 509 220 500 216 l 515 231 z "},"'":{"ha":144,"x_min":27,"x_max":118,"o":"m 115 621 q 113 606 113 617 q 106 600 110 604 q 102 593 103 597 q 92 588 95 591 q 80 585 88 585 q 68 585 69 586 q 65 585 68 585 l 50 590 q 39 605 42 601 q 37 610 37 609 q 38 628 39 625 q 37 633 37 631 q 35 656 38 648 q 30 670 31 663 q 31 685 33 682 q 28 692 28 688 q 30 701 28 697 q 27 711 31 705 q 33 736 34 723 q 31 762 33 750 q 33 774 31 770 q 35 784 34 779 l 35 798 q 36 821 34 812 q 37 837 38 829 q 30 864 28 856 q 31 879 31 872 q 42 888 38 886 q 49 895 46 891 q 64 895 57 892 q 77 901 71 898 q 88 897 88 898 q 91 895 88 895 q 98 891 94 892 q 106 887 102 890 q 110 866 111 873 q 109 846 109 859 q 109 834 110 837 q 107 829 107 831 q 108 813 107 822 q 109 798 109 804 q 106 774 104 785 q 110 761 107 764 q 108 748 109 750 q 110 735 107 746 q 110 720 109 731 q 114 707 111 709 q 112 670 106 690 q 113 632 118 650 l 115 621 z "},"(":{"ha":423,"x_min":27,"x_max":354,"o":"m 353 -8 q 347 -18 350 -12 q 342 -26 345 -23 q 328 -34 332 -26 q 296 -33 313 -34 q 264 -26 279 -31 q 258 -17 263 -24 q 255 -8 254 -9 q 240 3 245 -4 q 225 12 235 9 q 216 25 218 23 q 209 27 213 27 q 199 45 206 38 q 186 64 191 53 q 173 72 178 66 q 161 81 168 77 q 145 106 157 95 q 138 125 146 113 q 125 137 130 137 q 124 146 126 144 q 121 152 122 148 q 108 175 115 161 q 100 193 100 189 q 90 207 90 202 q 84 212 90 212 q 81 229 91 220 q 69 245 72 239 q 68 265 69 259 q 66 274 68 271 q 62 279 65 277 q 57 290 60 282 q 56 302 54 297 q 56 315 57 308 q 53 325 54 319 q 50 335 52 331 q 46 345 49 340 q 42 354 43 349 q 43 361 42 358 q 43 369 43 365 q 41 379 43 374 q 39 389 39 384 q 40 405 38 397 q 39 419 42 412 q 35 447 35 437 q 27 465 35 457 q 31 490 34 472 q 33 514 28 507 q 31 528 28 526 q 33 533 33 530 q 32 554 31 547 q 33 570 33 562 q 34 585 34 578 q 34 595 34 593 q 36 614 35 602 q 39 631 37 627 q 46 659 47 650 q 47 678 45 667 q 50 688 49 685 q 53 692 52 690 q 54 699 54 694 q 53 713 54 703 q 60 735 58 730 q 60 747 62 741 q 67 762 65 757 q 66 770 69 766 q 75 787 75 777 q 83 804 76 798 q 94 830 79 821 q 102 845 100 841 q 109 852 103 849 q 117 867 115 861 q 122 880 119 873 q 132 891 129 888 q 136 899 136 894 q 141 904 140 899 q 146 909 142 909 q 153 926 148 920 q 161 943 159 933 q 178 962 174 956 q 183 978 182 968 q 190 981 186 982 q 195 987 194 981 q 203 996 202 991 q 206 1002 203 1000 q 224 1019 220 1008 q 240 1035 237 1021 q 248 1036 247 1032 q 255 1039 248 1040 q 285 1048 271 1046 q 305 1035 301 1042 q 313 1034 309 1035 q 319 1031 316 1032 q 319 1024 321 1028 q 319 1017 317 1020 q 317 996 321 1000 q 313 985 312 991 q 300 974 304 979 q 283 967 289 972 q 270 958 278 962 q 264 947 267 952 q 256 940 262 943 q 254 933 256 939 q 248 922 251 928 q 240 909 244 916 q 235 902 236 903 q 233 896 235 899 q 232 888 232 892 q 210 863 220 871 q 197 840 199 854 l 189 821 q 182 812 186 817 q 174 806 179 808 q 163 788 172 798 q 160 771 164 773 q 155 766 156 769 q 155 760 153 762 q 156 753 157 757 q 151 743 155 746 q 148 731 148 739 q 142 722 140 728 q 144 711 144 716 q 136 692 140 699 q 136 675 132 686 q 132 666 133 669 q 132 656 130 663 q 129 629 123 642 q 121 618 122 625 q 117 605 121 610 q 117 592 118 598 q 114 579 115 586 q 116 562 117 576 q 113 544 115 547 q 113 517 121 529 q 113 494 115 506 q 111 472 111 483 q 115 456 117 457 q 113 453 114 456 q 118 426 121 441 q 122 397 115 411 q 121 377 119 382 q 125 368 123 372 q 125 348 126 357 q 136 331 125 339 q 137 319 136 328 q 140 298 138 309 q 145 278 142 288 q 151 267 148 269 q 158 245 156 254 q 164 229 160 236 q 173 214 170 218 q 179 198 176 210 q 186 191 180 193 q 189 178 191 189 q 195 172 193 175 q 201 165 197 168 q 227 132 206 145 q 231 120 227 123 q 237 110 235 117 q 248 102 245 107 q 255 91 250 96 q 266 79 259 85 q 275 66 273 73 q 294 49 288 62 q 304 43 302 45 q 308 38 307 41 q 318 32 316 35 q 331 30 320 28 q 341 20 335 26 q 353 11 347 15 q 353 -3 351 -1 q 353 -8 354 -5 z "},")":{"ha":423,"x_min":69,"x_max":395,"o":"m 395 519 q 392 495 389 513 q 391 471 395 477 q 391 456 393 458 q 391 452 389 454 q 391 430 392 437 q 390 415 391 423 q 389 399 389 407 q 388 389 388 392 q 387 370 388 382 q 384 354 385 358 q 377 326 376 335 q 376 307 378 316 q 372 297 374 300 q 370 292 370 294 q 368 286 369 290 q 369 271 368 281 q 363 250 365 255 q 363 237 361 244 q 355 223 357 228 q 357 214 354 218 q 348 197 349 208 q 340 180 347 187 q 339 165 343 172 q 330 155 335 159 q 321 140 323 144 q 315 133 320 136 q 305 117 308 123 q 300 104 302 111 q 291 94 294 96 q 288 85 288 91 q 281 81 282 85 q 277 76 281 76 q 269 58 274 65 q 262 42 263 52 q 245 22 250 28 q 239 7 240 16 q 232 3 236 3 q 228 -3 228 4 q 219 -11 220 -7 q 217 -18 218 -15 q 199 -34 203 -23 q 191 -38 194 -35 q 184 -43 189 -41 q 175 -52 176 -47 q 168 -54 174 -56 q 147 -62 152 -60 q 136 -64 142 -64 q 117 -50 121 -57 q 103 -39 102 -43 q 104 -33 104 -35 q 106 -11 102 -15 q 109 0 111 -7 q 123 11 117 4 q 139 18 134 12 q 152 27 144 23 q 157 37 155 33 q 167 45 160 42 q 170 52 167 46 q 176 63 172 57 q 182 75 179 69 q 187 83 186 81 q 190 89 189 85 q 191 96 191 92 q 213 122 202 114 q 227 145 224 130 l 235 164 q 248 179 243 175 q 260 197 254 190 q 263 214 259 212 q 269 218 267 216 q 268 225 270 222 q 266 232 266 228 q 272 242 269 239 q 274 254 275 245 q 280 262 282 256 q 279 274 278 269 q 287 292 283 286 q 288 309 290 298 q 291 319 290 316 q 290 328 292 321 q 294 355 300 343 q 300 367 300 359 q 307 380 301 374 q 306 399 304 388 q 308 419 308 411 q 307 431 308 426 q 309 441 307 435 q 309 468 302 456 q 309 490 307 479 q 312 513 312 502 q 307 528 307 528 q 309 532 308 529 q 304 559 302 544 q 300 587 307 574 q 302 608 304 602 q 298 617 300 613 q 298 637 297 628 q 288 654 298 646 q 286 666 288 656 q 282 686 285 675 q 277 706 279 697 q 273 718 274 715 q 262 744 266 734 q 254 764 259 754 q 247 774 248 772 q 244 785 245 776 q 237 794 243 792 q 235 807 232 796 q 228 813 231 810 q 221 819 225 817 q 212 838 218 830 q 195 853 205 846 q 193 865 197 861 q 186 875 189 868 q 176 883 178 878 q 168 894 174 888 q 157 905 164 899 q 148 918 151 911 q 129 936 133 924 q 115 947 117 943 q 104 953 107 949 q 91 955 102 956 q 81 964 87 959 q 71 974 76 970 q 71 988 72 986 q 71 993 69 990 q 79 1006 73 1000 q 91 1015 84 1012 q 127 1017 110 1019 q 159 1010 144 1016 q 164 1002 160 1009 q 168 993 168 994 q 182 982 176 989 q 197 972 187 975 q 207 960 203 962 q 213 958 210 958 q 224 939 216 947 q 237 921 232 932 q 250 913 245 918 q 262 903 255 907 q 278 879 266 888 q 285 860 277 872 q 298 848 293 848 q 299 839 297 841 q 302 833 301 837 q 315 810 308 823 q 323 792 323 796 q 333 778 332 783 q 339 773 334 773 q 338 764 336 769 q 342 755 339 760 q 348 747 345 751 q 353 739 351 743 q 353 719 353 724 q 356 711 354 713 q 361 705 358 708 q 366 694 363 703 q 368 682 369 688 q 368 670 366 677 q 370 660 369 666 q 373 650 370 654 q 377 640 374 644 q 381 631 380 635 q 380 623 381 627 q 378 616 378 620 q 380 606 378 610 q 384 594 382 601 q 383 581 385 587 q 384 566 381 574 q 388 538 388 548 q 395 519 388 528 z "},"*":{"ha":522,"x_min":26,"x_max":495,"o":"m 495 819 q 492 807 494 812 q 491 795 491 802 q 473 773 481 785 q 444 766 461 770 q 415 760 427 761 q 393 755 397 758 q 382 751 388 753 q 351 747 368 749 q 320 741 335 746 q 312 735 316 738 q 302 730 308 732 q 304 713 305 722 q 302 697 302 705 q 304 685 302 690 q 301 674 305 680 q 307 658 304 666 q 309 642 309 650 q 311 623 308 627 q 313 616 313 620 q 313 600 309 609 q 317 585 317 591 q 311 566 317 575 q 301 548 305 556 q 273 543 288 545 q 244 545 258 540 q 242 552 243 548 q 237 559 241 556 l 228 572 q 227 585 228 585 q 225 589 225 586 q 221 614 221 601 q 217 642 221 627 q 219 650 216 646 q 214 666 222 655 q 215 690 218 678 q 212 715 212 703 q 197 712 203 718 q 184 704 191 707 q 172 700 180 703 q 155 693 164 697 q 139 685 146 689 q 130 677 132 681 q 119 675 122 678 q 109 669 115 673 q 83 666 95 673 q 57 659 71 659 q 42 663 49 659 q 28 670 35 667 q 31 693 26 681 q 46 708 37 705 q 60 721 57 719 q 66 720 64 723 q 76 726 72 723 q 87 731 80 730 q 108 737 103 734 q 119 739 113 741 q 125 743 123 741 q 130 749 127 746 q 156 758 144 753 q 172 766 168 764 q 180 788 187 780 q 171 794 178 793 q 159 798 164 795 q 151 806 152 803 q 145 811 149 808 q 129 827 134 823 q 119 836 123 830 q 106 854 113 845 q 94 872 100 863 q 83 885 88 880 q 72 894 77 890 q 69 904 72 901 q 66 913 66 907 q 71 930 66 920 q 81 944 75 941 q 93 952 91 949 q 103 955 95 955 q 127 954 119 956 q 148 940 136 951 q 159 932 155 936 q 164 921 163 928 q 176 911 172 918 q 186 902 179 905 q 195 886 189 887 q 199 878 201 886 q 214 868 208 873 q 231 860 221 863 q 239 878 236 864 q 252 891 248 888 q 258 897 255 894 q 260 906 258 898 q 267 924 263 914 q 273 941 270 933 q 275 951 275 949 q 283 967 283 954 q 288 987 283 981 q 312 998 301 990 q 338 997 323 1005 q 340 991 336 993 q 340 983 343 990 q 346 978 342 979 q 350 971 350 977 q 342 942 350 956 q 335 918 334 928 q 330 907 330 911 q 328 897 331 902 q 313 865 316 884 q 297 833 309 846 q 295 817 298 822 q 290 803 292 812 q 301 800 296 802 q 313 800 307 798 q 326 808 321 808 q 334 808 330 807 q 344 813 339 810 q 354 819 349 817 q 375 823 369 821 q 387 821 381 826 q 407 828 393 829 q 427 838 420 827 q 439 840 434 838 q 452 841 445 841 q 463 838 458 840 q 473 838 467 836 q 485 829 479 833 q 495 819 491 826 z "},"+":{"ha":532,"x_min":12,"x_max":517,"o":"m 517 449 q 511 440 514 444 q 510 430 509 437 q 495 411 499 423 q 486 413 491 412 q 479 408 481 414 q 439 408 460 414 q 399 410 418 403 q 382 406 391 406 q 363 406 373 406 q 345 407 354 407 q 328 401 335 407 q 317 404 321 403 q 305 403 312 404 q 304 391 304 397 q 311 382 305 385 q 309 376 308 380 q 307 369 309 372 q 309 359 311 365 q 308 347 308 353 q 308 330 308 334 q 308 316 309 317 q 307 312 307 315 q 308 301 309 304 q 307 296 307 298 q 311 280 313 281 q 308 277 309 279 q 307 262 307 270 q 304 250 307 255 q 300 227 305 236 q 289 214 296 218 q 265 210 273 208 q 252 209 258 212 q 241 218 247 214 q 229 227 235 221 q 228 237 231 233 q 225 247 225 241 q 218 262 218 252 q 224 277 217 271 q 221 290 220 288 q 221 296 222 293 q 220 304 221 300 q 218 312 218 308 q 220 320 218 316 q 220 330 221 324 q 219 350 217 346 q 221 359 221 354 q 220 382 222 368 q 214 406 217 397 q 200 404 208 403 q 186 406 193 406 q 162 402 175 404 q 138 407 149 400 q 115 404 127 403 q 94 399 103 406 q 70 398 81 401 q 46 400 58 395 l 33 410 q 20 422 23 419 q 15 427 18 425 q 18 461 12 446 q 23 464 20 460 q 28 469 26 468 q 52 471 38 473 q 76 469 65 468 q 101 475 95 476 q 114 479 107 475 q 127 479 126 477 q 137 480 127 480 q 150 481 144 481 q 163 479 156 480 q 191 474 180 473 q 212 476 202 475 q 218 484 214 476 q 221 495 221 492 q 220 515 221 510 q 217 528 218 521 q 218 538 218 534 q 221 545 218 543 q 219 562 217 560 q 221 566 221 563 q 222 582 221 578 q 225 590 224 586 q 227 624 224 613 q 229 646 229 635 q 236 650 233 648 q 243 654 239 652 q 241 671 243 669 q 239 677 239 674 q 243 687 240 682 q 250 696 247 692 q 264 696 264 693 q 267 699 264 699 q 305 694 290 696 q 311 685 307 688 q 320 678 316 682 q 322 668 320 673 q 324 659 324 663 q 321 647 324 652 q 320 635 317 642 q 313 629 316 632 q 307 624 311 627 q 307 609 309 617 q 304 594 304 601 q 304 580 302 587 q 302 567 307 572 q 302 551 300 559 q 305 540 304 543 q 304 532 304 537 q 302 525 305 528 q 306 506 307 509 q 304 496 305 503 q 305 488 302 492 q 305 479 308 484 q 330 479 311 479 q 350 484 349 480 q 357 480 354 481 q 363 479 359 479 q 402 486 389 480 q 430 486 415 491 q 437 486 434 484 q 444 488 441 488 q 454 488 449 490 q 463 490 458 487 q 477 488 475 490 q 481 490 479 487 q 517 452 507 475 l 517 449 z "},",":{"ha":260,"x_min":42,"x_max":195,"o":"m 190 85 q 186 79 189 81 q 183 72 184 76 q 182 65 182 69 q 180 58 182 61 q 173 50 178 54 q 165 42 168 46 q 160 33 160 35 q 152 24 160 31 q 150 17 152 20 q 146 9 148 14 q 136 5 141 7 q 127 0 132 3 q 113 -3 118 -7 q 102 8 109 1 q 95 24 99 19 q 102 45 92 38 q 105 60 103 52 q 110 75 107 68 q 95 85 103 88 q 79 81 87 83 q 66 90 72 85 q 54 96 61 94 q 42 110 50 103 q 44 123 43 115 q 42 137 45 132 q 45 144 45 140 q 50 151 45 149 q 56 171 54 165 q 62 180 58 176 q 109 184 84 182 q 152 174 133 186 q 184 135 174 160 q 190 85 195 110 z "}}}
